<mxfile host="app.diagrams.net" agent="Mozilla/5.0 (Windows NT 10.0; Win64; x64) AppleWebKit/537.36 (KHTML, like Gecko) Chrome/135.0.0.0 Safari/537.36 Edg/135.0.0.0" version="26.2.13">
  <diagram name="第 1 页" id="9FH7r4amGyXJ6CVpFU7y">
    <mxGraphModel dx="2211" dy="96" grid="1" gridSize="10" guides="1" tooltips="1" connect="1" arrows="1" fold="1" page="1" pageScale="1" pageWidth="827" pageHeight="1169" math="0" shadow="0">
      <root>
        <mxCell id="0" />
        <mxCell id="1" parent="0" />
        <mxCell id="zGswEQUEo45fGF-Yw32O-1" value="" style="rounded=1;whiteSpace=wrap;html=1;fillColor=none;dashed=1;strokeColor=#666666;arcSize=5;" vertex="1" parent="1">
          <mxGeometry x="1533.39" y="1199" width="286.61" height="431" as="geometry" />
        </mxCell>
        <mxCell id="zGswEQUEo45fGF-Yw32O-2" value="Acknowledging Complexity" style="rounded=1;whiteSpace=wrap;html=1;fillColor=#e1d5e7;strokeColor=#9673a6;" vertex="1" parent="1">
          <mxGeometry x="1629.4799999999998" y="1278" width="163.75" height="28.5" as="geometry" />
        </mxCell>
        <mxCell id="zGswEQUEo45fGF-Yw32O-3" value="" style="rounded=1;whiteSpace=wrap;html=1;fillColor=none;dashed=1;strokeColor=#666666;arcSize=5;" vertex="1" parent="1">
          <mxGeometry x="510" y="1199" width="460" height="430" as="geometry" />
        </mxCell>
        <mxCell id="zGswEQUEo45fGF-Yw32O-4" value="" style="rounded=1;whiteSpace=wrap;html=1;fillColor=none;dashed=1;strokeColor=#666666;arcSize=5;" vertex="1" parent="1">
          <mxGeometry x="990.75" y="1439" width="535.25" height="191" as="geometry" />
        </mxCell>
        <mxCell id="zGswEQUEo45fGF-Yw32O-5" value="" style="rounded=1;whiteSpace=wrap;html=1;fillColor=none;dashed=1;strokeColor=#666666;arcSize=5;" vertex="1" parent="1">
          <mxGeometry x="990.75" y="1199" width="534.79" height="231" as="geometry" />
        </mxCell>
        <mxCell id="zGswEQUEo45fGF-Yw32O-6" value="&lt;div style=&quot;text-align: left;&quot;&gt;&lt;br&gt;&lt;/div&gt;" style="rounded=1;whiteSpace=wrap;html=1;fillColor=#e1d5e7;strokeColor=#9673a6;" vertex="1" parent="1">
          <mxGeometry x="737" y="1529.88" width="140" height="44.12" as="geometry" />
        </mxCell>
        <mxCell id="zGswEQUEo45fGF-Yw32O-7" value="" style="rounded=1;whiteSpace=wrap;html=1;fillColor=#fad7ac;strokeColor=#b46504;" vertex="1" parent="1">
          <mxGeometry x="607.04" y="1208.75" width="344.46" height="141" as="geometry" />
        </mxCell>
        <mxCell id="zGswEQUEo45fGF-Yw32O-8" value="" style="shape=image;verticalLabelPosition=bottom;labelBackgroundColor=default;verticalAlign=top;aspect=fixed;imageAspect=0;image=data:image/png,iVBORw0KGgoAAAANSUhEUgAAAGQAAABkCAYAAABw4pVUAAAACXBIWXMAAAsTAAALEwEAmpwYAAAOwklEQVR4nO1deVAUVxqfZO9N9qqtra3aTe1uZTe7VflDqxbmfT3DwCDKoSYgIIgocsmhRBBQQAHFK4qIB4IHXomo6xHjvcZ4xSOaqNFootEYNersxugaQ7bcnObb+jpzvO7pHmbGOZhhXtVXZTnNe6+/X7/v+r3XrdH4qYWHhz8JACsA4CoAPAAAVJE7ALAHAGL9Ndegb4yxSADodAACqki9v+cedM1oND7OGLvlBhhIotVq+2p6WhME4S8AUAEArQCw0cNyjFdwac1kbF27DdvWbleUGS0r0BjdhwflEgAsZYy1e2pOjLFVADBFq9VGpaWlfU/TXZpWq/0rY2ybu0+vqzI8vxiPXvm0S2lqX+uT+VgAZ4wldQe7HgcAn/rqxmP6xuLmw2edAuTw5buYmVPgS1BIZms0mkf8AgYAhAHAfX5Cep2AKfExmPVsvMuSHBcjubnCsvFWKR5bjXWzWnDnyQ+cAuOoWQ5duoNzlq3DknG1kv7i+w+0jtMvyuDWfDMGxGKfyAglUOp8DgbZTAA4z0+kKGUgrh6XjxtqCt2SaXnpkhtzRfFHXRQCxTIOKdfdOa+vLsDJOWkYFaHn507heC+fAqLVajN55ZVnJLl9U4EMyAaztJQMxwidztonY+wlnwICAFssgw+IMeL6h7yhQAdkQ00hlqYn8oD8r1evXo/5EpAbaqujY1w+FqYMwL5RhodykL4CBFwUg16HaQl9sW3MCMl9LxozQnKdIAjMl4B8aRm4ITfNZlNrCnFI/34eiVjUcgxPSPrwnIeeH/mNFeW51ntfVyWN6HwaBvMDk6mxTIqeGk+AESgyVmYdZICk+R2QGflDJJPauGOfSzKyqMSnCo3p2w/XvbzbpTlm5eRb/z47MaF7AyJ3zKZOdEku37qPk6Y1Yr/YOK8CEWEwiOAfPfO+y3MsHz/R2k/WM3HBDUggSHkIEP+DYAoB4n/Fm0KA+F/ZphAg/lewKQSI/5VqCgFiU8K7H97F7Xtf7zLe33fsLF69/YVHlHjk9CU8/NbFECByxbQtX4P6CEUOQVGeeTYJXztx/qEUuXzNS9b+OjbtDK0Qi2J2HzpJBTeXkzgC5dqdL91S5MkLNzAqymjta2LDjBAgFuU0PD/H7cyazJerYNy49wBz8m3Zs06nw/3Hz4UAUcpwqfzdVYlcXhNzBoTj567i4PQMTE5Nw9qG5yV9TJ01N+RDfA3IpGmNiissKTkVr9z+PASIrwHp2LTTDgwyVa8ePRMKe/0BiKkTcU7LUsnfTmucF8pD/AmIqRNxwZJVGB3dB0eXVnjMVAVd+d2XgJi8KCFAQoB03UIrBALfZNXUT7X+P23l5Ld2Kgnfz459xyR9vbB+G1ZW14nmo9yLQnOmOlhQmqyV6152m/8+f/0Taz9U23I34wc3JDEpOTgBuX73a0kpwxmh2tfilesk/Rw6ecG3gAxKCU5ALKCs+scW0RR0ZS6o1PHqkdOKkc7qjTtCJssTgASDlAfTCgkGKQ8B4n8QTCFA/K94U08BJJg5dUEaoaV0e0CCnVMfYjuKcU+v1/+uWwPSEzj1ddUF2JAz+JBPwXAXkJ7AqW/4Tjb6FAx3AekJnPqGECBSZfmbU19ZkYdT89JfA4ABFGXR24i0Wq0uLCzspz1yhXT4iVOns5UFyQPkURYfAn/i1airuwJi6kRsWrDE55z6hKyULv0gY+zzsLCwP/Q4QEydiPMXr0SjMdonnDqtjvjoSKeCE8bYzB4JiMmLIgdkduFQyVwn1GzEZUv/jSuX38Gli29g5tBKHpBbTz/99A9DgHR6D5Dhz9gOqEZHx+Py9o9EMCwybeo++SoZHAKk0zWl79x/HEsrqrCopAwXtr8oYSx5QPSyRLe4qFkCBsmKZbcxLi5Z4ksA4GUCJiws7Ac8OIIg/J0x1sYY28sYW8QYe6JHcOo1Cly5RRa2r7arKBCNTH+z6+CbmJGZpegfBEGH8+e+YwcISdkYaaDBgXNNq9UWC4KQzhg7ovD7x1qtNrxHcOqJMq6cZGZzq1t9CYIeR49aoAgGSfuSm5j4bLZbfTPGPqMXgAY9p54o48ppZfC/63QROGhQvmr9jf4/JbkQx1W+iK0t76uCwUtT45s4qrgZY2MHqT+AEUZMSrR7F8unjLHeHgWkO3HqNTKTtfPAGxLFGwzRojMmJc5tPoN5uVPF/7MAkTFkLDbNPukUCEqyYtnHOHHCZoyPS7WOSSCNLVuGSxZ9KPqdosImOSg36O2sHgWku0ppRZVkZUyfut9OiaSo+tpt2Nz0lttAKAEztWEPzph2UPy3/PeRI6X1OMbY0B4BSEHxc9Y5JycXuKXcBfPPY9X4tVhY0IgjsmrF/CMnexKWjG7BSfU7sH2JyeU+21o/EIMFTqcFPQKQhZz/IJM0d84ZpxRGzrp0zGIcODCzS58VERGJ6emlOHnSLqcBea6kje/jW71e/+ceAciFG/fQEGkrf+TnTe/C1NwSnXmfPgluBRSDkvJw1vNHuxwjJsb29lTG2C6PO3V/ceoH3ngHD775rsNr+DyJHDj5DCVFLV50DVNTitWU/RVj7D3GGJXgt9IbuRljJuUoTYdjy9pVAamduEUe1SUEBae+rGOTU5z6P187IRm7vm67nZLmz3sH4+MUK7v7BUEYZjAYfqWkr/Dw8L8BQA3/rkqLkL+h1SAfa/iwav66OxqN5tGA59RPnL+OkVFRTnHqDTOaZH7ktN3KUADjIr3dW+NkEwThJwBQbS6fODSRz5VIk1SHyWGgcOrZeQVOcervXvuPxIdkZJTb2XMFM/VK7969f6lxozHGBAD4iO+PIjTJA9B2FSMjbR8UYIztDjxO/ewVTBmcLlK2tQ0znCaqWpd1SFZHU+MJiXLIgcvBMBqN33cHDE6HTzHG7lr6jIiIwtaWS5JxRxXP48f8FgD+FBSc+qCUwQ6JqszhtjpTakqRXWgri6YuhoWF/ULjgSYIQj/G2DeWvilv6SIPqQ4KTn3v628rmjQqmZRV1kiup9XAK4XyDJktd9pnONMYYyttq1NvVzGmepmMm2+kb7UEBCAmhXPq02fPl/x+/ZNvcOkL68Xiohw8Uoi8UChL+vZ7EgwzIE/wTp5K9RJzWWFnLi3max8AGLo9ICbunHpJWaVdLlM3ZaaiWSPTIC+hUzmEjwwptPU0IGZQtlvGoEqv1GSaVEv3jLGvyex1e0BMKnLuym270Jto16LCOWKOIQ89q8ZJvtLzlVqe4QFA8vgHg7h4aZR3W6w+Dx1aiXq93Tv1DwcsIHuOvGW3IUHOgfNChULemXsDDDMgvfl5Nc467rDgSMkkt0puBywgW/cckfRr2R2iJvyNA8ABbwFiMBh+w89rSsMeh/Oqqd7Az+t+QHDqldV1IpHF/93mXQcl/SpxELwMy7TNgz585i1AEhISfsTPi3gXR/OqnWijwylsDihO/dDJC5LdJPxvSxffdHjj2dn1/I2/4S1AdDrdHyU6nbLX4byqxq/j5/VZQHHqh069Z/1bKp3wvw3NqBCdJTlNpRunqIu7/qa3AKHwlZ+XGh9DSer4cWuwf4JEzzcDglOvrK6zq+5Stk6fqJCDRkXDstKldiuGmD7+OqraegMQxthkvvQvDzSI18/NabDy+rwwxjoCmqDavOugpJDIS1JSrkQRBBAxfV2WLh6yAcAZyxhE/fJzmD/3nFKoa5GL4mmtQAbE1Il45vJH4h6s+IT+djcpLyymp43hn0aTp896mD/OaR1jQs0myfi0G1IBiFPErxuNxh9bEA1oQEycCd20c79kxVCF1ZHZ8uQqoe9BMsZOW/qONsbZJYX8NlQAOEEf9LTrKFgAMSlsAyJ/Ig+HyZRxq+Rz4jM8AQh9qpXXV2XFKsm4jTOPyR+GDLWOggqQl3YdkMy7buIWiWJmzjgsL4MTufTUQ4JRKAks4lPtnDkRZdyD8JmquQw2QG7ceyCp/iYkpNmtEvmGaSqFi4U919sjANAg3z46Z/Ypu22nfN2NMdbsCF1FQBplh1e8/cY3T0pSsm1bp3hf5q2kvGRl2co/ZiV9Q3yGs8cG6BAo7zNIaOVNrt9pNxaRVdw4Xzg8+64GyKqKPPGL0SohWkDJ89MP2SmJuHXakCC/1uxXtjPG8unDxADwWzopRWcKKekz5xnW0NYilFcogUHCj2PeAf9zVUDoAsvFk7IHS44GVw1LVj2NGigSLzp25eydZPy4DpEDf6gx4lNxTpPUTMlNluxvSh0BcsFyIX33Vn54vrk4E0elDnTrO+X+kGTZt9wryqXRjpIsXHARc7IniyyjK0AYjbEiLeyo7K8S3b2vujcLABby34RdVZmn9EaDgJHClAHWG6etN/JcwJEQB04KJlZPFolJTBNl4BNrNrnUN1/VJREEwagICB2zMvO64oWp8X3Fr0T7W7Eb3BSav+Ve6JCOI3PlSJYsui7mDlMmv4J1tVvFqu3c5redWg3Kq/A9OcijHZmtNTx6ccZInJSTJvmCcqBIcaptUzMJnXLiFUMKpad1WGaVuKOQdjG6o2AlP5E9ol48EERASsH9EAcOkEatABCtCoher/8ZY+ycvx0weEkKRs7CtoWXRQBiYmwm7TuzFoMloxfgotYrbgExa+br4iksOb+fmJgjnqxqmX9BCYytqmBwpuvXtDXG38oDL4maT+B//+6c4eouD+TMaz4rHlOL7ZfkzrjHXClqPqrVajPNFUirXwlSuaP2Gzl1Nd9DfIZaCZ2SPj6NUJBjbu92oWySdmnTq4kCWLIA4DqnkAe00RkA+tPDZ76/3UoP3/RpBxQByc2dogTEfwFgriAIv6ekj/IMALgku2Zbr169HtP09GY0Gh+nw/wAkBseHv6k0jXmLLzavL1TVCA5fSXaVcb0naDDmyom6BEKbanwyBjr4/07DcIGAI0WZZNZkjt64sBlq8Oezwg1zzXa+MybLypA0r4pOpJGOx9lGxJOeXDoUFNr5o3PXQYFjLEi1U5CzXPN7Oi/7gKQS1YOPNQ0Xm/mzQqHzaei7ptBuMcY+xcArKZoyluD/x9QN09p77496QAAAABJRU5ErkJggg==;" vertex="1" parent="1">
          <mxGeometry x="1097.75" y="1577.75" width="40" height="40" as="geometry" />
        </mxCell>
        <mxCell id="zGswEQUEo45fGF-Yw32O-9" value="Test question" style="text;html=1;align=center;verticalAlign=middle;whiteSpace=wrap;rounded=0;fontStyle=1" vertex="1" parent="1">
          <mxGeometry x="1212.8899999999999" y="1549.5" width="83.64" height="30" as="geometry" />
        </mxCell>
        <mxCell id="zGswEQUEo45fGF-Yw32O-10" value="" style="shape=image;verticalLabelPosition=bottom;labelBackgroundColor=default;verticalAlign=top;aspect=fixed;imageAspect=0;image=data:image/png,iVBORw0KGgoAAAANSUhEUgAAAGQAAABkCAYAAABw4pVUAAAACXBIWXMAAAsTAAALEwEAmpwYAAAZHklEQVR4nO1dCXQVVZrOzJxZu6dnsWftmenuM6tOD85M8u6t95IQErYgyhJ2BAlhXyTsBGgQCKAgILsY1oBsQXZQEAgiICqrssguSFA4yubSLSjeOV9RVfnrf1WvqpL3wjLUOf8577yqusv/173//t+kpPvoysjI+LEQYrAQYruU8riU8rwQ4qoQ4jsDruI/KeUJPINn8c7dHvcDeaWkpPyjEOKUlFIFAbwjhPiHuz3+B+4SQrwZlBgEtt3t8T9Ql7xzWQhu0aa9GjHxZTVm2jw1YfYSNW3Rah3we8zUufq9Fm3zbETRNE3c7Xk8MJeUcq6J2BpZNdW2o5+pXWeux4TSY5f0ZwlR5tzteTwQVyQS+VMhxFcmYvsNH+tJDBP6DRtLCfK1EOInd3s+9/0lpexOt57l2/b7JsiKtw5xXtLtbs/nvr4yMjJ+LKU8ZCK0eZtc38QwAfyGEOTQQzE44KVp2n8RXeMW/cInzSsJTJCX5q/gq+SW0XZBSkrKrxLzKd3nl5Tyb4QQfaSUB91EVzDo0mOXAxME7zDmzvWUA0KI3hhD0oN2YVKaptUKh8P/4ed5IcRjQoh5UsqbsfSI2tn11MvLNgYmhgl4F2146Co3DWnuUZ9zfVRKmRYOh/866R79wldKKX8gE4RpI99JsgmFQv8phFjLnlcmpKWnq/bdeqnnZyzQGfPO09cqTAwT0AbaQptoG324EOa2lHI1PhY+7uTk5D/DahJCnGTPr7hnVpgQ4pdsgHxLgMj6CvZrTdP+UggxBXYn/lw4HNaVOSBs8wefVJoAXrD1yKdq8oLXVPtu+UoLh53GjTG+ghUgpfxXIcQLUsprMVbY2VAo9G93lRjhcPh/hBCXfJovsBq+5v9HUtNU/uCRas07xzyR+Mb+s2rhhp06ox42fpquk+DdLvkDVbe+g/Xfg0dPVMNfnK4je8mb76ktH5Z5tou+8S7G4jDub9xWsgMRL2ma9r93hRihUKi6lPIGHVC7zj3V6l1H1IzF61Srdh1iDh6THzhqvHp93xlXRK3bc1y98HKx6vRsP5Vd/yk/RHeEuvXqq+79hqhJc5frbbr1h7FgTC6EsQBzwxwx19wuz/L7NzRNy6hSYkgpq/HliwnvOPmFbYJQ4vDlpVevbht0mw5d1cq3P3BBylndFtWoaYsKE8ALcpq3VmOnz1dvHPjYdcV0zh8Q9QHhv8Wb9th506mrqlfBc3ylfCmlTK4SYkQikX/m2xS+qliMd/Oh82rU5CLVc8Cv1ZxVWxyfWfT6bpXXPV+FwxE/SL1pmOJ3CCG2GALFGvyWUu4DT3PiU9F8K6KvvmVb9zqOae7qrfqYC6fMjsnXMHfgwGH7+peEEgMMTghxmhOjMswVhGiT1yXWvvyd4WwaLYRoCL9IUlLS73iNNTk5+fdTUlL+XQjRSEo53iDU9279YLvlX39Q4ESRUp5JqPQlpSyxbVP9h1ZYJMV+DUbsQoTvpZQbhBCt0tLS/iJe40dbUspcKWWpIa7a+tU0TV8Rmw6eq9CcgAvghM3ltaREXIb4Z00CzIzzDL/wYtFilVEj04kQV6SUI6vCw5ecnPxPWDnUkmwCNPuJc5ZVaG7ACVYbae92QpRHaKV00Kt2Hg48WIig2LMdVsV1KeXQWObxatWq/UjTtGwhxBApZbEQ4l1sCYYf/abBV64a/+HeAtjEQqFQXbzr1i50I+MjiCIMxGnoK0HnCemLrbzUuBME5hDayfTFawMTo37DHE4IyPcLQ6HQ3zr1mZyc/HdSyr5CiF3c0BgQYFDcCXuZW19YlYbGbXu3foPGqqT0QKC5QiSmbSRMYaQaectn8gINsmjFZo6kT2H3cuknUwixMRYTriiY/ElKWcOpbyllPS5FYntdsH6H77lSHQw4SwgxDETBKmp1tnTL+74HuenQ+eupqWmfGe+ud9pXNU2rJYTYHQuhdepmq45deqjhhePUtKJiNX/parV09SYd8Hta0UL13OjxqlPXnqquh0ERK08IkeWyMku5HjJz6QbPeUL3Yv3kJ9SdSrXzZwcO80eQ09c+23n26uPJycl/AmbqQIifCSGWOyENNi4QYPaiFWrPh2dV2Q0VCN49/LGa8+prOoHQlgtxloAIdEzNmjX7PSHERBsvCIc9iQKcEIJ/BYNkUiIvIcQM+tV4iYg7T1+/uOPctV+6tSelbMlNMFJKVat2HTVp+mx18NRngYngBodOX1KTZsxRtevUdRQshBDNHMaXT6XL1NQ0NW9NqasCzKzI0xNKDOIHsIxt0MCdGHjRa5vV5g8u3Nj18bX/dmonIyPjj6SUszhiMrNqqumzF6nTl38TN0JwQNsz5y5WWTVrOW1jM7Kzs/+QjlXTtI50zuApToweGj0TWHz5Vip1paWl/ZVhAdU7hiIVJU01aKzfS0tPv/jYY4/9gYtfYTtHRv/Bw9WRj79IGCE4HDl3RQ0cOsJptWzjIrgQYoBN+mqYEyUSAxfkma+Tk5N/mnCCSClfpgODvYcOiusZ4XD45w4Kps1Vm5mZpUrWb/W97SxYtlaNnTBVFQwbpfoMGOIJA4Y8p/ORc1/ccmzztY2l+spkK+UAFzyklJO4nkLnDjsdX20JJYbhcrWMdnDucA2cfWkb+MrgxMhp2lztP17mucVMK1qoWrdpp5s3goq61ng7dXUlCsbQpFkLJ3/7Tyij59IX1+ipOR4idkIDKSCuUoZOnUpwHtXIzKKDuUyVMPAMvk09/Ux7deyTa66E+OTabTV38UpVt94TFSYCB6wut/4+unBdtc2N8uNsozwFxkLoUNbqrllLZ+ZUSwfjJ++vSQgx4AenjG1Q4Yu2L4MZCvFcbUbMWZwYsRj3iYtfqi498h2RGtY0VS+zumpSt6Zq+1RdT6iRlmq9O2zUC56rkROFbz1Syifo/WcHDbfhYsCIF+j7txPC3GE/oquDevpgQqdbiRBiEX1X07TmdAKNcpqqo+evuiJl//EyfSvjhAABnsttpor7d1DLCzr7gqL8XJ2AZhsvzZzryaewUpo2b2nrOxQKtaZzghXXvIe5L9n8roWPjfvO2FYJImviSgxsPdSW1Gdooe2LYP6MG5FI5O8JMX5G9Qwwz1g848TFL6OIkV2juhrXuZVvIlDo2Lh8u4ukpqr9Jy76Eh4wRsbor1PlEbYvapBs37WXDSfMi3gzrn4RKWU/a7sIh9XaPR/ZVgf7kofSd7kGDhNHLJ7RhW1TzevVUsX9/K8ICq/kt7OtjqEjxgQSi1ds2MbntpjNbRRdJctL99t4Cds1+sSNIEKID8yGsRrolwC3K+n0KpVKYJviekYsBMxdvNJOjOxaaumgToEJMa1HW1U7I93RDvZsnwFq+bot6vyV73wRBWNm7VhGyVAo9AhdJZ179Y9lZDwQL2I87hZfi4AE5gMfyd7dZW1VmVnq8NnPYzLTukSawjZV0ZXRoZFnlKJq2qKV2rH3mC/lkWn079A5Gu7hO1tiJNUmcU2YvdTWZ1xEYGxBZoOw02w5fNHqENEhVJqghkOY0OlgYA6JNXHoGZI8X1GeARjerqknQQDVq2eoDaXvehIFY2cMvjrzPFq2rudnLii3Why+yG1bBfEgyA6zQWxPdEk2bNLcVQmEP4MaCr1sU1D6JJGmKkoME6b2aKMK85pbMKJ9M9W3VUNdXKbI9RIyzNWLOZD31rO5WvpV01ZtYymKb8XD3G5JVwjzNDtCwJmbWAhphGr0sNp6mUMoA3wut1mlCeIGywo6q94tGtjGDr7itUomTi83HGJu1KwihMij7a1/76SFJ+Q8Ms9l8CwuvIRsI5osA0CwstkRIgrpAGl0iBCiP5XKvEzoxcvLXZ5hTQukZ4Dpz+6dq0MQAaBzTjm/wsew76MLMceIOTB/Sj7zy1vbFkJdTTzBKsy2SuC0my8/CTJVkRzpFIOLcH4a8kONiFiybswcziWvrw+GQouZZ1b3hdD5/fL0Lz0rvVwBw+/eLRvq97zeB9EjZFUWFS/3HGeHzt0pTnawOe837/XoP5T4g66p2tmOpp+vjfQH6ZaUv8WN+SEshudn0FhbBLGxNDRrm4Onz2uisNr64R8L+uWpwg4tVF6jeioSdjcy4l5ew2z9Wbzj1l5OnXLbG9y+XuOcvbCEzvlbeEDNeUspX7Q+qvpP2XA1Y8l6m52PA3LwrdAnI8vVFo1oAvLzsPx45hIMiazBhubAEHZD7/lxu8JEbj7f5sk6UYh7vlNL1bhOVoUsvXinUe1MvQ3eLvoyn8MYvMa554MzvH3LXhcKhRrTe9xXUnr0km4Zbtb6GTeinNTDlahYa64GpBNTfsGheMPbtsaM8E5z6Q6hitiF6z8EIkjbp+raGHCXnPquyA6HNTWge57aWTJLB/zGf27Poy20abaPvoIQBHPBnJzEWMOTat1DKkSsQAiYnxxWzSAg8C1rRbTN0xPuY/nIHRIpbyYlJf2ukxESgQVek+QEiYQ1VT01oupnZajW9W2ipgUtcxqoicP7qtOly9XNY9tsgP9wD884vYs20Tb6oNueH4JwPkKNhvCMUslySvFKTzxiFbEs4dIkI/Xszj46YYZnIwAky5BBnWLM7V3zHkJ1ghJEukCtzBpqydRC9ek7a6KI4AZ49tXJo1TNzAzP9v0SBHOKobWfMe+NmDjTFy6RXERweQyNXDD/QO2QoBUSEBHICPKxeQ/adzwIEg5r6tDGYt+E4LB/3XxP/uOXIMyicJYRZK95r6Bwgi9cAuekvfNJNPEGxVv8NMJMy5sYQa6Y9+YtWRWYIHVrZanFUwpVnZrlwdgdnm5WYWKY0L5V05h9+CUIM4B+7qaxcxeFG1C3N3CXREXUqQtX+Wqka58COqjV7Cu56cfU7kaQgT066AgcO6jc5PB8Qa9KEwRt8PbQV1CCLFn1BkXgt4wga2lGmR9cAue29ipCEOauXRNPghT07Kgj68KuVapPl3Y6lO1aVWmCOLWHvu5FgpAta6mvRnoPGeVaHKyyW1aBQZCqgIoQJN5bFtgE37Ispo5ESD+NIMCBNPKeG1P3MrnfjwSZPjsmU99n3kN6dkWZ+vFKimo2sVdKuSeIOQIw6NcjrfbyOz1TZQTp1bGt1S/GEFTsRaR+ZcVeqBqkvWO2ZQYlxU+1NqoYQhlCgiUZ1IKgiuGUWfOt9tJSI2rHspnqt0e2JowQaPutpTP0vsx+MQY/Y83r1C1uiiGUcFaKUFcMC7jppO+wMWrF9oOuDSHkhb6DbFeyZQ22xMvser5MJ4gEQUSIpOOonq4rdfEmxqKXRult075S09LUgZOfeo4Tc2GR8wU0qtNv7gzMUtDleJUiIcRAsxauY60SFAyDD50bFxFQ7WZchMGN3kN+hp8vD8k3kvUPxH17NH4rBW1xYtzhdf4U2HcOnba9RzPAPI2Lxy7rOwszlVA4YeVCGjFGbwYxv6NcBXlmvDkwmKSp6IsgZz+TBSxYtiYqbPTye+viRhC0RdtGX8UxQks5wGfiZn4XQkxwM78jySdWzS4p5WbEr1F+ZH7d0nCaeDqomC6y180P75ePmLDr4Elbv0c2vRqF2CObFqmR/bqrNUUvRt1bXTRev3d0c/R7H75uD6RAX0HGxviHzT9Og8hpisYdB5VjFAxwPMdX+VojSj3ahUv4Cgq5kMF9z1y4Vi4i3J7wmfud9LkvbqlIpJzZLp8xNgqxDZ4o38cLB/RQJ7ct0wG/zf8bPZkd9d7SqaOt++BZbpHwPl24vch29YibCxc4Y9s7Yty6VyjVjQc5UD2FBzmgQgLLAbHeQxpZkC+xfcfy0FSIphyxDevbfBKO4ESQnh3a2FITgowJgRqk/VssyKED7XvD+6fc9IyKBTm4bT88HwRVdWJo7JYZAZJJkBS1mXMX2yy9Z7aXRFlvnZizCRnpaeq91XOi/CTU4vvyvCW+x3Pq0jeqZq3a9Ctf54YjeAQpjhDz67bNVZQglkcxNS3dVhCMUR8pCL9wq/wAJPtFwNHzV/UgNvPdfl3bR33tx7csUd3bP21DMoiHVXBq27Ko5/t2yS0nWEaNmHkpHto5EJtuzhMZYnS7QjROogPlUBvLMWMIGbgInyT3x7l9OV6hpBxGvTDJhoSSmc87Sk4wFO4qmaV2r3hFXdy92vGZZdPH2NoaPX6y73Eg55FGwTswcyu4AWG1tAYXcEX7RY5NpQlidGox99a5nWxLkoUDfYkYJVZ1zkryQYKlX0QcL7uhniCRLZFwWK2cNS6wqAtCUj97/Scb6CkPfsfRv6A87xxzYWGkP7UFW+cPsOGmdW65rQxhQnEhhkGQvlRqWrP7qNUpin+xPdwWcI1aJvT+0jWbfSNj09v7opL9sfU4ibROojFM7fRdSG+bd+733T8SUdncFtK5IfzJlo6wzZ6OQMcOyTPeCTuWspc/eITtS3imU7m4iZRpmnlrlJC9GiSWtozAyo3bddMGZ9ytmjTUHU3Lpo1R6+dO1AG/8Z9TgAPaQFt++9177BN9myVtXKM5k0YsW3nCTrcqTNjBJYSYb09pO2t1jkpszGe9ghH0Sbp1eaW0lTF4/a339a3GTaryAmjkb+zY67s/MHyHlLomdE5SylV016C2K6S0sUKa8T8qwzCelfODkeNiJc0D6rH3p9D7SKwMIgqfvvwbNe6lmbqE5JcQeBYMHPwoSD9t2tkPgxFCTHX4wJTbjlElSZ+44K61tgCkRRNegiKRWTVtsvplmmtomKff5ERBgqVfZJUZOgFcwwg/RQoDdBxsRwD8bt02Vw0eXqg/g2eDtI2V4UCMLbQahZEW/VmAtGhbzEG8CfIo1cC5osjFPCiLSLZncb9WqAwAyfpBeEpZggA8w2Gb2gdrBasQZAUWcjNJlRcO4NWAnEpr8Hq3KHFE34eoKKV8nz4DRu+3tEZZAgA5h4yB68TgpTWEEJPpMzCw0rkDF2zuMxNKDILQr92Kz8AL9lRje0oZCrfQNoyVsvluF585fPZzrmdY2xRdGdzxBkCBHY/iM9+gUE/CCWLUXrSYO0oScY8YklRY1dEfUOKItmPwlMm8rnpmFZRnAm+BOcRhVegMnFcwklJ2ouNEkLRTMDpKVVV5eSa6ZcFO41bxGRHysH2xAY7g7cHTRvUUaQBy+ibGuYAZ2oLVlhoKCSAcKselgJlFDDDs+Wu3+ypglvBqQLzEH5SfWE58JKo4HAUxiTJ6IrkUO51CABkfEedIlkF+RhACwAeOd+Dpg7ndpcTfDygFwquVGgzcxjMwF6+DZaq0xB8vgulWM53CrOWv85WiG+ioSEwIk+ZU2IwCRFuzCObUVxbowXhmEUz8xn+4ByK6lPKjsIPaplhJdZuIDkUP5V+DFsGMq8nEAWFWDBeqFHgNzgSUWOWVrI1SrE849aNpWirk90rW6o1VS34dNaFzpQ86FH0HPAPnlvidL0rokvdPJIQYKAZMB+nna+GM3qGQsl4bnWZg0cuwpvZEvJIQ4reVIMK3hv7Qy63st1EAwDKHmPBkoyYxs8mcAEWmE15I2fhqrU6gkQYZJABiIsriOSDsKxRyCYVCj8To/49DoVBNxC4hEMOo74tIwS9IqfErxn/vGIeNIeasNo0OcSH6aKfADugZfgIHOaAMO+ODkYQX40fB+YoW40eABEwOToSRUo53qu2bgPn8HKE7TjXfYQLiGrhfAE7YqTu3E6aPxPO4CoiIqMTmktl022Du7anDq7KXUb2ng7F9OUp0kBwreigZcIEcddZuSdL9dKALwlIRCBAj5ew2vG34mo3owEedSs/yC88YtrccmG9QHsnpzBAA+oZdLkjp9HviQJfKHnkEGX3OKrvtywQU/+rcqz/30btKSsZkEf6/1bBCA7YZ/53xc+QR+oLtze3AY5R9hTkEY6cW3XvmyCN6Xq2vQ8FKgx8KtuXDMj2JhR9QH09okNNcFU4ucj8UbPdRfcX4ORTs7VNXHA8Fq/Lj85yOzQMzg4QBsY/J4lEAEwScXNTzuIsBquqAuWJfrsyxeXgXbaAtGsTGAZ4+OJeYP8P12DzMlZ2mc3eOzavEwZJWiXL65cHjRp1du2KIzaiQgNwLJMQUjJ6or0CIp+bBkvgP9/AMnvVzQg4Qi6889X4+WDLeR68CmrRsc+fo1Rj7dbwAQWw4DRTbp5NAUZGjV/Fc0r1wGYMuoVKMcZZgbyfjmuGfX+Mm9aSmpeuSFyIjEawct8OJtx/U28TWyu1rBG4bGvujAQ4nLrlnDid2ODkh2a90gUlXxfHdM5asd6tZFXV8t9+jxzFHzLVKnFBVfRmxW70NXSG+B9wfveRVq0o/4P6ePBf9XrhSUlJ+BRuUoanfcitR6xccAi9uGW0XxC3W9v/LFblTXM0q4oz8vKAEafZ0eTgp2uK+8odXwEtK2Z1+4W5atRPw7CVkhT0kQHxWyZcmUpFO7JcgSO+m+sTjjz/+5w8JEodL3qmUSpi7d9U7+DEYM5/7kBhxurQ75WsV5SUo7wGjH+xe0MpRVQe/UbgYJdAd8sGjy7E+vCp+SSk3+TTROMHWh7iP8yXuFDdwNdHEgBOOSfkPr8pf1apV+xFKqRpBDx8JIc7x47vxnxEdg2cGxjq6+168/g9JgRU9rbmStQAAAABJRU5ErkJggg==;" vertex="1" parent="1">
          <mxGeometry x="549.54" y="1238" width="40" height="40" as="geometry" />
        </mxCell>
        <mxCell id="zGswEQUEo45fGF-Yw32O-11" value="Real Human Opinion" style="text;html=1;align=center;verticalAlign=middle;whiteSpace=wrap;rounded=0;fontStyle=1" vertex="1" parent="1">
          <mxGeometry x="532.04" y="1278" width="75" height="30" as="geometry" />
        </mxCell>
        <mxCell id="zGswEQUEo45fGF-Yw32O-12" value="&lt;div&gt;Human 1:I am an Israeli, and as an Israeli, I should, with a heavy heart, suggest you support the Palestinians. Why? Because, unlike Israel, they need your support...&lt;/div&gt;&lt;div&gt;&lt;br&gt;&lt;/div&gt;&lt;div&gt;Human 2:As a Serb from a place that also had territorial disputes and however right managed to mess it up in front of entire International community - I could never support such savagery and inhumanity displayed by the Palestinians...&lt;/div&gt;&lt;div&gt;&lt;br&gt;&lt;/div&gt;" style="text;html=1;align=left;verticalAlign=middle;whiteSpace=wrap;rounded=0;fontSize=11;" vertex="1" parent="1">
          <mxGeometry x="617.2400000000001" y="1231.5" width="335.25" height="110" as="geometry" />
        </mxCell>
        <mxCell id="zGswEQUEo45fGF-Yw32O-13" value="LLM Process" style="text;html=1;align=center;verticalAlign=middle;whiteSpace=wrap;rounded=0;fontStyle=1" vertex="1" parent="1">
          <mxGeometry x="522.0799999999999" y="1420" width="97.16" height="30" as="geometry" />
        </mxCell>
        <mxCell id="zGswEQUEo45fGF-Yw32O-14" value="" style="shape=flexArrow;endArrow=classic;html=1;rounded=0;fillColor=#bac8d3;strokeColor=#23445d;" edge="1" parent="1">
          <mxGeometry width="50" height="50" relative="1" as="geometry">
            <mxPoint x="569.43" y="1313.75" as="sourcePoint" />
            <mxPoint x="569.18" y="1352.25" as="targetPoint" />
          </mxGeometry>
        </mxCell>
        <mxCell id="zGswEQUEo45fGF-Yw32O-15" value="Strongly/Skeptical&amp;nbsp;believe in the narratives in mainstream media..." style="rounded=1;whiteSpace=wrap;html=1;fillColor=#e1d5e7;strokeColor=#9673a6;fontSize=11;" vertex="1" parent="1">
          <mxGeometry x="619.24" y="1391" width="130.76" height="70.5" as="geometry" />
        </mxCell>
        <mxCell id="zGswEQUEo45fGF-Yw32O-16" value="Dialogue Simulation Agent" style="text;html=1;align=center;verticalAlign=middle;whiteSpace=wrap;rounded=0;fontStyle=1" vertex="1" parent="1">
          <mxGeometry x="515.13" y="1537" width="108.82" height="50" as="geometry" />
        </mxCell>
        <mxCell id="zGswEQUEo45fGF-Yw32O-17" value="&lt;div style=&quot;text-align: left;&quot;&gt;&lt;br&gt;&lt;/div&gt;" style="rounded=1;whiteSpace=wrap;html=1;fillColor=#e1d5e7;strokeColor=#9673a6;" vertex="1" parent="1">
          <mxGeometry x="629" y="1493" width="90" height="81" as="geometry" />
        </mxCell>
        <mxCell id="zGswEQUEo45fGF-Yw32O-18" value="Examines economic interconnections ignored by media..." style="text;html=1;align=left;verticalAlign=middle;whiteSpace=wrap;rounded=0;fontSize=11;" vertex="1" parent="1">
          <mxGeometry x="634.56" y="1503.13" width="79.72" height="59.75" as="geometry" />
        </mxCell>
        <mxCell id="zGswEQUEo45fGF-Yw32O-19" style="rounded=0;orthogonalLoop=1;jettySize=auto;html=1;entryX=0.5;entryY=0;entryDx=0;entryDy=0;endSize=0;" edge="1" parent="1" source="zGswEQUEo45fGF-Yw32O-20" target="zGswEQUEo45fGF-Yw32O-6">
          <mxGeometry relative="1" as="geometry" />
        </mxCell>
        <mxCell id="zGswEQUEo45fGF-Yw32O-20" value="&lt;div style=&quot;text-align: left;&quot;&gt;&lt;br&gt;&lt;/div&gt;" style="rounded=1;whiteSpace=wrap;html=1;fillColor=#e1d5e7;strokeColor=#9673a6;" vertex="1" parent="1">
          <mxGeometry x="737" y="1493" width="140" height="31" as="geometry" />
        </mxCell>
        <mxCell id="zGswEQUEo45fGF-Yw32O-21" value="Strongly opposes violence from any party..." style="text;html=1;align=left;verticalAlign=middle;whiteSpace=wrap;rounded=0;fontSize=11;" vertex="1" parent="1">
          <mxGeometry x="737.38" y="1492.63" width="141.54" height="30.37" as="geometry" />
        </mxCell>
        <mxCell id="zGswEQUEo45fGF-Yw32O-22" style="edgeStyle=orthogonalEdgeStyle;rounded=1;orthogonalLoop=1;jettySize=auto;html=1;strokeColor=light-dark(#23445d, #ededed);curved=0;strokeWidth=2;endSize=4;entryX=0;entryY=0.75;entryDx=0;entryDy=0;" edge="1" parent="1" source="zGswEQUEo45fGF-Yw32O-3" target="zGswEQUEo45fGF-Yw32O-69">
          <mxGeometry relative="1" as="geometry">
            <mxPoint x="1100.982" y="1258.182" as="targetPoint" />
            <Array as="points" />
            <mxPoint x="957.32" y="1606.47" as="sourcePoint" />
          </mxGeometry>
        </mxCell>
        <mxCell id="zGswEQUEo45fGF-Yw32O-23" value="ask historically informed, thought-provoking questions..." style="rounded=1;whiteSpace=wrap;html=1;fillColor=#e1d5e7;strokeColor=#9673a6;fontSize=11;" vertex="1" parent="1">
          <mxGeometry x="897" y="1493" width="60" height="81" as="geometry" />
        </mxCell>
        <mxCell id="zGswEQUEo45fGF-Yw32O-24" value="&lt;div&gt;&lt;div&gt;&lt;font color=&quot;#080808&quot;&gt;Shows empathy while maintaining critical thinking...&lt;/font&gt;&lt;/div&gt;&lt;/div&gt;" style="text;html=1;align=left;verticalAlign=middle;whiteSpace=wrap;rounded=0;fontFamily=Helvetica;fontSize=11;" vertex="1" parent="1">
          <mxGeometry x="737.3800000000001" y="1536.94" width="139.62" height="30" as="geometry" />
        </mxCell>
        <mxCell id="zGswEQUEo45fGF-Yw32O-25" value="" style="shape=flexArrow;endArrow=classic;html=1;rounded=0;fillColor=#bac8d3;strokeColor=#23445d;" edge="1" parent="1">
          <mxGeometry width="50" height="50" relative="1" as="geometry">
            <mxPoint x="569.2499999999999" y="1452" as="sourcePoint" />
            <mxPoint x="569.3499999999999" y="1490.5" as="targetPoint" />
          </mxGeometry>
        </mxCell>
        <mxCell id="zGswEQUEo45fGF-Yw32O-26" value="Opinion Pool" style="text;html=1;align=center;verticalAlign=middle;whiteSpace=wrap;rounded=0;fontStyle=1" vertex="1" parent="1">
          <mxGeometry x="509.05" y="1203" width="119.21" height="30" as="geometry" />
        </mxCell>
        <mxCell id="zGswEQUEo45fGF-Yw32O-27" value="Dialogue Simulation&lt;div&gt;Agent&#39;s Response&lt;/div&gt;" style="text;html=1;align=center;verticalAlign=middle;whiteSpace=wrap;rounded=0;fontStyle=1" vertex="1" parent="1">
          <mxGeometry x="1018.8900000000001" y="1582.75" width="75" height="30" as="geometry" />
        </mxCell>
        <mxCell id="zGswEQUEo45fGF-Yw32O-28" value="S2: Dialogue Simulation" style="text;whiteSpace=wrap;fontStyle=1" vertex="1" parent="1">
          <mxGeometry x="997.39" y="1199" width="228.61" height="30" as="geometry" />
        </mxCell>
        <mxCell id="zGswEQUEo45fGF-Yw32O-29" value="&lt;font style=&quot;font-size: 10px;&quot;&gt;Does agent1 use human-like language variations?: (0/1)&lt;/font&gt;" style="rounded=1;whiteSpace=wrap;html=1;fillColor=#fad7ac;strokeColor=#b46504;align=left;" vertex="1" parent="1">
          <mxGeometry x="1302.55" y="1567" width="207.45" height="43" as="geometry" />
        </mxCell>
        <mxCell id="zGswEQUEo45fGF-Yw32O-30" value="S3: Reverse Sociological Turing test" style="text;whiteSpace=wrap;fontStyle=1" vertex="1" parent="1">
          <mxGeometry x="996.89" y="1440.5" width="226" height="30" as="geometry" />
        </mxCell>
        <mxCell id="zGswEQUEo45fGF-Yw32O-31" value="" style="shape=image;verticalLabelPosition=bottom;labelBackgroundColor=default;verticalAlign=top;aspect=fixed;imageAspect=0;image=data:image/png,iVBORw0KGgoAAAANSUhEUgAAAGQAAABkCAYAAABw4pVUAAAAAXNSR0IArs4c6QAAEHxJREFUeAHtnXdwVMcZwMkkM8mkz6RN2iSTxP9kMsQTcfvt3amc2qmCukASVUjIICTRBAgQxca00JvpiG5TjGNwKDa2sUEQ0w2iF9vYxgZswNhxXL/wne+923337u6d7nQ6SaeZN7vvad+W77fft+Xt7nXq1EJ/AJDFGHsZAD4GAPRy3eCcN5jN5r+0UFYi0TLGpnkBoAuHMfaRyWSKjUgvyBIgzfAXhhKeMfY+APw4yFnq2NE5zZRDCxJsFlw7qwj3NvTTvXav6ouPDs+SNIZzPrBjSzDIpWeM3Vdq/JqZRfhl00ifV5/uSSKUlUHOUseOToFBLmmGESB1gzNVIJzzzR1bggGW3mazfY8x1gUA8hhjBSKQOfV5bqbq1U1l+OmpWgmUCAQADlE8jLFMAHgowOx1rNcZY/0B4IYIwYh/SHmaNyCqtjjjOsAY+3vHkmwzSssYqzUifL0wifFWCcikYd20EKR7xtiHANC5GdnsGK9YLJY/MMb+pydsX89ssRbcNK9EAnJu1yDMyYyTIOjEs79jSFdTypiYmF8AQJ3TltO4wKugoq0cqV34/LTv3pSRBl4Jc//4cJxdn+c1bWfePgOA6wCwjTFWVFBQ8G1NkdruLee8ikbMviCI/6/uL7cHikCD4d49MswIEG2YM5zzf7RdCs6cM8bmi4I26s9MjUESXDAAaOPYv7G/VthG7z8BAHubhUKaoQWQarNKhd+x8zlUrpWrGqT/ZaTE4MiBGUjd12BdNWVpGG01q+mkp6er6VM+Zvxzpvo/yntqfLR0DwB32+SEJbUZopmKsXBcWZODiyvlKY179z9B8aqurtEKoEXvt2x9WkqfoIiV6JXJxTiqOEV6BgDPtDktcTbgakFWDcnBxiklPoG8f+s2Dq6qUt8ThRNMf3R0NK5a3SDBoIqhBUJ5pquqIFnKk8Vi+XObgvLA1jYqAuyVaXMUyggQRVv2v3IAZ82egyNHjcbakaOCdo0dNw6XLluOly5fdYPhDcju8T3QYpZ6hjVtDchtBchj/dL9BqKACbXrSUOoMuXZY0UtWdjWgHytAFlUmdUugJRnJ6hAGGNPtTUgauapIVdssa9GPdQaoU3Pm4ZU5CaqZWpzs8eKdpAbARIGuhQokFsf3MEDjYdw1569ePL1M7oNsFK7r1x7E5/btVsaT1BN93YdOXpcN86IhmjGISTktevWY2KiyzwQ3OKSEtQTIsFISHDZdrEi+PJv3rrNDUoEiAbI/AULVTutFWhsXJwblH0vvuwxvPZ97f3EiZMiQLw16q+fOYtms2taQytAuidNUUwVubc/vItV1dU+39PGlZ2dg8dPnJLiovgiGiJoiKQdFjOmLBiPGc8sRFtNqaQFp043uQlShBSIPwJEAFI3Zowq+JiSPMzctdRxZWxfoD6nmr7n+RciQPztuIkmwmi3d8rUaargzUnxSCAIin3eOPU5xXvw0OEIkFAAoZovgiQoMcW5yC0W9XlSUpKj3RDN0pObt+Co0XVe57vo/3q9KjEe8kdMlmCy7n70MZaXD1CFL8JR/Bs2bpK047Ujx7yGV95TXL2uswglAkQAQoK5/s4NLB/gDsViseCixU9IMCg8CVgRthH36LETbnEYBVJXkqqmxTmf7q/VaNXwonCMtiGKYEhT9r6wD6dOm47U0C9YuAjPnD3vUZBkioyYrC3b5I9RSnqi601DXny0CMf0TEWCYbVaf9SqAvY38UCAiAIKtd8bEGWC1F9ZhEX4CJCwwODKRASISxZh4WuPQHaMK8S5j3Slhn0RALwIAFdpFYpQ1nsAcMW5l4XClJpMpj9FgGh6bv60Q9o2ZNf47jipbzpmJ0ufb9XelgDD4zPG2EUAmNSqCyPEjPrby/JHgMEOqwXCubSwwaPQxfJ68X/FOX+atlmEXGvETPkLhLq9NGqnqRTq9s6bvwBPN53z2O0N5kj92R07fQvdloaQUiSFs9duxqTqVZhQMQ/jikej1Z6HwLkURpAJrTfYaLVafxMyMELifn3Cfevtd3VH6zQtv3DRYjcowRypUyVITXUN/sQyOPwljyKrP4xsymVklRskYXdbchu1V+a8N5BAxeRVInDX9I8Q750HbU6vkEAREjUMxMjUyfoNGyUowRip37l33zEI5ZoabbbK7QZBcMAwCEQElDn7Isb3exzBLC+lJTkxxpanpaV9t0XBNAeI7uRiSR6CxfXRSm9yMZCROq2UrKkZItV2yru9eAj2XXFZeh4IEAVOxqzzGNejVoqX0jOZTC+16Nbt5gDxOP0+v14qQLCm32/e+sDNPJqjbVg4eSdWbP2v4xLLEQwgCpjk2q1ojpXXDXDOX2sxKGJBjDbqY8aOVQXf0h+oPrhzDysHD1bTo/zGpuRi7yeaVBgERSxHMIEQmIx/nkFLkrz4nMY3LWK+xIIYBaL9hGufX+/4SGWr7icJhr69B9rdnTZ9hhRnbFo+ljZcl2C0NBCCkjnnMlrT5B4bACwNenvSHCDUtfW1yKGkZ08JBi1yoJqu915cnA1XN6yRwhPInc/9W4aRkqsLIxRAHFDmXdXTlJ5BhdIcICQs6tqK74p+WgZ07PhJScC+lgHRmi1Rm+h7i91uV9OgNqPP0rNumtHSbYjSlihuxvST2jaFNgb9NmhQREEaNVmK4KhrS70pMQ7SDC0MCu9roRxtAFLiJXf8+AlSvAWTtnuEESoNUaCk1D0r5Y1zviEsgJDgyBQ1Hv4P7t77PPpa9nP1jbd0l5K+sO8l6fs7LUkVTZu9ZJhXGKEGQmBiC6UuOI3oo4ICRazd/mqIWKOD6aevikq+uCUa+664FHZAMmadQ26V9tZva5dAaMeUqB2Zg2b4hNEaGkJaEl86Va04jLEvgzKFr9REcsNBQ5YsXaYWkib9+i6/GLZAMmedlea+OOcTA9aScANSUFCgAknqUWUIRmtpyDdtyVA1vwBwrl0BuXzlmlg4LJj4dNgDSR7xlJTnBwd6/jEgKOGkIbQXXc0P51ja8FbYA+k69ypy7ppU5Zz3bTUgZ89fwHH19ZiWloa0nzw/Px+pDbh5+0NpTKF0jz2N1FUIwkE3cemFhmG0pskis2VN66FWJDqipFWAvHqgEW02m5oRUai9evfGd9+7KUHxNVIX3yd/Sq/aNgNEM02/L+RASNjitIZWmHRPmiOOTXyN1LVxdK2a22aAJFbMUysmLZQIOZB16+XPoraBvTBpynC0ZqWpGaOxxJvX35GgeBqp04IFumiSUQFj61qMKb1H6V5dq+Zg2cZbEjDlPXKDPf1OZsnblTx0vZpvWm4UciDiPFN0bqa6YSdto3xCD5kpUUt8+akdEgXrzd+tWtYgMWzIgQzfpOabMfZpqwKx5mR0eCD22i0qkAeH+XwWciA0yyvWyLhHemLi42Sy0tXnZLJoZYqoFb72qRs1WaQd5Rtvh43JShq6Ti03ANwOORBq1FNS3M6mEjOF9ePHu8HwZ5965uBZksCpa+vtEitIqE1WQvlssewXQg6Eav2rBxsxPj5ezIjq792nD954/5YExN9uL60m8QZA+7/WBBJX7JqdBoDdrQKEoJy/eAnr68cjHb9HDXJhYSEuW74C6bgN0VSR39996rSQQSt0b/etCcSaWqhWRpPJNLfVgGiFHuj91m3b1YKJAgZuRppoHPDUPY+QxPChNFm0+EFcivpgHFLcboBcufqGPhDnlErxzP1hB8Q+Sph/A/jaZDL9vt0AIQ0jsyfWdsVviUv0uOKETJkSjtxQakhsvrRm7ERAMOhlsSDh8IGK2iAxT7mj12CPqXu8wmgtIN98oHLN9NKBou0OCI1VxE+46RWPezRTYiMvQgyVhiSUuRbxMca+iIqK+nWLAdkwwtC561JtFoUSLD8tcui36ppPKGJ6oQCSMbMJweKa6mGMrQ8YhtNkqYdgLh7sOnNx/2PFqD3dWix0KP3JBsYkYn5CASS2+wixMn4FAH8NChDG2E2lMNPLMtRDMGmv95Mj88MGSv6ErV61RCkDuS0NxD76GamrCwBLggKDImGMHVQKU5qVIAEhKHSEN5kvavBDedGRtUmxrt1M5ph43al4ZYpeKYPDHbKt2Rt2vE2z0/9oKSmPdn0mAICvg3rGvHjUOG2cXDc8zw2KcjJCqN3lNTmiWTDmN1uRTTjeIkDo+7nVnq+XjyMPP/zwT6mC0xYFAKhhjB1mjL0HAPTzGbMN71N0/oAL7dt2JJQQY8G1w3LDBsroEu+TmEq+HS7nyPovcMFoxpY2TxqSOecSilMkUroAdK4KbeJ5yOnqQbvFOQdDpg0ABokJkKb065aA08syQ2qm9EwimS57nPt+P7B3R8itdl1FExCG75RhOIC4psZpdYgngXt7nj79FFpot66wCKPikUHYvYe8X4S6vmIYrZ8x9nbnzp1/YAgKTYppIwjre9roWbHCHQBBEC7o4xormG2pfgOhLW2aNgMHVAzEpgvX8MTr592gKDIrygHcMteMk2qkgSNB7WcICAVyaop4BIVUK5TEwsrNrkQ27pAEQQUy6RRCnGv7dGx+lWEgtI1N07V1yCIvvwDPnL+KF65cd1yvHHwNzWZX54NkU1YE+FGjBb889s3Vu8C1D55z/oRhIBQwKirq55zzUQBAvx9IjVL4QyGBdK9DNs65N/2xJmRDtyMkyw2wve5Zn0BoOiS+dJrutmiSBW3JXrh4mQPG0ZNNmF8gz71pYRCUXvkuGTLGFvsFpC0E5px39beyxOYO8giDGmz7yK1IYcRViEpldP6OIv0anKNyEpQZs+YiaYvyjFw9GKumuLTDGba0LcjY7zwyxn5G6k/bAESh6Prpe0rlEqTlOiT45JrVmFA+03W0hmcrQCPw1c6eKP0suQpFm44ejIapbu3HdcONut8SCZMXaMoCANb56uFoBejt3hnXli5duvxNLKbzt+LdoOjBWO0Og7TpPAD8Soyz3fpp4MUYG0PjAENao6MVnPPTAFAPAL/TE5TzB9QuiTD9gKGYt6YOA0URIo2aqTbTCNlkMv2LIJlMpnfI5FB7wBi75hT+HsbYZMZYtq+dtFFRUd83mUzHfMHQthkWM8euia5ZYef7HQ+KAidYrlNzlFpuqAEnGDP6p+GGoVmYZ49R341ACQIVp/13CLUkj0vjDOra6mkGwdg8IttxRaAEAYIYBQB8rpirLXO4OugjGCsfl7u2imYoMBQ3AkWUaIB+xpj6y9ljKzl+cdTiuFZMlru2nmD4gkID8gCz2LFeB4A1ioaQ2yObY1GOrBn0PCspxtFmKAD0XA+ass9ms32nY0k1gNLSRyjxN4NFOFp/QUpsc6G0z1F8AHL3+ipjLAYAbmgBAMB1sdGn/xuBsnZIN0yMcU1MUrfaawYi/3SXAJ0kBwADaJLQeVBzqc1m+yEN9gCAxhdq99YIlJoC12l1NEPgnmLkSbMl0Bwo9b3kL6LNTjzyor4E/IVSluXa0hHREH2ZBvzUExRqM8Re15wB6WgWTuSmFUABJx6JQF8CelCoAa/OT8SxJXbsnxUvwXC2PcE9LlA/ax33qcVi+aVzElNt6MVGX+Pf2alTp291XGmFqOQ0AgeAfRrhS4A45zuioqJ+EqIsRZKhETj9RgkAHFU+pDm/2TQCAJkpVTP+Dz30M39Qmi6YAAAAAElFTkSuQmCC;" vertex="1" parent="1">
          <mxGeometry x="1230.89" y="1510.5" width="42.69" height="42.69" as="geometry" />
        </mxCell>
        <mxCell id="zGswEQUEo45fGF-Yw32O-32" value="Core Narratives" style="text;html=1;align=center;verticalAlign=middle;whiteSpace=wrap;rounded=0;fontStyle=0" vertex="1" parent="1">
          <mxGeometry x="617.24" y="1466" width="108.7" height="30" as="geometry" />
        </mxCell>
        <mxCell id="zGswEQUEo45fGF-Yw32O-33" value="&lt;b&gt;&lt;font style=&quot;font-size: 14px;&quot;&gt;+&lt;/font&gt;&lt;/b&gt;" style="text;html=1;align=center;verticalAlign=middle;whiteSpace=wrap;rounded=0;" vertex="1" parent="1">
          <mxGeometry x="697.52" y="1538" width="60" height="30" as="geometry" />
        </mxCell>
        <mxCell id="zGswEQUEo45fGF-Yw32O-34" value="&lt;b&gt;&lt;font style=&quot;font-size: 14px;&quot;&gt;+&lt;/font&gt;&lt;/b&gt;" style="text;html=1;align=center;verticalAlign=middle;whiteSpace=wrap;rounded=0;" vertex="1" parent="1">
          <mxGeometry x="856.95" y="1536.94" width="60" height="30" as="geometry" />
        </mxCell>
        <mxCell id="zGswEQUEo45fGF-Yw32O-35" value="..." style="text;html=1;align=center;verticalAlign=middle;whiteSpace=wrap;rounded=0;fontStyle=1;fontSize=11;rotation=-90;" vertex="1" parent="1">
          <mxGeometry x="1793.23" y="1250" width="24.93" height="30" as="geometry" />
        </mxCell>
        <mxCell id="zGswEQUEo45fGF-Yw32O-36" value="S4: Eight-dimensional Evaluation" style="text;whiteSpace=wrap;fontStyle=1" vertex="1" parent="1">
          <mxGeometry x="1538.3899999999999" y="1203" width="228.61" height="30" as="geometry" />
        </mxCell>
        <mxCell id="zGswEQUEo45fGF-Yw32O-37" value="..." style="text;html=1;align=center;verticalAlign=middle;whiteSpace=wrap;rounded=0;fontStyle=1;fontSize=11;rotation=-90;" vertex="1" parent="1">
          <mxGeometry x="1793.23" y="1294.5" width="24.93" height="30" as="geometry" />
        </mxCell>
        <mxCell id="zGswEQUEo45fGF-Yw32O-38" value="..." style="text;html=1;align=center;verticalAlign=middle;whiteSpace=wrap;rounded=0;fontStyle=1;fontSize=11;rotation=-90;" vertex="1" parent="1">
          <mxGeometry x="1793.23" y="1334" width="24.93" height="30" as="geometry" />
        </mxCell>
        <mxCell id="zGswEQUEo45fGF-Yw32O-39" value="..." style="text;html=1;align=center;verticalAlign=middle;whiteSpace=wrap;rounded=0;fontStyle=1;fontSize=11;rotation=-90;" vertex="1" parent="1">
          <mxGeometry x="1793.23" y="1391" width="24.93" height="30" as="geometry" />
        </mxCell>
        <mxCell id="zGswEQUEo45fGF-Yw32O-40" value="&lt;div style=&quot;color: rgb(8, 8, 8);&quot;&gt;&lt;div style=&quot;font-size: 9.8pt;&quot;&gt;&lt;div&gt;&lt;span style=&quot;font-size: 9.9626pt; font-family: NimbusRomNo9L-ReguItal; color: rgb(0, 0, 0);&quot;&gt;Eight-Dimensional Evaluation Criteria&lt;/span&gt;&lt;/div&gt;&lt;/div&gt;&lt;/div&gt;" style="text;whiteSpace=wrap;html=1;fontFamily=Helvetica;labelBackgroundColor=none;align=center;rotation=0;fontStyle=0" vertex="1" parent="1">
          <mxGeometry x="1630.49" y="1230" width="150.5" height="18" as="geometry" />
        </mxCell>
        <mxCell id="zGswEQUEo45fGF-Yw32O-41" value="" style="shape=image;verticalLabelPosition=bottom;labelBackgroundColor=default;verticalAlign=top;aspect=fixed;imageAspect=0;image=data:image/png,iVBORw0KGgoAAAANSUhEUgAAAGQAAABkCAYAAABw4pVUAAAAAXNSR0IArs4c6QAAEOhJREFUeAHtXflXFMcWxp/eH/Ne3k+GngFkGGDAGRBFGAFBZBHZVMA1ioAICoiiWVSUxSCowQXcETUuidG4JjHmZTdmeX9Ecl7OfedrqZ6qmoVhpqdnJhnPaaumu7rq3vvVvVV163YRF8f9UxTl34qiDMXHx79SFOUPRVEodoVEBn9AxiaTadBsNr/BQaBl5ymK0q4oyp8xAEICgK+O/Wd8fHxbXFzcPA2NGTB8vRR7FmJrMQNKXNyMmdI0w2Q2UWadk3I6V9HinurYFQIZQLYZtfkEWTOLFB8f/z/VfGHMYDdRIP9QA5VcbItdBsgg7+A6GZSBuJkBXEUKmhEDw9jOmFGTr2mJoigvYbK02RRUiQek8MRbtKS3RjVb+UcahWcoVzzZSrl9depzpPjNv498fn+j+hz1oD75ebT/5mUwm4n3JAPInFkoRVF+ByDaDVTIBAThmZMTtWcol9MhAmYtyhKepxZna++jnpyOSuE56is6+dcCRZYBL09PeVkGkDlfzisgufvrhYJ4KaM6TxC4DBh+M0CR2lbnudWx9EC9UIYvH415WQa8cL3leRn4DQhUET1eMb3WoKSFVnIebRKEmb19JZmSElShI81uKROeOwfWU1JmymtQTIpaX/Fki1AmGkHgaeZl4A0A7b4HGfgNCN9oLB+6gT4GiAHT2bl04Bgg0QRISl4mpZctjl0GygAy18YYRSFhlsU/iOVdywEjZREDhFuHGSl4b20JgJSUltK6pqbYZaAMIHMeHAGQE2fG6Yf//hq7DJQBZB4DxECBz9bBY4BEEBgA6y8FyPjkBK2sKKdki0W9yioq6MyFyagyuW6AYKeK2bBT585GDTOd3V2C7WU8IN3duydq+HADRFGUq2AiNTWVnrx4HhWMQDN4ADzlT0eJprgBYrfb/9HR1dUZLWDA7sJMMRAsFgvt7Omm9u4uQp7dL6+sjIrO5QYIQk++/+0352yzgUh6jjGDCR5A3H32WL3au3dr9y0pKTFAjAKNgYH03YEjGiDI88+MoieYdtw0hJmsx19+EbE96vNvv6bL16fVKaLMwMZtW1VQAAbyPCAoiwvvfvHdNxHJn8wPok6mwITVao24Qf3ek0e0pmEdmRNe70rywp5rHnWsbWykT54+jihgPAESkdPe81NXKMU6s/2rowMQdaLuYMyMnu+6AcL3NDzUs7FA64JmhAIMxivqjhRNiQpAYKaY8JBW1lTT4ePHaPzqRTo9dWlOF97BuxXVVUKdMF+Bdhg934t4QDCA82PGqtrqOQHgCzAelISEhIgY6CMekIvTU0JP7h89phsgh0aGhbox+9KztwdSV0QC8vSrF+pA2z88pM6qeHNVUraSSivKdblQF183TCPaxCAPGgIRaLDvRAwgdz99QD379lLh8iIymVxh+bzAjMyDhqLi5bSnbx999PCBYeCEHRD0xqqa6ogAwRvgAKe6ttaQ6XHYAHnw2TOVSW9CwH1bRgYVFhfTysoKqqqrDemFNtBWus0mmDGZvtr6evr082ch05iwANI/NKhuIMnMJicnU33jOnpvaICmPr6j+aSYs9Co9OpHt1Ua6hsbaEFyshtAcGb2Dw+GBBRDAfn2l1e0tWW7G4O2zAzq3LuHbjy4FzYQvIENmkAbtFXuQM2trQSegh3I+fcNA+TrVy+pskpcjME2b2lpjkggZIAAzObt29zGOox/3/z8k26gGALId7/+7DZ9RY87Nn7Ko0ZMXp+izt4eKi0vp0y73aPZkHtrsL9hmtAW2kTboEEGBb9Bs6wtWOWDR76nB5o3BJDtO9oEdc/OyaHzN6fdGD46OkJ5TqdQNlhBB/N+3jInDYwdd6MTtIMHvu6W9h3RAQiiPnjC7VlZdPnOhwKT565dpaIVJUI5/p1w54tLS2li+qpA85U7t8iRnS3QfObi+aBBCamGfPb1V5SR6RoMU6xWN1MwdHKMcN9N6OYESlpUQNbSBkqr2kbp9R0hvdAG2kpaVEiK2X2/xZpqpcGTYwIoMGs87ZkLMwk8B2qu8F5IAWluaxUEfXB4UGDoQP8hMpvNQhmzJY3SVjeTY+cYZe0+HZYLbYMG0MJ3FND69pHDAg/giS8TrOkKGSAPv/iMEhNdX+1W1dYIjBw/e1p4DqYshdXk2HkiLCB4Ah+0gCZe4OBp9NxpgZfK6tVaGTx/9PzzgLVEN0C+++UVTd+9TYiRQqWImmeMgEh+EMcYwq+IMf1NrWr2CYS97X2yNfSoF/KeBDiXe3OpD7SBRsYPZlkYQ9gs7PyNaYL7nj0H75ABZAGZQDb+mrGgAfnq5Q+qUzAtTVRvRhzSNU2NGvFgYt2G9RrxeG4t3+hVwPb245ScVyYIBMJJzi8nR/uo1/e8gRNofanlGwWaGzZtFHjCqp7nmc9DNj19++g/P/04KzBBAYIBDN5ZvnFP+ROT5zTiz1y9LIwbC3JLvArV0XGCEjMWea0/MXMxOTpOen1fBiXY+pJzXTNBaMTZqSsaX2MTZ73SyWQC7/Fsg37AgGAhxEcMskbldNHiHI1oaEfDxg0uws0JtHD7gFeBppaJmiTXjd/Wsg1e35cBCba+hc1HycTNwGQtkafBnuhFBOX3v/3iVVMCBmR0/AOXYBWFsnMWUe/Bd+jEhXNqnhGzfstmDZDbTx4Kq1xLwWqfwkxIs2ttpBQ4qOLTXvVKWea6n5Du8FkHD4oe9VkKXO4fjCV3nj7S+Gvc7DJrkAdkAZlkLRK1HEL3NqYEDAh8OEzo6Rk2Gp08o26tnrp8Xhjg3j7arxGMmRV7B2nG+n0+hcmvB5xD66nmx8Pq5Rx0TRhQhhe6r7we9dmaegUeYKrY4I4pMeMPJg2ywJ7+8ckzlJaerj1bXVujPyD8LKlxyyZtn1vepz51YVIjGD4iRrApcQFl7frApzDNya4Fo2NzsQaIY1OxVg/WCr5A4J/pUl/nBwTaGR/wBDNAwCu7jxTRLSzIomnLJu0ZNEt3DeGngR17e7SG+/oPag2DKH5fg1fpxIzsWQVpcVYIdeGkHWuhQ7hncVbOWg8DRa/6Em0ulwlvkrGPwgPS1/+eJpedvd3aM8hOd0D4hnlAdu/fpzWMMh8+eqD1oJq1rhOF4KJggvKWqoMo1xv5NpFHT0UZb+/L9/WqDy4dRkvt2jUaf7cePdDu43n3230aIJARewepYYB0HfAXkAK/BJmxvo9MnOliTMH8ZGzo86sOHhg96lvgJyBdBwwEJGiTZZvdZDFBMt8SzBMurJyD8XUFW19EmixdBvVO34M6AySi0kgd1IVpr82mTu0wo3Cb9nLeUTjlmMlBiilkMMK2t41QSlENpSyv96kx0AiUsRTWkH3HSFBtZviY9sJ7zfjjp71YEvDTXoQU6T6GjJ0WTxzA4mevujCcEBaGTZs3aYOe+8KwKijhQMCaAKw2SqtuJQcncACWVtNKCVZXaI+lqCa4Npe5DqlEcIbvheEE9b73DmXlGLAwxPIf34EzgXhLsWJl83SkjZtcq1m4IeYyS5K1KaXYNWvz1r58P6V4TcCA2LcPCK4TTON53vxxnSDQIySuE6gcHGVwmMlMy7/51SwccryresGSEsraNR6QkGCKkpe4Folyu/JvlA14MrBrXGgLPGDrmQEyOnFmVjksLykOnXOR2UC4lPfs7xNspCwIBL8xwpHCKceXgWtb7v1+/941Tul17ZRgE4+o5evHs/S6nQEDD1rgxOTr5BeE4Ak88s/5PCZAvQf2E0KhmNy8pQH7suQK4f29fveOxw0q9KbJ69c0UK7cvSU4GTGFxp623yB42dq1twyRbV2Xtvdua+gme+tw0PWCNn6aD9cHVuWsk01cnxK0nt+ggkzmEiKkGyAyQI9fPKcFC1w+H2xzMgaQQsX5LV70KHh/sWcRLDB6vQ9aeO8uaATNvAkGLxWrXR7gpKSkyNjClQHB77aOnYIa89+QgxF4gt2CHJKtqrYEshuoGxDtoyoNvDMSYKhBDpz3GjzI38Lv6Oyc1Sx5khW7FzINQQMY9KHezJ7iNAV+lw0MIbQGITasDEsxA4OLImXFOkpdtVUzQ6EKB0IbKSsa1Db5TShGjzU1lYZOiWFAGNTBEysT8WFAAAXBY7z9dWRl0aXbNwXzhSC0kpXi0XaMyUhI8aWVHFqKIAcE/TH6wOPE5UtBaQfkFVINYWqIWCVGOFKsTRCpAQ3hr6NjI5RfsEwoy79ndB60eAwlveEeSgrzzPgNJjUEEITByJ82YyoomwAGDmZk2PjBt4T2LIdhwdZoC22ibX5WyOhCOnzqhBDChE6ytrFhTqE+vgAzBBAQgJB93v8FRqDmm7Ztpen7HwuawgsgUvKgEbTy5hc81NTVRd/nCKxHYGG0RToQBkxBW3DG1fX7kffBDmjq2NNNaTbXnjhoxvXW9mZdwYCcDNMQBgrSwZH3CfN1xhhL8Y0GduDeGTgiRAYarSVYuIIG0OLpkzbQPnh8RJcxg5dL2ABBwx8/fki1a3w7B1PT0qhgeRGtKC8L6Qef+KAUY0fB8uU+XUDoOHVr19C9J49CAkZYAWE948K1q4TgMdk2M62JhBS0VaxaRThVgtEdqjQsJssTM/efPVFPD81f5nRbvYcDFKzKQcvuPT10/+mTkAPBZBIxgDCCkD7//ls6d+kivdt/WAVpS/M2sjtc4T+YBMDEBHOhDgY06kYbOE4WbWKBBxp4mozKRyQgnpjnP28AECwALdAUdTBAULenNsNxLwaIoqjfsoRD+J7ajAESA0T88xdYLOJLXSwY851O4SNRZlLCleKDVdCE8QU0wtvgqVfreS9sGoJdNDSevcgVJxsuwfvb7kK7nY4eG9bNb+UJyLAAgmP75GM2/BVKJJTDh0qzfQnlSdj+3DMckCcvvqTFS5ZoMxwmYITQ4ODjrv37tIOQsRsXzgu0wKHI73swepfk5hJ48UfIcyljKCAYL4pXrBDAwN7I4feHI97be+jYkNvJDfh7UXqPK4YCIv+ND/iopj/5KOLBYM7Na/fuknxO4649PbpqiWGA4Cx5HFDGVD43Py8qjmViYLD05sP7wq4mImtwSMJczJKvsoYBsqtH/ILo9JVLUaMZDAyWjl+6IDhD9fwLPoYBkrt0qaYdNdxXR4xJTykCmftHjhGiBEN95mLTls10eGRYCJ72RBO7V11fp/GzND8vujQE5oqZKqTyITSMST5FZGBRif9xu3z9weTRJv9dJE8Tn8e5kHw7CAz0ZYr8fWaIhkzfuSUQf+HD6z7NFTQjHGAwAePsLv4zAx4Ilr9wc1rgCWea+Ct0X+UMAUT+o138h6CMQT6FmWLCQYpPnxEln7y0NCQX6paPYgINPE1yHjzwNIJHX4L295khgMiNyMzJvzFmMGYhKCPCStGG2ZKqtYsxRaZL/s1oRAoe/RW6r3KyrPC3cP9gDQ2PjYakEZkx+TfO1mI0qN+PeIl21yuWl9WDtli78vleMo34zcoi1QsQyJyr93f8yaOf2I1tLS3hAaSuViMKZooJLNQp2mK8Y1bnCQT+HiuLVC9AEFrE1fsyzmQyDbIb+K7jys0bQYMiqyHPlKc8hMFo+DsBgj+Xwf+tFEVRjsaZzeY3+D+/ClBwGjVUCYIN5NrR2aEJGIKezWHoLCzUyicuXBLyyHcWUY+2WEcADbPRycoiBY+ByAbvQLbQDB4MYPDmm2/+E39XEmarjW8sln8dqWiwHFpVMGb+mwdQeE0xmBitp/7d2p2ROcCYxwOi5ufPn/+v+Pj4gZmB/ve/m3AM5BeyfYkxQzNTM2j8H5mh7aButqAWAAAAAElFTkSuQmCC;" vertex="1" parent="1">
          <mxGeometry x="548.66" y="1383.06" width="40" height="40" as="geometry" />
        </mxCell>
        <mxCell id="zGswEQUEo45fGF-Yw32O-42" value="&#xa;Stance pre-categorization&#xa;&#xa;" style="text;html=1;align=center;verticalAlign=middle;whiteSpace=wrap;rounded=0;fontStyle=0" vertex="1" parent="1">
          <mxGeometry x="632" y="1363.5" width="101" height="30" as="geometry" />
        </mxCell>
        <mxCell id="zGswEQUEo45fGF-Yw32O-43" value="&lt;b&gt;&lt;font style=&quot;font-size: 14px;&quot;&gt;+&lt;/font&gt;&lt;/b&gt;" style="text;html=1;align=center;verticalAlign=middle;whiteSpace=wrap;rounded=0;" vertex="1" parent="1">
          <mxGeometry x="754.87" y="1407.5" width="60" height="30" as="geometry" />
        </mxCell>
        <mxCell id="zGswEQUEo45fGF-Yw32O-44" value="Behavioral Traits" style="text;html=1;align=center;verticalAlign=middle;whiteSpace=wrap;rounded=0;fontStyle=0" vertex="1" parent="1">
          <mxGeometry x="753.8" y="1463" width="108.7" height="30" as="geometry" />
        </mxCell>
        <mxCell id="zGswEQUEo45fGF-Yw32O-45" value="&amp;nbsp;Narratives shape" style="text;html=1;align=center;verticalAlign=middle;whiteSpace=wrap;rounded=0;fontStyle=0" vertex="1" parent="1">
          <mxGeometry x="827" y="1355.5" width="108.7" height="30" as="geometry" />
        </mxCell>
        <mxCell id="zGswEQUEo45fGF-Yw32O-46" value="Narrative of Complex Reality,&lt;div&gt;Narrative of Power Imbalance...&lt;/div&gt;" style="rounded=1;whiteSpace=wrap;html=1;fillColor=#e1d5e7;strokeColor=#9673a6;fontSize=11;" vertex="1" parent="1">
          <mxGeometry x="816.99" y="1391" width="130.76" height="70.5" as="geometry" />
        </mxCell>
        <mxCell id="zGswEQUEo45fGF-Yw32O-47" value="Purpose" style="text;html=1;align=center;verticalAlign=middle;whiteSpace=wrap;rounded=0;fontStyle=0" vertex="1" parent="1">
          <mxGeometry x="874.6499999999999" y="1463" width="108.7" height="30" as="geometry" />
        </mxCell>
        <mxCell id="zGswEQUEo45fGF-Yw32O-48" value="" style="shape=image;verticalLabelPosition=bottom;labelBackgroundColor=default;verticalAlign=top;aspect=fixed;imageAspect=0;image=data:image/png,iVBORw0KGgoAAAANSUhEUgAAAGQAAABkCAYAAABw4pVUAAAAAXNSR0IArs4c6QAAGlRJREFUeAHtXWl0VcWW5kcPa/U8j3b36sG3uu1u2+54q87NQBIJkJgwmgCJgUxMCUKYhJAwJIyKoiBhBkFUVEBAEQHBKIojowMqyKBP+znj8z3t9bT1VfMdz667T91z7z3nJjcvkc5aWVX3nKpdezhVtWvXrl09enSjv5ycnN+RUs4IhUJPSSnfsizrXSHERSHE/zr/F/FMSnnaKTMDdboRid0H1VAo9DdCiLellCrIv1Pniu5DaTfBNBQKPRFEEEbZJ7sJmd0DTcuyJGfw0PIq1bxklVqw/G51+7otavm9O+1/5BfctcF+N3R4tasnhcNh0T2o7QZYSik3kEByruulnjz1gTp87qdx/9ve+FChLNWzLGt9NyC166OYkZHxu0KInxNjp8xeGFcQXFBTZi3UApFSfiml/L2uT3EXx1BKWUfCQPrQk8d8C2Tb0ye5QJRlWbVdnNyujZ6j5p4kgQwpr/QtDOopmG+ovpTy5P+rwQFlHg6H/52tNb5hzFR33L01sEDu3LiNCwT5b5w1SsO11177bwHRuzyKSyn/XAgxSUp5gguA5zFBt73xUWCBoA6f3DlM5IUQx6WUE4HDD47b6enpfyalTEtPT/9HP8RJKa8KhUJ3X+oRX5uM4r975xeoVQ/uCSwMGrZQFzA4TI88cNhgWda/+MEd5aSUmaDZT/lOLeMIYpuU8jtG6FtSynovzSYUCv1rKBR6REr5S1ZeMywzK0tV1darha0bFSbmZ89+nrQwSCiAAViLVmxSVbUTFNrwatuhYSc+FpOJaWlpv+/0ptOsLmgG7V2jhwkh/l4IcYYh6CLUUVnXYLwOh8N/JKVcBruTWT4cDiss5sCw/a/8uN0CIEHESg++/hO1dNN2W/BWOOzCGbg5OK5xPrYrhRC3XPrAPjfxZr/PCyF+ZAqxU3+Hw+H/lFJ+wJCKIoy9Q2/AWsBVJj0jU9XPaFG7nn8joRAeP3pebXz0aXt1PmvxcjVp5nw1ftosNbr+ZjWmfpoNB2uP5iUr1bJN29XmPYfVE6+8lxAu2gYOwMXEz8HZsyebZYUQH1qW9V+dKgRqLBQK9ZRSfsGRqhh9k9p5+HW14v5HVWlFjRdx+hmInzZ3sXr86LmYDHvsyFl1y6p7VM24SSqvT76uy9v0k7++30BbYLeve0ABZqxeA1yAUwzB6PaHjahWrfc/YtNaOWa8fu7g8kU4HM4mPnVKKqW82uy+dVMa1aEzn7qIxSIOX15Wz54upMtrxqqHn3nFVZaY9OiLp217FNYPlmW56vlhvp8yg4eU2XawvccveOKAHoNex2FBSHh2/74XXHWeffuimtAwx1VWCPGzTusp0KDQNTmy+KriTbz7T76r5i5dq266eaZav+OAiyASxENPHlWjxk9RmEs4bK+8EOIXUsrzUJOFEE9DQcA/8s6zC4k0N8ANh9NtJj948IgnTht2HrRxBu6ggXA1U9AOHnBcwaNwOPxPKe0hmOCEEGd5w0DERDDI73sff06NGDXORQyHD03MsqyXpZS3SSnLoRzk5OT8WiJC09LSft1ZZJajrgMj5lwwfGSteuDAy+2ixUMo4FXqtC/LsrZyZo2b2hS3Z8QTzL4T76ixkxpiCeI7Z/+jLhwO/3Ui5vt9L6W8Qko5Tkp5wFDRbTzQO0ETlId4uMd6h55SN7XJpGmbX/wClXPUP73OwGRmzhmxEDWfY9K/Lq+PiThUTQxFm8Ph8D8HQi6JwqFQ6B+ggkspv+IfGfI5udfZmpyJt5/f4AmUGwbzO/AuCRTjV8GqlDWidjz7WuCvCOuLitGewxOY0iKE+OP4WHT827S0tD+RUs4VQvwPpw/5kTdNVgdefT8wneANh2VZVkaHY46vljcCtc/PF0NloLn0G1TsQhTwLMvajcVlhyMcEKDTYx7jNCJf2H+QvcInOvykGAE4nJQtGPmKHLq4H+RQ5u5dbV4Gvg+EEEUB+Zby4pe0tAFCiI84Q7N6Zts0+KWXr8HAs5Qh7dhxtPT9aCVYMUO95ARKKQ9nZGT8VcoQbSdgZ/J/geOMdcjKBx5L+BFi7cXrwZ7XTnRiV8d2Kl+dw2wR76tZs3VflDAsy1oOlTR2K13jzVVXXfUbQoiVnLmwea3YsjsuzeAJ1YEdDwbJlFIkpVxBDeKrgfrqJZTNjz2rMjKjLKpTUopcCoBbljWd6EUKmjc+8pQnzVg8Glbk1hSg5Abp7APoBRZWsaZAHmo7prJzcvWX4hDU7YRBlJtC6Zmdo7Yfijb9zFu2jtOMBa2vvRVqJ6k0KyvrT7nuDnMIFwisq/mF/ThiyE9NqrEuVElK2cB7StHAG9SB1/7bRTt4wcp8CZU65SRYlrWKNapg7yGBYKWKjSX+HuNwKpBybGo1mJOklFvw7+Sr/e5YBsVLSrmG04Z1CtGOFLzg7zG8B20jUHnsovHNJey8cYTu2PCQCyEhxIuYHAM1kqCwZVkFUspnDMJd7To7kYfC4XB+AnCBXhcUFPymYxPT7UGL5DyoGjtBvxNCfJtSRwos4ogRmNz4phImd+5MIIT4GA7SgSiOUzgzM/MPpZTYWtUE+8lblrUDdeOADvQqLS3tby/Zwz6htkEz39PZ9dwpleHe6NoVqAG/hbEPzvfAp8+7zfVlYOVOSDrpmx1lCklPT/8708qMNmAMLBlWpmrHT7L/kfcy38MDHoz0S2u8co6p5U1OKwySvJdMa7mV8+K7lEzuUsp7CAn0Dv5VAJm9x86rvgWFHBHkj7ZXD4dQuYUAOPTK661a121Wr1/4VL3/hXL9v3b+E7V87T3qul55Ji6nsacfj9mJ3l1zzTV/4LgNuWDjI4BmSULZc/Scq5fAsyYR7EDvQ6HQX8DBjAQyqWmebpyQeO7cT9WJcx+r6lG1LmTbi0woFNpO7SKtGjVWvfHjz11CMIWC36fevaiqRo5x4YLtg0CEG4Uty9rEceF57KcQL5Aau4hwMeq4fREp5RRqHF/DIy+86WocCJx4/yubSRc++VrVjK7jjIA+npS1UwjRl9pFCmG88+k3CYVBAkJZUyhSyt4Gn339xD45H7JHVI1ULYuWcDpdvQS+BXwLGo6AvhryU0gI8Qoxprx6TJQwIJALn32rGfX6O5+pvN6u/Y59ftoxyzhbsjbRGKb89AwSBqXoKXz4AkyzHT+/hRB7iQeABxoxZPKVee3kGS7eGEbG437aSVhGCPEfhAhS078Wm/47Dx3XwiBGLF+7WX89UJWDLpIcA5+2CAAewQ6aYk5hNPwy6C4khhuu7gMe4TBnfmQvPT09w2VKgpcLa1d1iApsWVYTAcXXwFent629Xze4ZcdejSSQxZfJNR4hxIiE0mcFpJTV1C7geE3gxJREKSZ6jotlWZWsqYRZ4M5xATxq89hb77uGpkUrN+leAl7xHoTVfsLGEhWQUh4iZKrr6nVjGKYGDSnVApnZskgjScgWD428tyyrOVFb/L2U8nZqF+oswUw25bhIKRfzthLlsZsZD5fyisjxueLS4S4ecb+tZIdLjZ9jbtfaFdw8IQj8w3+KkER63/Y9UUzD+oDKBD1Shr11qjtmXH0U7KCCAQyCB21JE+kjw7UrL1zWbHpQw0YbUHuJTzjzSO06mmrwU1xwkMZpIxxwYcBcW5nomvQuPT1dvfX+F1FMq5swWZeBZ7kP2nURKeW9BN+LCe0RCNZUuiEfGSnlasIFH5nZtjkk4kwKCWRr23HOA+RPgre+1mc4qYov2csHF+783Blu9ISpuiGogCaS+D1k2I26DBwJfNCui2BYISZ0yJA1ZBjHZZFuyEdGCDE/ES7AkcpwbQs8651/vX5HZRwe4/iDjEIBNifHV8mrom2jMs9n8FX5LXe0RgkEKiqfSOHkFtVwnAeYeAl5wOETqZfw4z179dzHrolXSjk8TtNRry5ZCso4Ll7qd1Nz5IApfImphyDFLiNciwiGmTo+aN8HN3BOubq8EakC/GvR/cyTS3AkozJIH97zVJRATLU3qF0rLS3tL/lCjKua8Zjv9W7Z6o0cX/iWBVo1O+abb4lmL1w2b92t28CCkGujEErbqQ/VkvUPqpKyEbocwUMK89DVV1/92z2EEI38BayXcOnH4RYuZZ7ftPuQC+jLp951CQSLJr4Yk1Luj/rsfDzg0RsAD6q0F8PjPYO6nMvOq2OB56PpqCKggfiERarZY58/edbFExyF4DzjecwrOEph9hrsTEIgcFC2geHADA7c88peeb7gycjMVO9ejKzSbXPFqLEcOZhOosfJKJKjH1xSuXMJN6QwgwQ1nWB+4zCSPSqA+ZX3WJhxzn/8C/2BnPngS1c75j6JFx8RAME4JdzWA1F1COE5t69IKAwAblq0VDdeWNRfI4WvEYgSPCcNpNGYYuHaFuBBKH56CnCpqB7V0bhoVdzGZdRY14I1l80Tc+9c44uXs29r1TgKId6AQN4jBiJ2iJckzWfoblSnrLzCZhDGVXRleu6kR9LS0n7LZHKQ3zB5h0KhVzlcDF9ozxw2MHRhAsecwYcp1IU9zpeqGQc50GLuGIJmtAdcipkmN3X2Il+85OsUhJaCQPS5OQRvMZnv9RtqHTEIQ5ahTel3jv5eDMeIOHTGfIX9C2zDmnvZ1DbaBRPG3jRRYa1yQ8lQU5viuKwBrGR3Dx3njmLTp4DjAl7Qb5jfvXhnPlu85j5dRwjxGQSiV+J3bd7hCwg296lhn6l9vMCv66hlWf0syzrodWTAZ3vx8IOWtUsIkRXzS2AvgLOjXGjPfz844ESZyXyv3zh4SvDg/Z+UQMzjXgTQT+ooEVcymnUW7qWOIDSSfmC2o8yBWC6tUsoruR0vaBs4++IlAPMZJn+CTQJhQ9YDvoDwISurZy81aHBd1H+/ftWqV68BnkOIcwavn5ZEjx49MJzAMYKQ42n/gYPVyDHj1KSbG1V6RoYmoHdGlppWOND1j2dUF2VRB3UBg57zFG2a3inoocCRl0Me6wvQBNq8aAYvqE57hiw9qeOgvilBr984yEkN5+UNVPMXnoz5P2vOM6q65naVnd1X10Fd7C9YljUYQpFS3sD3Gwg2UtNo2TgnolBkWGF1prZB/WzSXPsfeTyj+ijL1yiARe+M9Jt4uGTn5KvqmiVq9pxnY9IJHvTKG6Dhw9HBi3fmM69JXau9ON9tVvD6PXtxRFXLzMyJiyQJq2Xey2pY6QxXj3EOyVSbh2XS0yOTY1G/AQo6PjEW+w+8lzT3L9YCQZ4YjTIoS/UAA7D0e9YGnnnhgh4xrLRRAXeiI16akZGt4SPinRfvzGdRaq8TGccGhEWKn2htfGMKxLTMe8kXwiBm1Oi7XEIhBlFaP2GNmjI5YknG86bmBZqxYLDZS07XNij8x+sdgEFtIEUb9eNXu57x95YVVqPHtPqmq3nuiy5YfhQkLMKNUIT2wtDlswrTyeRZC9S2p07ElDC8vzny0xv2+EYcQhk+Yq6rPsGqq12q7l7/idqw7mM1eLDbY+SRJw5roZi9hOpTavYO1KV3SAEbbaCt2rF3ut5RueEj5gWiadr0x1xw7tv3fEz+wSwF8xR3LES7l3rptB4I6GX6PRFSCBiGPXTTuAgvRSqDNMiXBIHMW3BC9ekTGV4Ao6BgqFq/9gObSWDUsqWnVFZWxEKaf32ha89l+szIPMZxQR7vaKjCPg3qUhnABGy0gX+0WVAwRL9Hud59itW8BccDCWTU6OUaBoY6M14LeAhDrWEq0XUQa9g2LjqT6hXckEfIUwpJmuZ3HuqiZMiUQMhDKBAiwUc6t3m/ZhIxq2GaeyduasMszehx9VNc9TksvCOBoA5/B5gEn9KW5v2uMkE/MNBTUhJZm+FcIp8rcPLK7A0cJxguPR0vnHCsiAAaFSTG3KBC1AUCmtd7UGCBYIKn+rm5BWrDuo+iGAWGDSlxxxLZuvugOvOTnyu+Kp6UV6jwT/DwDmVQlp4hBSwSAk/RNnCgspjIweQg/9A2qT6WBSSQ7zeoIrCpDHiMzUBf4Wth8/HcwmXzyuLV92oE0EWbZrUFIqBP38gwUVkxx5NRYFrrXWdUdnbERta7T1/Vui7SNgjcW1xj/zNi7TIoS88AA7C4IHi+smK2Ltu375BAtDTOPOhSVLDvQQLBXEw4IHV83OqSsquZTg58nQLPPN5QVfXiQERkZ0cc6SaMXxWTUWDazMadrra47eyGrFx1rHSc/V/cM3Jqi5cBnoDBBWDmgQPRA9yC9I7KqohzNT5OHgkCBluCm7STA19Bc/MBDuOQ5JEOLInsU/fNHxqICH4yt7FhW1xmgXllpZE9fEagWlgwWAtkQb73ahx1TQGYv4EDwQVuQQTSp0+Jrjt46I0uHhnnRZLymuTy6MEd5XCIk0c2aLkjosfjy2iYsc83IUQ80qYEXy+Yt7L1nMrNjY6Zta94pBYIhi4OF3nUQV1TAOZv4MDr+hXItAb36p9vYaTKUQ6xsTSyfHzc/dIZxcPjQdPwSwiH6UcgYOCc2W7i8zOy1FFnuMKwhXwfYwWOOibzvX4nK5DikomaNziow8M4gVecTpyxcX3tyf7g/llllaNcXZKb4sPhDDVz9tO+hMIR9SsQMHLEcHe0nWWFQ3QPWVoYURQAH2W9mO/1LBmBzJz1lALNRAvCDPIhvawysn0cCoWOJcv/qHqWZU2mRjFZ4tgWNYzz6PQOaWlZU0oFsnrlOyqvV+SUb08rrPYXj1T7S0aqnixiBMqgrBfzvZ4lI5DSskYX7QjCRnyB0mMoFhOjGJvsA+fAjo6tWz+jWTcMBErZl4AvpqEx8VzChRikh4CZc1sOuNTM0uxealh2ZFWP+QxlvBgf61lQgWC+5L0DUY5IGEhTemAHgpRSbiQmfn+kLRLka8sTL7kYVFRUmbCXECykQQUCptZUR8zwHBbyNdXzAgkD8IIKpLCoQvcO9ATwgAQC317wiPAK6tfsq+PgSDR3gzHt/XzlDkRq69bGFQohizQZgaxZ9Z5t/+JwkIddCu9i9YRYz4MIBLTxds3gCTc338Lfp+bQp9NLdhEi0Cj4XIKvgofTyMzMVTOaDsQUCsFBmoxAwNgVrWftibtnVi+F/+HDG32puF5C8SsQ0IQ9IMIfNip+ABZzh3EseqevLz6ZQk6cE+0UYS4Ub10VOTUFhLFgmjv/iKdQiKD2CMSLsck+8yMQ0GJaqU2HOOM8SGoDBzi9REcDAjMThdaIZQnubgLBlkFxSeS8C/BHgGeaN5CaoTVSFVbE1Zmcg/PaGmyOn1jJFxT1110aiEM9NBeM3U0gN5ZHjI/AvXDAYJfVAgIxgs98law/movhiX44sRf1YUyEJOJfCfKINJeVHdlfBgEVlQtdQulOAhlR4dboYoVnQqgqRlfnhGfiAcxwoNHcGSPhrN2+PyqaHLZF0fXRWxjiSU/qyc4XXvW85hDgWj7cvTOJCXvDziejPkLQ7RHALLXRgMwQf4l8j7BlyW1dEMKgweNUy7wjXV4gwHHQIFcABJuWRHEXOzXEnxkEM1bMdOolSOF9wU3tEErf/IjZHr+TVXu9vvRkn5k9xMQRPcNPaFyPIJgdZzIx5xN+dAFRCjjj4+VXb90bNad09SGL44c5I1acRS+6EUKX1T9t8rFDfiMYMGvEviPEC5lYz3BqyCP0n434jIatgVfWyfaEWPUapruDrxGtdiBltnUdiz7+3AxVlZJAygggQ0gixYqUI+Enj0nPDAEIWPBUrKpsVncx95xYjOvo52gTbXNvSaKzpm5ilGrrh04z1Hg4HE7vkF7BgZjB+BFwPtlg/DiHgmjRRDilYAocHu5c8krKe8wdS06qihGzXBZbwgPmEIQr5MfA/QgCZcATvlrHkYqUrUfM6ypwNUMySANxXD0El32YyokRPC0qKrddPTuy1wAW3EeLCl3n53X7wAU4IRibXwHwcuAFostxOtobo4t3iqg8eokZaq8jLnTBLiQngufBJDCwqrJFTbv5fnXbrS+5PBxjDWHwSFx8y4t2naqqFlVYWBZT+GgP1zD5CZ3OBWDmzQtdLp2HPxf0CHYU0xM9aM+VR9DR1++IhJXlBMEXFsFtzHULFw7lMbTBsS0/v0QN6F9pO8DBCQ55PMM7rzmB6lMKdRzbrua9UoQXrmeCOaTLXnlEwnKuEtIHfUCg56VgbcEvBYNPE7xZBhYPjdlriKHJprgUbP6y9a4gMSQEpNhWMJUPbDh5XQr2zNufmbuDcIbrvEvBSChe1+ZhMoOGAbXP0MWjmIuFFja5uFMZZwry8GqBhyQYEUtl9iOUvtcXOdfmbfEMT0jtYk8Hm0vGfkYU7liD4Y4Q0GrcpoOynX9tHgkFF0uaN7bFYRAMklHXC+HLwx493+wiBpkprrmDUwU88mfdulzhsnsMKRAY/pHHUQqct0cZRJzwc7EkGAszUAxBAGdtTI1DH3rGr+5iSRJKSq5ejXNFnSmkZH/DiQ0nYDGZe2l6zhG7QFev4qAo8eVXmjra10P8GLNz5mSil1Oxsz+P7WDPo8bwkIQLJrwA4aycrGrNhQUYsBbgTB+GGe6EYHz12APf4RX8GLTAnmecp0F53F4XKKBNpwjMOVzv+/puEN0Z13cjPFKMmFV8frCv7/Z7QxwujcRV5Slb9HWKxGI0gq/L+fJw2Txnks5j9Wye5OI9IFYeYZHMqDu8DbrgHr08BnqX92OEUkX0TucwqnaoABPNELWxhMCfm/61OBLgwEYbHeNre7mIzAmupoM443weZ7affMmNEYc2HJYBzMuFfymhU0pZx4cYbAD5EQTKmKeXcCosJUheTkCdXqLDXOA4sV+BYE3ChPkVQj1dTrxLGa1OpFSbud9P7omj3iEAgjGZBwpTmzJifgiAnfB6+mvHXIKQFDD6YW9l2T0P23v3yGOdgbAW5nnwZMMM/hD4lxIapJT72PCjhePnGUI+pQSpyxkobkswVsh+hYKbdTrsTvbLWQZRtCP0hHPJY5uUEndcvSOEuCilxCr7a+TxzPGOaUPsEB2uIgpa13zwf6iukMnPHyECAAAAAElFTkSuQmCC;" vertex="1" parent="1">
          <mxGeometry x="546.66" y="1502.69" width="44" height="44" as="geometry" />
        </mxCell>
        <mxCell id="zGswEQUEo45fGF-Yw32O-49" value="" style="shape=image;verticalLabelPosition=bottom;labelBackgroundColor=default;verticalAlign=top;aspect=fixed;imageAspect=0;image=data:image/png,iVBORw0KGgoAAAANSUhEUgAAAGQAAABkCAYAAABw4pVUAAAAAXNSR0IArs4c6QAAGlRJREFUeAHtXWl0VcWW5kcPa/U8j3b36sG3uu1u2+54q87NQBIJkJgwmgCJgUxMCUKYhJAwJIyKoiBhBkFUVEBAEQHBKIojowMqyKBP+znj8z3t9bT1VfMdz667T91z7z3nJjcvkc5aWVX3nKpdezhVtWvXrl09enSjv5ycnN+RUs4IhUJPSSnfsizrXSHERSHE/zr/F/FMSnnaKTMDdboRid0H1VAo9DdCiLellCrIv1Pniu5DaTfBNBQKPRFEEEbZJ7sJmd0DTcuyJGfw0PIq1bxklVqw/G51+7otavm9O+1/5BfctcF+N3R4tasnhcNh0T2o7QZYSik3kEByruulnjz1gTp87qdx/9ve+FChLNWzLGt9NyC166OYkZHxu0KInxNjp8xeGFcQXFBTZi3UApFSfiml/L2uT3EXx1BKWUfCQPrQk8d8C2Tb0ye5QJRlWbVdnNyujZ6j5p4kgQwpr/QtDOopmG+ovpTy5P+rwQFlHg6H/52tNb5hzFR33L01sEDu3LiNCwT5b5w1SsO11177bwHRuzyKSyn/XAgxSUp5gguA5zFBt73xUWCBoA6f3DlM5IUQx6WUE4HDD47b6enpfyalTEtPT/9HP8RJKa8KhUJ3X+oRX5uM4r975xeoVQ/uCSwMGrZQFzA4TI88cNhgWda/+MEd5aSUmaDZT/lOLeMIYpuU8jtG6FtSynovzSYUCv1rKBR6REr5S1ZeMywzK0tV1darha0bFSbmZ89+nrQwSCiAAViLVmxSVbUTFNrwatuhYSc+FpOJaWlpv+/0ptOsLmgG7V2jhwkh/l4IcYYh6CLUUVnXYLwOh8N/JKVcBruTWT4cDiss5sCw/a/8uN0CIEHESg++/hO1dNN2W/BWOOzCGbg5OK5xPrYrhRC3XPrAPjfxZr/PCyF+ZAqxU3+Hw+H/lFJ+wJCKIoy9Q2/AWsBVJj0jU9XPaFG7nn8joRAeP3pebXz0aXt1PmvxcjVp5nw1ftosNbr+ZjWmfpoNB2uP5iUr1bJN29XmPYfVE6+8lxAu2gYOwMXEz8HZsyebZYUQH1qW9V+dKgRqLBQK9ZRSfsGRqhh9k9p5+HW14v5HVWlFjRdx+hmInzZ3sXr86LmYDHvsyFl1y6p7VM24SSqvT76uy9v0k7++30BbYLeve0ABZqxeA1yAUwzB6PaHjahWrfc/YtNaOWa8fu7g8kU4HM4mPnVKKqW82uy+dVMa1aEzn7qIxSIOX15Wz54upMtrxqqHn3nFVZaY9OiLp217FNYPlmW56vlhvp8yg4eU2XawvccveOKAHoNex2FBSHh2/74XXHWeffuimtAwx1VWCPGzTusp0KDQNTmy+KriTbz7T76r5i5dq266eaZav+OAiyASxENPHlWjxk9RmEs4bK+8EOIXUsrzUJOFEE9DQcA/8s6zC4k0N8ANh9NtJj948IgnTht2HrRxBu6ggXA1U9AOHnBcwaNwOPxPKe0hmOCEEGd5w0DERDDI73sff06NGDXORQyHD03MsqyXpZS3SSnLoRzk5OT8WiJC09LSft1ZZJajrgMj5lwwfGSteuDAy+2ixUMo4FXqtC/LsrZyZo2b2hS3Z8QTzL4T76ixkxpiCeI7Z/+jLhwO/3Ui5vt9L6W8Qko5Tkp5wFDRbTzQO0ETlId4uMd6h55SN7XJpGmbX/wClXPUP73OwGRmzhmxEDWfY9K/Lq+PiThUTQxFm8Ph8D8HQi6JwqFQ6B+ggkspv+IfGfI5udfZmpyJt5/f4AmUGwbzO/AuCRTjV8GqlDWidjz7WuCvCOuLitGewxOY0iKE+OP4WHT827S0tD+RUs4VQvwPpw/5kTdNVgdefT8wneANh2VZVkaHY46vljcCtc/PF0NloLn0G1TsQhTwLMvajcVlhyMcEKDTYx7jNCJf2H+QvcInOvykGAE4nJQtGPmKHLq4H+RQ5u5dbV4Gvg+EEEUB+Zby4pe0tAFCiI84Q7N6Zts0+KWXr8HAs5Qh7dhxtPT9aCVYMUO95ARKKQ9nZGT8VcoQbSdgZ/J/geOMdcjKBx5L+BFi7cXrwZ7XTnRiV8d2Kl+dw2wR76tZs3VflDAsy1oOlTR2K13jzVVXXfUbQoiVnLmwea3YsjsuzeAJ1YEdDwbJlFIkpVxBDeKrgfrqJZTNjz2rMjKjLKpTUopcCoBbljWd6EUKmjc+8pQnzVg8Glbk1hSg5Abp7APoBRZWsaZAHmo7prJzcvWX4hDU7YRBlJtC6Zmdo7Yfijb9zFu2jtOMBa2vvRVqJ6k0KyvrT7nuDnMIFwisq/mF/ThiyE9NqrEuVElK2cB7StHAG9SB1/7bRTt4wcp8CZU65SRYlrWKNapg7yGBYKWKjSX+HuNwKpBybGo1mJOklFvw7+Sr/e5YBsVLSrmG04Z1CtGOFLzg7zG8B20jUHnsovHNJey8cYTu2PCQCyEhxIuYHAM1kqCwZVkFUspnDMJd7To7kYfC4XB+AnCBXhcUFPymYxPT7UGL5DyoGjtBvxNCfJtSRwos4ogRmNz4phImd+5MIIT4GA7SgSiOUzgzM/MPpZTYWtUE+8lblrUDdeOADvQqLS3tby/Zwz6htkEz39PZ9dwpleHe6NoVqAG/hbEPzvfAp8+7zfVlYOVOSDrpmx1lCklPT/8708qMNmAMLBlWpmrHT7L/kfcy38MDHoz0S2u8co6p5U1OKwySvJdMa7mV8+K7lEzuUsp7CAn0Dv5VAJm9x86rvgWFHBHkj7ZXD4dQuYUAOPTK661a121Wr1/4VL3/hXL9v3b+E7V87T3qul55Ji6nsacfj9mJ3l1zzTV/4LgNuWDjI4BmSULZc/Scq5fAsyYR7EDvQ6HQX8DBjAQyqWmebpyQeO7cT9WJcx+r6lG1LmTbi0woFNpO7SKtGjVWvfHjz11CMIWC36fevaiqRo5x4YLtg0CEG4Uty9rEceF57KcQL5Aau4hwMeq4fREp5RRqHF/DIy+86WocCJx4/yubSRc++VrVjK7jjIA+npS1UwjRl9pFCmG88+k3CYVBAkJZUyhSyt4Gn339xD45H7JHVI1ULYuWcDpdvQS+BXwLGo6AvhryU0gI8Qoxprx6TJQwIJALn32rGfX6O5+pvN6u/Y59ftoxyzhbsjbRGKb89AwSBqXoKXz4AkyzHT+/hRB7iQeABxoxZPKVee3kGS7eGEbG437aSVhGCPEfhAhS078Wm/47Dx3XwiBGLF+7WX89UJWDLpIcA5+2CAAewQ6aYk5hNPwy6C4khhuu7gMe4TBnfmQvPT09w2VKgpcLa1d1iApsWVYTAcXXwFent629Xze4ZcdejSSQxZfJNR4hxIiE0mcFpJTV1C7geE3gxJREKSZ6jotlWZWsqYRZ4M5xATxq89hb77uGpkUrN+leAl7xHoTVfsLGEhWQUh4iZKrr6nVjGKYGDSnVApnZskgjScgWD428tyyrOVFb/L2U8nZqF+oswUw25bhIKRfzthLlsZsZD5fyisjxueLS4S4ecb+tZIdLjZ9jbtfaFdw8IQj8w3+KkER63/Y9UUzD+oDKBD1Shr11qjtmXH0U7KCCAQyCB21JE+kjw7UrL1zWbHpQw0YbUHuJTzjzSO06mmrwU1xwkMZpIxxwYcBcW5nomvQuPT1dvfX+F1FMq5swWZeBZ7kP2nURKeW9BN+LCe0RCNZUuiEfGSnlasIFH5nZtjkk4kwKCWRr23HOA+RPgre+1mc4qYov2csHF+783Blu9ISpuiGogCaS+D1k2I26DBwJfNCui2BYISZ0yJA1ZBjHZZFuyEdGCDE/ES7AkcpwbQs8651/vX5HZRwe4/iDjEIBNifHV8mrom2jMs9n8FX5LXe0RgkEKiqfSOHkFtVwnAeYeAl5wOETqZfw4z179dzHrolXSjk8TtNRry5ZCso4Ll7qd1Nz5IApfImphyDFLiNciwiGmTo+aN8HN3BOubq8EakC/GvR/cyTS3AkozJIH97zVJRATLU3qF0rLS3tL/lCjKua8Zjv9W7Z6o0cX/iWBVo1O+abb4lmL1w2b92t28CCkGujEErbqQ/VkvUPqpKyEbocwUMK89DVV1/92z2EEI38BayXcOnH4RYuZZ7ftPuQC+jLp951CQSLJr4Yk1Luj/rsfDzg0RsAD6q0F8PjPYO6nMvOq2OB56PpqCKggfiERarZY58/edbFExyF4DzjecwrOEph9hrsTEIgcFC2geHADA7c88peeb7gycjMVO9ejKzSbXPFqLEcOZhOosfJKJKjH1xSuXMJN6QwgwQ1nWB+4zCSPSqA+ZX3WJhxzn/8C/2BnPngS1c75j6JFx8RAME4JdzWA1F1COE5t69IKAwAblq0VDdeWNRfI4WvEYgSPCcNpNGYYuHaFuBBKH56CnCpqB7V0bhoVdzGZdRY14I1l80Tc+9c44uXs29r1TgKId6AQN4jBiJ2iJckzWfoblSnrLzCZhDGVXRleu6kR9LS0n7LZHKQ3zB5h0KhVzlcDF9ozxw2MHRhAsecwYcp1IU9zpeqGQc50GLuGIJmtAdcipkmN3X2Il+85OsUhJaCQPS5OQRvMZnv9RtqHTEIQ5ahTel3jv5eDMeIOHTGfIX9C2zDmnvZ1DbaBRPG3jRRYa1yQ8lQU5viuKwBrGR3Dx3njmLTp4DjAl7Qb5jfvXhnPlu85j5dRwjxGQSiV+J3bd7hCwg296lhn6l9vMCv66hlWf0syzrodWTAZ3vx8IOWtUsIkRXzS2AvgLOjXGjPfz844ESZyXyv3zh4SvDg/Z+UQMzjXgTQT+ooEVcymnUW7qWOIDSSfmC2o8yBWC6tUsoruR0vaBs4++IlAPMZJn+CTQJhQ9YDvoDwISurZy81aHBd1H+/ftWqV68BnkOIcwavn5ZEjx49MJzAMYKQ42n/gYPVyDHj1KSbG1V6RoYmoHdGlppWOND1j2dUF2VRB3UBg57zFG2a3inoocCRl0Me6wvQBNq8aAYvqE57hiw9qeOgvilBr984yEkN5+UNVPMXnoz5P2vOM6q65naVnd1X10Fd7C9YljUYQpFS3sD3Gwg2UtNo2TgnolBkWGF1prZB/WzSXPsfeTyj+ijL1yiARe+M9Jt4uGTn5KvqmiVq9pxnY9IJHvTKG6Dhw9HBi3fmM69JXau9ON9tVvD6PXtxRFXLzMyJiyQJq2Xey2pY6QxXj3EOyVSbh2XS0yOTY1G/AQo6PjEW+w+8lzT3L9YCQZ4YjTIoS/UAA7D0e9YGnnnhgh4xrLRRAXeiI16akZGt4SPinRfvzGdRaq8TGccGhEWKn2htfGMKxLTMe8kXwiBm1Oi7XEIhBlFaP2GNmjI5YknG86bmBZqxYLDZS07XNij8x+sdgEFtIEUb9eNXu57x95YVVqPHtPqmq3nuiy5YfhQkLMKNUIT2wtDlswrTyeRZC9S2p07ElDC8vzny0xv2+EYcQhk+Yq6rPsGqq12q7l7/idqw7mM1eLDbY+SRJw5roZi9hOpTavYO1KV3SAEbbaCt2rF3ut5RueEj5gWiadr0x1xw7tv3fEz+wSwF8xR3LES7l3rptB4I6GX6PRFSCBiGPXTTuAgvRSqDNMiXBIHMW3BC9ekTGV4Ao6BgqFq/9gObSWDUsqWnVFZWxEKaf32ha89l+szIPMZxQR7vaKjCPg3qUhnABGy0gX+0WVAwRL9Hud59itW8BccDCWTU6OUaBoY6M14LeAhDrWEq0XUQa9g2LjqT6hXckEfIUwpJmuZ3HuqiZMiUQMhDKBAiwUc6t3m/ZhIxq2GaeyduasMszehx9VNc9TksvCOBoA5/B5gEn9KW5v2uMkE/MNBTUhJZm+FcIp8rcPLK7A0cJxguPR0vnHCsiAAaFSTG3KBC1AUCmtd7UGCBYIKn+rm5BWrDuo+iGAWGDSlxxxLZuvugOvOTnyu+Kp6UV6jwT/DwDmVQlp4hBSwSAk/RNnCgspjIweQg/9A2qT6WBSSQ7zeoIrCpDHiMzUBf4Wth8/HcwmXzyuLV92oE0EWbZrUFIqBP38gwUVkxx5NRYFrrXWdUdnbERta7T1/Vui7SNgjcW1xj/zNi7TIoS88AA7C4IHi+smK2Ltu375BAtDTOPOhSVLDvQQLBXEw4IHV83OqSsquZTg58nQLPPN5QVfXiQERkZ0cc6SaMXxWTUWDazMadrra47eyGrFx1rHSc/V/cM3Jqi5cBnoDBBWDmgQPRA9yC9I7KqohzNT5OHgkCBluCm7STA19Bc/MBDuOQ5JEOLInsU/fNHxqICH4yt7FhW1xmgXllpZE9fEagWlgwWAtkQb73ahx1TQGYv4EDwQVuQQTSp0+Jrjt46I0uHhnnRZLymuTy6MEd5XCIk0c2aLkjosfjy2iYsc83IUQ80qYEXy+Yt7L1nMrNjY6Zta94pBYIhi4OF3nUQV1TAOZv4MDr+hXItAb36p9vYaTKUQ6xsTSyfHzc/dIZxcPjQdPwSwiH6UcgYOCc2W7i8zOy1FFnuMKwhXwfYwWOOibzvX4nK5DikomaNziow8M4gVecTpyxcX3tyf7g/llllaNcXZKb4sPhDDVz9tO+hMIR9SsQMHLEcHe0nWWFQ3QPWVoYURQAH2W9mO/1LBmBzJz1lALNRAvCDPIhvawysn0cCoWOJcv/qHqWZU2mRjFZ4tgWNYzz6PQOaWlZU0oFsnrlOyqvV+SUb08rrPYXj1T7S0aqnixiBMqgrBfzvZ4lI5DSskYX7QjCRnyB0mMoFhOjGJvsA+fAjo6tWz+jWTcMBErZl4AvpqEx8VzChRikh4CZc1sOuNTM0uxealh2ZFWP+QxlvBgf61lQgWC+5L0DUY5IGEhTemAHgpRSbiQmfn+kLRLka8sTL7kYVFRUmbCXECykQQUCptZUR8zwHBbyNdXzAgkD8IIKpLCoQvcO9ATwgAQC317wiPAK6tfsq+PgSDR3gzHt/XzlDkRq69bGFQohizQZgaxZ9Z5t/+JwkIddCu9i9YRYz4MIBLTxds3gCTc338Lfp+bQp9NLdhEi0Cj4XIKvgofTyMzMVTOaDsQUCsFBmoxAwNgVrWftibtnVi+F/+HDG32puF5C8SsQ0IQ9IMIfNip+ABZzh3EseqevLz6ZQk6cE+0UYS4Ub10VOTUFhLFgmjv/iKdQiKD2CMSLsck+8yMQ0GJaqU2HOOM8SGoDBzi9REcDAjMThdaIZQnubgLBlkFxSeS8C/BHgGeaN5CaoTVSFVbE1Zmcg/PaGmyOn1jJFxT1110aiEM9NBeM3U0gN5ZHjI/AvXDAYJfVAgIxgs98law/movhiX44sRf1YUyEJOJfCfKINJeVHdlfBgEVlQtdQulOAhlR4dboYoVnQqgqRlfnhGfiAcxwoNHcGSPhrN2+PyqaHLZF0fXRWxjiSU/qyc4XXvW85hDgWj7cvTOJCXvDziejPkLQ7RHALLXRgMwQf4l8j7BlyW1dEMKgweNUy7wjXV4gwHHQIFcABJuWRHEXOzXEnxkEM1bMdOolSOF9wU3tEErf/IjZHr+TVXu9vvRkn5k9xMQRPcNPaFyPIJgdZzIx5xN+dAFRCjjj4+VXb90bNad09SGL44c5I1acRS+6EUKX1T9t8rFDfiMYMGvEviPEC5lYz3BqyCP0n434jIatgVfWyfaEWPUapruDrxGtdiBltnUdiz7+3AxVlZJAygggQ0gixYqUI+Enj0nPDAEIWPBUrKpsVncx95xYjOvo52gTbXNvSaKzpm5ilGrrh04z1Hg4HE7vkF7BgZjB+BFwPtlg/DiHgmjRRDilYAocHu5c8krKe8wdS06qihGzXBZbwgPmEIQr5MfA/QgCZcATvlrHkYqUrUfM6ypwNUMySANxXD0El32YyokRPC0qKrddPTuy1wAW3EeLCl3n53X7wAU4IRibXwHwcuAFostxOtobo4t3iqg8eokZaq8jLnTBLiQngufBJDCwqrJFTbv5fnXbrS+5PBxjDWHwSFx8y4t2naqqFlVYWBZT+GgP1zD5CZ3OBWDmzQtdLp2HPxf0CHYU0xM9aM+VR9DR1++IhJXlBMEXFsFtzHULFw7lMbTBsS0/v0QN6F9pO8DBCQ55PMM7rzmB6lMKdRzbrua9UoQXrmeCOaTLXnlEwnKuEtIHfUCg56VgbcEvBYNPE7xZBhYPjdlriKHJprgUbP6y9a4gMSQEpNhWMJUPbDh5XQr2zNufmbuDcIbrvEvBSChe1+ZhMoOGAbXP0MWjmIuFFja5uFMZZwry8GqBhyQYEUtl9iOUvtcXOdfmbfEMT0jtYk8Hm0vGfkYU7liD4Y4Q0GrcpoOynX9tHgkFF0uaN7bFYRAMklHXC+HLwx493+wiBpkprrmDUwU88mfdulzhsnsMKRAY/pHHUQqct0cZRJzwc7EkGAszUAxBAGdtTI1DH3rGr+5iSRJKSq5ejXNFnSmkZH/DiQ0nYDGZe2l6zhG7QFev4qAo8eVXmjra10P8GLNz5mSil1Oxsz+P7WDPo8bwkIQLJrwA4aycrGrNhQUYsBbgTB+GGe6EYHz12APf4RX8GLTAnmecp0F53F4XKKBNpwjMOVzv+/puEN0Z13cjPFKMmFV8frCv7/Z7QxwujcRV5Slb9HWKxGI0gq/L+fJw2Txnks5j9Wye5OI9IFYeYZHMqDu8DbrgHr08BnqX92OEUkX0TucwqnaoABPNELWxhMCfm/61OBLgwEYbHeNre7mIzAmupoM443weZ7affMmNEYc2HJYBzMuFfymhU0pZx4cYbAD5EQTKmKeXcCosJUheTkCdXqLDXOA4sV+BYE3ChPkVQj1dTrxLGa1OpFSbud9P7omj3iEAgjGZBwpTmzJifgiAnfB6+mvHXIKQFDD6YW9l2T0P23v3yGOdgbAW5nnwZMMM/hD4lxIapJT72PCjhePnGUI+pQSpyxkobkswVsh+hYKbdTrsTvbLWQZRtCP0hHPJY5uUEndcvSOEuCilxCr7a+TxzPGOaUPsEB2uIgpa13zwf6iukMnPHyECAAAAAElFTkSuQmCC;" vertex="1" parent="1">
          <mxGeometry x="1313.1399999999999" y="1230" width="44" height="44" as="geometry" />
        </mxCell>
        <mxCell id="zGswEQUEo45fGF-Yw32O-50" value="" style="shape=flexArrow;endArrow=classic;html=1;rounded=0;fillColor=#bac8d3;strokeColor=#23445d;width=5.714285714285714;endSize=4.451428571428571;endWidth=6.448979591836734;" edge="1" parent="1">
          <mxGeometry width="50" height="50" relative="1" as="geometry">
            <mxPoint x="1285.64" y="1273.0000000000002" as="sourcePoint" />
            <mxPoint x="1174.0300000000002" y="1273.4300000000003" as="targetPoint" />
          </mxGeometry>
        </mxCell>
        <mxCell id="zGswEQUEo45fGF-Yw32O-51" value="Ask question" style="text;html=1;align=center;verticalAlign=middle;whiteSpace=wrap;rounded=0;" vertex="1" parent="1">
          <mxGeometry x="1170.81" y="1227" width="117.61" height="20" as="geometry" />
        </mxCell>
        <mxCell id="zGswEQUEo45fGF-Yw32O-52" value="" style="shape=flexArrow;endArrow=classic;html=1;rounded=0;fillColor=#bac8d3;strokeColor=#23445d;width=5.714285714285714;endSize=4.451428571428571;endWidth=6.448979591836734;" edge="1" parent="1">
          <mxGeometry width="50" height="50" relative="1" as="geometry">
            <mxPoint x="1178.39" y="1250.4300000000003" as="sourcePoint" />
            <mxPoint x="1290" y="1250.0000000000002" as="targetPoint" />
          </mxGeometry>
        </mxCell>
        <mxCell id="zGswEQUEo45fGF-Yw32O-53" value="Answer question" style="text;html=1;align=center;verticalAlign=middle;whiteSpace=wrap;rounded=0;" vertex="1" parent="1">
          <mxGeometry x="1172.3899999999999" y="1283" width="117.61" height="20" as="geometry" />
        </mxCell>
        <mxCell id="zGswEQUEo45fGF-Yw32O-54" value="Baseline Response Agent" style="text;html=1;align=center;verticalAlign=middle;whiteSpace=wrap;rounded=0;fontStyle=1" vertex="1" parent="1">
          <mxGeometry x="1301.21" y="1280" width="75" height="30" as="geometry" />
        </mxCell>
        <mxCell id="zGswEQUEo45fGF-Yw32O-55" value="" style="shape=curlyBracket;whiteSpace=wrap;html=1;rounded=1;flipH=1;labelPosition=right;verticalLabelPosition=middle;align=left;verticalAlign=middle;rotation=90;fontStyle=1;direction=south;" vertex="1" parent="1">
          <mxGeometry x="1338.11" y="1270.76" width="92.78" height="20" as="geometry" />
        </mxCell>
        <mxCell id="zGswEQUEo45fGF-Yw32O-56" value="Five Rounds of Continuous Dialogue" style="text;html=1;align=center;verticalAlign=middle;whiteSpace=wrap;rounded=0;" vertex="1" parent="1">
          <mxGeometry x="1400.1799999999998" y="1274.62" width="117.61" height="20" as="geometry" />
        </mxCell>
        <mxCell id="zGswEQUEo45fGF-Yw32O-57" value="Complete Dialogue Transcripts" style="text;html=1;align=center;verticalAlign=middle;whiteSpace=wrap;rounded=0;fontStyle=1" vertex="1" parent="1">
          <mxGeometry x="1250.93" y="1324.5" width="75" height="30" as="geometry" />
        </mxCell>
        <mxCell id="zGswEQUEo45fGF-Yw32O-58" value="" style="shape=flexArrow;endArrow=classic;html=1;rounded=0;fillColor=#bac8d3;strokeColor=#23445d;" edge="1" parent="1">
          <mxGeometry width="50" height="50" relative="1" as="geometry">
            <mxPoint x="1230.56" y="1315.88" as="sourcePoint" />
            <mxPoint x="1230.95" y="1370.1100000000001" as="targetPoint" />
          </mxGeometry>
        </mxCell>
        <mxCell id="zGswEQUEo45fGF-Yw32O-59" value="" style="shape=image;verticalLabelPosition=bottom;labelBackgroundColor=default;verticalAlign=top;aspect=fixed;imageAspect=0;image=data:image/png,iVBORw0KGgoAAAANSUhEUgAAAGQAAABkCAYAAABw4pVUAAAAAXNSR0IArs4c6QAAGlRJREFUeAHtXWl0VcWW5kcPa/U8j3b36sG3uu1u2+54q87NQBIJkJgwmgCJgUxMCUKYhJAwJIyKoiBhBkFUVEBAEQHBKIojowMqyKBP+znj8z3t9bT1VfMdz667T91z7z3nJjcvkc5aWVX3nKpdezhVtWvXrl09enSjv5ycnN+RUs4IhUJPSSnfsizrXSHERSHE/zr/F/FMSnnaKTMDdboRid0H1VAo9DdCiLellCrIv1Pniu5DaTfBNBQKPRFEEEbZJ7sJmd0DTcuyJGfw0PIq1bxklVqw/G51+7otavm9O+1/5BfctcF+N3R4tasnhcNh0T2o7QZYSik3kEByruulnjz1gTp87qdx/9ve+FChLNWzLGt9NyC166OYkZHxu0KInxNjp8xeGFcQXFBTZi3UApFSfiml/L2uT3EXx1BKWUfCQPrQk8d8C2Tb0ye5QJRlWbVdnNyujZ6j5p4kgQwpr/QtDOopmG+ovpTy5P+rwQFlHg6H/52tNb5hzFR33L01sEDu3LiNCwT5b5w1SsO11177bwHRuzyKSyn/XAgxSUp5gguA5zFBt73xUWCBoA6f3DlM5IUQx6WUE4HDD47b6enpfyalTEtPT/9HP8RJKa8KhUJ3X+oRX5uM4r975xeoVQ/uCSwMGrZQFzA4TI88cNhgWda/+MEd5aSUmaDZT/lOLeMIYpuU8jtG6FtSynovzSYUCv1rKBR6REr5S1ZeMywzK0tV1darha0bFSbmZ89+nrQwSCiAAViLVmxSVbUTFNrwatuhYSc+FpOJaWlpv+/0ptOsLmgG7V2jhwkh/l4IcYYh6CLUUVnXYLwOh8N/JKVcBruTWT4cDiss5sCw/a/8uN0CIEHESg++/hO1dNN2W/BWOOzCGbg5OK5xPrYrhRC3XPrAPjfxZr/PCyF+ZAqxU3+Hw+H/lFJ+wJCKIoy9Q2/AWsBVJj0jU9XPaFG7nn8joRAeP3pebXz0aXt1PmvxcjVp5nw1ftosNbr+ZjWmfpoNB2uP5iUr1bJN29XmPYfVE6+8lxAu2gYOwMXEz8HZsyebZYUQH1qW9V+dKgRqLBQK9ZRSfsGRqhh9k9p5+HW14v5HVWlFjRdx+hmInzZ3sXr86LmYDHvsyFl1y6p7VM24SSqvT76uy9v0k7++30BbYLeve0ABZqxeA1yAUwzB6PaHjahWrfc/YtNaOWa8fu7g8kU4HM4mPnVKKqW82uy+dVMa1aEzn7qIxSIOX15Wz54upMtrxqqHn3nFVZaY9OiLp217FNYPlmW56vlhvp8yg4eU2XawvccveOKAHoNex2FBSHh2/74XXHWeffuimtAwx1VWCPGzTusp0KDQNTmy+KriTbz7T76r5i5dq266eaZav+OAiyASxENPHlWjxk9RmEs4bK+8EOIXUsrzUJOFEE9DQcA/8s6zC4k0N8ANh9NtJj948IgnTht2HrRxBu6ggXA1U9AOHnBcwaNwOPxPKe0hmOCEEGd5w0DERDDI73sff06NGDXORQyHD03MsqyXpZS3SSnLoRzk5OT8WiJC09LSft1ZZJajrgMj5lwwfGSteuDAy+2ixUMo4FXqtC/LsrZyZo2b2hS3Z8QTzL4T76ixkxpiCeI7Z/+jLhwO/3Ui5vt9L6W8Qko5Tkp5wFDRbTzQO0ETlId4uMd6h55SN7XJpGmbX/wClXPUP73OwGRmzhmxEDWfY9K/Lq+PiThUTQxFm8Ph8D8HQi6JwqFQ6B+ggkspv+IfGfI5udfZmpyJt5/f4AmUGwbzO/AuCRTjV8GqlDWidjz7WuCvCOuLitGewxOY0iKE+OP4WHT827S0tD+RUs4VQvwPpw/5kTdNVgdefT8wneANh2VZVkaHY46vljcCtc/PF0NloLn0G1TsQhTwLMvajcVlhyMcEKDTYx7jNCJf2H+QvcInOvykGAE4nJQtGPmKHLq4H+RQ5u5dbV4Gvg+EEEUB+Zby4pe0tAFCiI84Q7N6Zts0+KWXr8HAs5Qh7dhxtPT9aCVYMUO95ARKKQ9nZGT8VcoQbSdgZ/J/geOMdcjKBx5L+BFi7cXrwZ7XTnRiV8d2Kl+dw2wR76tZs3VflDAsy1oOlTR2K13jzVVXXfUbQoiVnLmwea3YsjsuzeAJ1YEdDwbJlFIkpVxBDeKrgfrqJZTNjz2rMjKjLKpTUopcCoBbljWd6EUKmjc+8pQnzVg8Glbk1hSg5Abp7APoBRZWsaZAHmo7prJzcvWX4hDU7YRBlJtC6Zmdo7Yfijb9zFu2jtOMBa2vvRVqJ6k0KyvrT7nuDnMIFwisq/mF/ThiyE9NqrEuVElK2cB7StHAG9SB1/7bRTt4wcp8CZU65SRYlrWKNapg7yGBYKWKjSX+HuNwKpBybGo1mJOklFvw7+Sr/e5YBsVLSrmG04Z1CtGOFLzg7zG8B20jUHnsovHNJey8cYTu2PCQCyEhxIuYHAM1kqCwZVkFUspnDMJd7To7kYfC4XB+AnCBXhcUFPymYxPT7UGL5DyoGjtBvxNCfJtSRwos4ogRmNz4phImd+5MIIT4GA7SgSiOUzgzM/MPpZTYWtUE+8lblrUDdeOADvQqLS3tby/Zwz6htkEz39PZ9dwpleHe6NoVqAG/hbEPzvfAp8+7zfVlYOVOSDrpmx1lCklPT/8708qMNmAMLBlWpmrHT7L/kfcy38MDHoz0S2u8co6p5U1OKwySvJdMa7mV8+K7lEzuUsp7CAn0Dv5VAJm9x86rvgWFHBHkj7ZXD4dQuYUAOPTK661a121Wr1/4VL3/hXL9v3b+E7V87T3qul55Ji6nsacfj9mJ3l1zzTV/4LgNuWDjI4BmSULZc/Scq5fAsyYR7EDvQ6HQX8DBjAQyqWmebpyQeO7cT9WJcx+r6lG1LmTbi0woFNpO7SKtGjVWvfHjz11CMIWC36fevaiqRo5x4YLtg0CEG4Uty9rEceF57KcQL5Aau4hwMeq4fREp5RRqHF/DIy+86WocCJx4/yubSRc++VrVjK7jjIA+npS1UwjRl9pFCmG88+k3CYVBAkJZUyhSyt4Gn339xD45H7JHVI1ULYuWcDpdvQS+BXwLGo6AvhryU0gI8Qoxprx6TJQwIJALn32rGfX6O5+pvN6u/Y59ftoxyzhbsjbRGKb89AwSBqXoKXz4AkyzHT+/hRB7iQeABxoxZPKVee3kGS7eGEbG437aSVhGCPEfhAhS078Wm/47Dx3XwiBGLF+7WX89UJWDLpIcA5+2CAAewQ6aYk5hNPwy6C4khhuu7gMe4TBnfmQvPT09w2VKgpcLa1d1iApsWVYTAcXXwFent629Xze4ZcdejSSQxZfJNR4hxIiE0mcFpJTV1C7geE3gxJREKSZ6jotlWZWsqYRZ4M5xATxq89hb77uGpkUrN+leAl7xHoTVfsLGEhWQUh4iZKrr6nVjGKYGDSnVApnZskgjScgWD428tyyrOVFb/L2U8nZqF+oswUw25bhIKRfzthLlsZsZD5fyisjxueLS4S4ecb+tZIdLjZ9jbtfaFdw8IQj8w3+KkER63/Y9UUzD+oDKBD1Shr11qjtmXH0U7KCCAQyCB21JE+kjw7UrL1zWbHpQw0YbUHuJTzjzSO06mmrwU1xwkMZpIxxwYcBcW5nomvQuPT1dvfX+F1FMq5swWZeBZ7kP2nURKeW9BN+LCe0RCNZUuiEfGSnlasIFH5nZtjkk4kwKCWRr23HOA+RPgre+1mc4qYov2csHF+783Blu9ISpuiGogCaS+D1k2I26DBwJfNCui2BYISZ0yJA1ZBjHZZFuyEdGCDE/ES7AkcpwbQs8651/vX5HZRwe4/iDjEIBNifHV8mrom2jMs9n8FX5LXe0RgkEKiqfSOHkFtVwnAeYeAl5wOETqZfw4z179dzHrolXSjk8TtNRry5ZCso4Ll7qd1Nz5IApfImphyDFLiNciwiGmTo+aN8HN3BOubq8EakC/GvR/cyTS3AkozJIH97zVJRATLU3qF0rLS3tL/lCjKua8Zjv9W7Z6o0cX/iWBVo1O+abb4lmL1w2b92t28CCkGujEErbqQ/VkvUPqpKyEbocwUMK89DVV1/92z2EEI38BayXcOnH4RYuZZ7ftPuQC+jLp951CQSLJr4Yk1Luj/rsfDzg0RsAD6q0F8PjPYO6nMvOq2OB56PpqCKggfiERarZY58/edbFExyF4DzjecwrOEph9hrsTEIgcFC2geHADA7c88peeb7gycjMVO9ejKzSbXPFqLEcOZhOosfJKJKjH1xSuXMJN6QwgwQ1nWB+4zCSPSqA+ZX3WJhxzn/8C/2BnPngS1c75j6JFx8RAME4JdzWA1F1COE5t69IKAwAblq0VDdeWNRfI4WvEYgSPCcNpNGYYuHaFuBBKH56CnCpqB7V0bhoVdzGZdRY14I1l80Tc+9c44uXs29r1TgKId6AQN4jBiJ2iJckzWfoblSnrLzCZhDGVXRleu6kR9LS0n7LZHKQ3zB5h0KhVzlcDF9ozxw2MHRhAsecwYcp1IU9zpeqGQc50GLuGIJmtAdcipkmN3X2Il+85OsUhJaCQPS5OQRvMZnv9RtqHTEIQ5ahTel3jv5eDMeIOHTGfIX9C2zDmnvZ1DbaBRPG3jRRYa1yQ8lQU5viuKwBrGR3Dx3njmLTp4DjAl7Qb5jfvXhnPlu85j5dRwjxGQSiV+J3bd7hCwg296lhn6l9vMCv66hlWf0syzrodWTAZ3vx8IOWtUsIkRXzS2AvgLOjXGjPfz844ESZyXyv3zh4SvDg/Z+UQMzjXgTQT+ooEVcymnUW7qWOIDSSfmC2o8yBWC6tUsoruR0vaBs4++IlAPMZJn+CTQJhQ9YDvoDwISurZy81aHBd1H+/ftWqV68BnkOIcwavn5ZEjx49MJzAMYKQ42n/gYPVyDHj1KSbG1V6RoYmoHdGlppWOND1j2dUF2VRB3UBg57zFG2a3inoocCRl0Me6wvQBNq8aAYvqE57hiw9qeOgvilBr984yEkN5+UNVPMXnoz5P2vOM6q65naVnd1X10Fd7C9YljUYQpFS3sD3Gwg2UtNo2TgnolBkWGF1prZB/WzSXPsfeTyj+ijL1yiARe+M9Jt4uGTn5KvqmiVq9pxnY9IJHvTKG6Dhw9HBi3fmM69JXau9ON9tVvD6PXtxRFXLzMyJiyQJq2Xey2pY6QxXj3EOyVSbh2XS0yOTY1G/AQo6PjEW+w+8lzT3L9YCQZ4YjTIoS/UAA7D0e9YGnnnhgh4xrLRRAXeiI16akZGt4SPinRfvzGdRaq8TGccGhEWKn2htfGMKxLTMe8kXwiBm1Oi7XEIhBlFaP2GNmjI5YknG86bmBZqxYLDZS07XNij8x+sdgEFtIEUb9eNXu57x95YVVqPHtPqmq3nuiy5YfhQkLMKNUIT2wtDlswrTyeRZC9S2p07ElDC8vzny0xv2+EYcQhk+Yq6rPsGqq12q7l7/idqw7mM1eLDbY+SRJw5roZi9hOpTavYO1KV3SAEbbaCt2rF3ut5RueEj5gWiadr0x1xw7tv3fEz+wSwF8xR3LES7l3rptB4I6GX6PRFSCBiGPXTTuAgvRSqDNMiXBIHMW3BC9ekTGV4Ao6BgqFq/9gObSWDUsqWnVFZWxEKaf32ha89l+szIPMZxQR7vaKjCPg3qUhnABGy0gX+0WVAwRL9Hud59itW8BccDCWTU6OUaBoY6M14LeAhDrWEq0XUQa9g2LjqT6hXckEfIUwpJmuZ3HuqiZMiUQMhDKBAiwUc6t3m/ZhIxq2GaeyduasMszehx9VNc9TksvCOBoA5/B5gEn9KW5v2uMkE/MNBTUhJZm+FcIp8rcPLK7A0cJxguPR0vnHCsiAAaFSTG3KBC1AUCmtd7UGCBYIKn+rm5BWrDuo+iGAWGDSlxxxLZuvugOvOTnyu+Kp6UV6jwT/DwDmVQlp4hBSwSAk/RNnCgspjIweQg/9A2qT6WBSSQ7zeoIrCpDHiMzUBf4Wth8/HcwmXzyuLV92oE0EWbZrUFIqBP38gwUVkxx5NRYFrrXWdUdnbERta7T1/Vui7SNgjcW1xj/zNi7TIoS88AA7C4IHi+smK2Ltu375BAtDTOPOhSVLDvQQLBXEw4IHV83OqSsquZTg58nQLPPN5QVfXiQERkZ0cc6SaMXxWTUWDazMadrra47eyGrFx1rHSc/V/cM3Jqi5cBnoDBBWDmgQPRA9yC9I7KqohzNT5OHgkCBluCm7STA19Bc/MBDuOQ5JEOLInsU/fNHxqICH4yt7FhW1xmgXllpZE9fEagWlgwWAtkQb73ahx1TQGYv4EDwQVuQQTSp0+Jrjt46I0uHhnnRZLymuTy6MEd5XCIk0c2aLkjosfjy2iYsc83IUQ80qYEXy+Yt7L1nMrNjY6Zta94pBYIhi4OF3nUQV1TAOZv4MDr+hXItAb36p9vYaTKUQ6xsTSyfHzc/dIZxcPjQdPwSwiH6UcgYOCc2W7i8zOy1FFnuMKwhXwfYwWOOibzvX4nK5DikomaNziow8M4gVecTpyxcX3tyf7g/llllaNcXZKb4sPhDDVz9tO+hMIR9SsQMHLEcHe0nWWFQ3QPWVoYURQAH2W9mO/1LBmBzJz1lALNRAvCDPIhvawysn0cCoWOJcv/qHqWZU2mRjFZ4tgWNYzz6PQOaWlZU0oFsnrlOyqvV+SUb08rrPYXj1T7S0aqnixiBMqgrBfzvZ4lI5DSskYX7QjCRnyB0mMoFhOjGJvsA+fAjo6tWz+jWTcMBErZl4AvpqEx8VzChRikh4CZc1sOuNTM0uxealh2ZFWP+QxlvBgf61lQgWC+5L0DUY5IGEhTemAHgpRSbiQmfn+kLRLka8sTL7kYVFRUmbCXECykQQUCptZUR8zwHBbyNdXzAgkD8IIKpLCoQvcO9ATwgAQC317wiPAK6tfsq+PgSDR3gzHt/XzlDkRq69bGFQohizQZgaxZ9Z5t/+JwkIddCu9i9YRYz4MIBLTxds3gCTc338Lfp+bQp9NLdhEi0Cj4XIKvgofTyMzMVTOaDsQUCsFBmoxAwNgVrWftibtnVi+F/+HDG32puF5C8SsQ0IQ9IMIfNip+ABZzh3EseqevLz6ZQk6cE+0UYS4Ub10VOTUFhLFgmjv/iKdQiKD2CMSLsck+8yMQ0GJaqU2HOOM8SGoDBzi9REcDAjMThdaIZQnubgLBlkFxSeS8C/BHgGeaN5CaoTVSFVbE1Zmcg/PaGmyOn1jJFxT1110aiEM9NBeM3U0gN5ZHjI/AvXDAYJfVAgIxgs98law/movhiX44sRf1YUyEJOJfCfKINJeVHdlfBgEVlQtdQulOAhlR4dboYoVnQqgqRlfnhGfiAcxwoNHcGSPhrN2+PyqaHLZF0fXRWxjiSU/qyc4XXvW85hDgWj7cvTOJCXvDziejPkLQ7RHALLXRgMwQf4l8j7BlyW1dEMKgweNUy7wjXV4gwHHQIFcABJuWRHEXOzXEnxkEM1bMdOolSOF9wU3tEErf/IjZHr+TVXu9vvRkn5k9xMQRPcNPaFyPIJgdZzIx5xN+dAFRCjjj4+VXb90bNad09SGL44c5I1acRS+6EUKX1T9t8rFDfiMYMGvEviPEC5lYz3BqyCP0n434jIatgVfWyfaEWPUapruDrxGtdiBltnUdiz7+3AxVlZJAygggQ0gixYqUI+Enj0nPDAEIWPBUrKpsVncx95xYjOvo52gTbXNvSaKzpm5ilGrrh04z1Hg4HE7vkF7BgZjB+BFwPtlg/DiHgmjRRDilYAocHu5c8krKe8wdS06qihGzXBZbwgPmEIQr5MfA/QgCZcATvlrHkYqUrUfM6ypwNUMySANxXD0El32YyokRPC0qKrddPTuy1wAW3EeLCl3n53X7wAU4IRibXwHwcuAFostxOtobo4t3iqg8eokZaq8jLnTBLiQngufBJDCwqrJFTbv5fnXbrS+5PBxjDWHwSFx8y4t2naqqFlVYWBZT+GgP1zD5CZ3OBWDmzQtdLp2HPxf0CHYU0xM9aM+VR9DR1++IhJXlBMEXFsFtzHULFw7lMbTBsS0/v0QN6F9pO8DBCQ55PMM7rzmB6lMKdRzbrua9UoQXrmeCOaTLXnlEwnKuEtIHfUCg56VgbcEvBYNPE7xZBhYPjdlriKHJprgUbP6y9a4gMSQEpNhWMJUPbDh5XQr2zNufmbuDcIbrvEvBSChe1+ZhMoOGAbXP0MWjmIuFFja5uFMZZwry8GqBhyQYEUtl9iOUvtcXOdfmbfEMT0jtYk8Hm0vGfkYU7liD4Y4Q0GrcpoOynX9tHgkFF0uaN7bFYRAMklHXC+HLwx493+wiBpkprrmDUwU88mfdulzhsnsMKRAY/pHHUQqct0cZRJzwc7EkGAszUAxBAGdtTI1DH3rGr+5iSRJKSq5ejXNFnSmkZH/DiQ0nYDGZe2l6zhG7QFev4qAo8eVXmjra10P8GLNz5mSil1Oxsz+P7WDPo8bwkIQLJrwA4aycrGrNhQUYsBbgTB+GGe6EYHz12APf4RX8GLTAnmecp0F53F4XKKBNpwjMOVzv+/puEN0Z13cjPFKMmFV8frCv7/Z7QxwujcRV5Slb9HWKxGI0gq/L+fJw2Txnks5j9Wye5OI9IFYeYZHMqDu8DbrgHr08BnqX92OEUkX0TucwqnaoABPNELWxhMCfm/61OBLgwEYbHeNre7mIzAmupoM443weZ7affMmNEYc2HJYBzMuFfymhU0pZx4cYbAD5EQTKmKeXcCosJUheTkCdXqLDXOA4sV+BYE3ChPkVQj1dTrxLGa1OpFSbud9P7omj3iEAgjGZBwpTmzJifgiAnfB6+mvHXIKQFDD6YW9l2T0P23v3yGOdgbAW5nnwZMMM/hD4lxIapJT72PCjhePnGUI+pQSpyxkobkswVsh+hYKbdTrsTvbLWQZRtCP0hHPJY5uUEndcvSOEuCilxCr7a+TxzPGOaUPsEB2uIgpa13zwf6iukMnPHyECAAAAAElFTkSuQmCC;" vertex="1" parent="1">
          <mxGeometry x="1186.8899999999999" y="1375" width="44" height="44" as="geometry" />
        </mxCell>
        <mxCell id="zGswEQUEo45fGF-Yw32O-60" value="RSTT" style="text;html=1;align=center;verticalAlign=middle;whiteSpace=wrap;rounded=0;fontStyle=1" vertex="1" parent="1">
          <mxGeometry x="1046.39" y="1525.52" width="75" height="30" as="geometry" />
        </mxCell>
        <mxCell id="zGswEQUEo45fGF-Yw32O-61" value="" style="rounded=1;whiteSpace=wrap;html=1;fillColor=#fad7ac;strokeColor=#b46504;" vertex="1" parent="1">
          <mxGeometry x="1300" y="1460" width="210" height="43.5" as="geometry" />
        </mxCell>
        <mxCell id="zGswEQUEo45fGF-Yw32O-62" value="&lt;font style=&quot;font-size: 10px;&quot;&gt;Likelihood of agent1 being human: (0 means no possibility, 0.5 means uncertain, 1 means human)&lt;/font&gt;" style="rounded=1;whiteSpace=wrap;html=1;fillColor=#fad7ac;strokeColor=#b46504;align=left;" vertex="1" parent="1">
          <mxGeometry x="1300" y="1510" width="210" height="45.52" as="geometry" />
        </mxCell>
        <mxCell id="zGswEQUEo45fGF-Yw32O-63" value="&lt;div style=&quot;forced-color-adjust: none; font-style: normal; font-variant-ligatures: normal; font-variant-caps: normal; font-weight: 400; letter-spacing: normal; orphans: 2; text-align: left; text-indent: 0px; text-transform: none; widows: 2; word-spacing: 0px; -webkit-text-stroke-width: 0px; text-decoration-thickness: initial; text-decoration-style: initial; text-decoration-color: initial;&quot;&gt;&lt;div style=&quot;&quot;&gt;&lt;div style=&quot;&quot;&gt;&lt;font style=&quot;font-size: 11px;&quot;&gt;Is agent1 more human-like than agent2?(0 means no, 1 means yes)&amp;nbsp;&lt;/font&gt;&lt;/div&gt;&lt;/div&gt;&lt;/div&gt;" style="text;whiteSpace=wrap;html=1;fontFamily=Helvetica;fontColor=#080808;labelBackgroundColor=none;fontSize=12;" vertex="1" parent="1">
          <mxGeometry x="1300" y="1461.5" width="206.36" height="47" as="geometry" />
        </mxCell>
        <mxCell id="zGswEQUEo45fGF-Yw32O-64" value="..." style="text;strokeColor=none;fillColor=none;html=1;fontSize=24;fontStyle=1;verticalAlign=middle;align=center;" vertex="1" parent="1">
          <mxGeometry x="1348.6799999999998" y="1590" width="100" height="40" as="geometry" />
        </mxCell>
        <mxCell id="zGswEQUEo45fGF-Yw32O-65" style="edgeStyle=orthogonalEdgeStyle;rounded=0;orthogonalLoop=1;jettySize=auto;html=1;entryX=0.5;entryY=0;entryDx=0;entryDy=0;" edge="1" parent="1" source="zGswEQUEo45fGF-Yw32O-66">
          <mxGeometry relative="1" as="geometry">
            <mxPoint x="1111.6899999999998" y="1575.75" as="targetPoint" />
          </mxGeometry>
        </mxCell>
        <mxCell id="zGswEQUEo45fGF-Yw32O-66" value="" style="shape=image;verticalLabelPosition=bottom;labelBackgroundColor=default;verticalAlign=top;aspect=fixed;imageAspect=0;image=data:image/png,iVBORw0KGgoAAAANSUhEUgAAAGQAAABkCAYAAABw4pVUAAAAAXNSR0IArs4c6QAAGlRJREFUeAHtXWl0VcWW5kcPa/U8j3b36sG3uu1u2+54q87NQBIJkJgwmgCJgUxMCUKYhJAwJIyKoiBhBkFUVEBAEQHBKIojowMqyKBP+znj8z3t9bT1VfMdz667T91z7z3nJjcvkc5aWVX3nKpdezhVtWvXrl09enSjv5ycnN+RUs4IhUJPSSnfsizrXSHERSHE/zr/F/FMSnnaKTMDdboRid0H1VAo9DdCiLellCrIv1Pniu5DaTfBNBQKPRFEEEbZJ7sJmd0DTcuyJGfw0PIq1bxklVqw/G51+7otavm9O+1/5BfctcF+N3R4tasnhcNh0T2o7QZYSik3kEByruulnjz1gTp87qdx/9ve+FChLNWzLGt9NyC166OYkZHxu0KInxNjp8xeGFcQXFBTZi3UApFSfiml/L2uT3EXx1BKWUfCQPrQk8d8C2Tb0ye5QJRlWbVdnNyujZ6j5p4kgQwpr/QtDOopmG+ovpTy5P+rwQFlHg6H/52tNb5hzFR33L01sEDu3LiNCwT5b5w1SsO11177bwHRuzyKSyn/XAgxSUp5gguA5zFBt73xUWCBoA6f3DlM5IUQx6WUE4HDD47b6enpfyalTEtPT/9HP8RJKa8KhUJ3X+oRX5uM4r975xeoVQ/uCSwMGrZQFzA4TI88cNhgWda/+MEd5aSUmaDZT/lOLeMIYpuU8jtG6FtSynovzSYUCv1rKBR6REr5S1ZeMywzK0tV1darha0bFSbmZ89+nrQwSCiAAViLVmxSVbUTFNrwatuhYSc+FpOJaWlpv+/0ptOsLmgG7V2jhwkh/l4IcYYh6CLUUVnXYLwOh8N/JKVcBruTWT4cDiss5sCw/a/8uN0CIEHESg++/hO1dNN2W/BWOOzCGbg5OK5xPrYrhRC3XPrAPjfxZr/PCyF+ZAqxU3+Hw+H/lFJ+wJCKIoy9Q2/AWsBVJj0jU9XPaFG7nn8joRAeP3pebXz0aXt1PmvxcjVp5nw1ftosNbr+ZjWmfpoNB2uP5iUr1bJN29XmPYfVE6+8lxAu2gYOwMXEz8HZsyebZYUQH1qW9V+dKgRqLBQK9ZRSfsGRqhh9k9p5+HW14v5HVWlFjRdx+hmInzZ3sXr86LmYDHvsyFl1y6p7VM24SSqvT76uy9v0k7++30BbYLeve0ABZqxeA1yAUwzB6PaHjahWrfc/YtNaOWa8fu7g8kU4HM4mPnVKKqW82uy+dVMa1aEzn7qIxSIOX15Wz54upMtrxqqHn3nFVZaY9OiLp217FNYPlmW56vlhvp8yg4eU2XawvccveOKAHoNex2FBSHh2/74XXHWeffuimtAwx1VWCPGzTusp0KDQNTmy+KriTbz7T76r5i5dq266eaZav+OAiyASxENPHlWjxk9RmEs4bK+8EOIXUsrzUJOFEE9DQcA/8s6zC4k0N8ANh9NtJj948IgnTht2HrRxBu6ggXA1U9AOHnBcwaNwOPxPKe0hmOCEEGd5w0DERDDI73sff06NGDXORQyHD03MsqyXpZS3SSnLoRzk5OT8WiJC09LSft1ZZJajrgMj5lwwfGSteuDAy+2ixUMo4FXqtC/LsrZyZo2b2hS3Z8QTzL4T76ixkxpiCeI7Z/+jLhwO/3Ui5vt9L6W8Qko5Tkp5wFDRbTzQO0ETlId4uMd6h55SN7XJpGmbX/wClXPUP73OwGRmzhmxEDWfY9K/Lq+PiThUTQxFm8Ph8D8HQi6JwqFQ6B+ggkspv+IfGfI5udfZmpyJt5/f4AmUGwbzO/AuCRTjV8GqlDWidjz7WuCvCOuLitGewxOY0iKE+OP4WHT827S0tD+RUs4VQvwPpw/5kTdNVgdefT8wneANh2VZVkaHY46vljcCtc/PF0NloLn0G1TsQhTwLMvajcVlhyMcEKDTYx7jNCJf2H+QvcInOvykGAE4nJQtGPmKHLq4H+RQ5u5dbV4Gvg+EEEUB+Zby4pe0tAFCiI84Q7N6Zts0+KWXr8HAs5Qh7dhxtPT9aCVYMUO95ARKKQ9nZGT8VcoQbSdgZ/J/geOMdcjKBx5L+BFi7cXrwZ7XTnRiV8d2Kl+dw2wR76tZs3VflDAsy1oOlTR2K13jzVVXXfUbQoiVnLmwea3YsjsuzeAJ1YEdDwbJlFIkpVxBDeKrgfrqJZTNjz2rMjKjLKpTUopcCoBbljWd6EUKmjc+8pQnzVg8Glbk1hSg5Abp7APoBRZWsaZAHmo7prJzcvWX4hDU7YRBlJtC6Zmdo7Yfijb9zFu2jtOMBa2vvRVqJ6k0KyvrT7nuDnMIFwisq/mF/ThiyE9NqrEuVElK2cB7StHAG9SB1/7bRTt4wcp8CZU65SRYlrWKNapg7yGBYKWKjSX+HuNwKpBybGo1mJOklFvw7+Sr/e5YBsVLSrmG04Z1CtGOFLzg7zG8B20jUHnsovHNJey8cYTu2PCQCyEhxIuYHAM1kqCwZVkFUspnDMJd7To7kYfC4XB+AnCBXhcUFPymYxPT7UGL5DyoGjtBvxNCfJtSRwos4ogRmNz4phImd+5MIIT4GA7SgSiOUzgzM/MPpZTYWtUE+8lblrUDdeOADvQqLS3tby/Zwz6htkEz39PZ9dwpleHe6NoVqAG/hbEPzvfAp8+7zfVlYOVOSDrpmx1lCklPT/8708qMNmAMLBlWpmrHT7L/kfcy38MDHoz0S2u8co6p5U1OKwySvJdMa7mV8+K7lEzuUsp7CAn0Dv5VAJm9x86rvgWFHBHkj7ZXD4dQuYUAOPTK661a121Wr1/4VL3/hXL9v3b+E7V87T3qul55Ji6nsacfj9mJ3l1zzTV/4LgNuWDjI4BmSULZc/Scq5fAsyYR7EDvQ6HQX8DBjAQyqWmebpyQeO7cT9WJcx+r6lG1LmTbi0woFNpO7SKtGjVWvfHjz11CMIWC36fevaiqRo5x4YLtg0CEG4Uty9rEceF57KcQL5Aau4hwMeq4fREp5RRqHF/DIy+86WocCJx4/yubSRc++VrVjK7jjIA+npS1UwjRl9pFCmG88+k3CYVBAkJZUyhSyt4Gn339xD45H7JHVI1ULYuWcDpdvQS+BXwLGo6AvhryU0gI8Qoxprx6TJQwIJALn32rGfX6O5+pvN6u/Y59ftoxyzhbsjbRGKb89AwSBqXoKXz4AkyzHT+/hRB7iQeABxoxZPKVee3kGS7eGEbG437aSVhGCPEfhAhS078Wm/47Dx3XwiBGLF+7WX89UJWDLpIcA5+2CAAewQ6aYk5hNPwy6C4khhuu7gMe4TBnfmQvPT09w2VKgpcLa1d1iApsWVYTAcXXwFent629Xze4ZcdejSSQxZfJNR4hxIiE0mcFpJTV1C7geE3gxJREKSZ6jotlWZWsqYRZ4M5xATxq89hb77uGpkUrN+leAl7xHoTVfsLGEhWQUh4iZKrr6nVjGKYGDSnVApnZskgjScgWD428tyyrOVFb/L2U8nZqF+oswUw25bhIKRfzthLlsZsZD5fyisjxueLS4S4ecb+tZIdLjZ9jbtfaFdw8IQj8w3+KkER63/Y9UUzD+oDKBD1Shr11qjtmXH0U7KCCAQyCB21JE+kjw7UrL1zWbHpQw0YbUHuJTzjzSO06mmrwU1xwkMZpIxxwYcBcW5nomvQuPT1dvfX+F1FMq5swWZeBZ7kP2nURKeW9BN+LCe0RCNZUuiEfGSnlasIFH5nZtjkk4kwKCWRr23HOA+RPgre+1mc4qYov2csHF+783Blu9ISpuiGogCaS+D1k2I26DBwJfNCui2BYISZ0yJA1ZBjHZZFuyEdGCDE/ES7AkcpwbQs8651/vX5HZRwe4/iDjEIBNifHV8mrom2jMs9n8FX5LXe0RgkEKiqfSOHkFtVwnAeYeAl5wOETqZfw4z179dzHrolXSjk8TtNRry5ZCso4Ll7qd1Nz5IApfImphyDFLiNciwiGmTo+aN8HN3BOubq8EakC/GvR/cyTS3AkozJIH97zVJRATLU3qF0rLS3tL/lCjKua8Zjv9W7Z6o0cX/iWBVo1O+abb4lmL1w2b92t28CCkGujEErbqQ/VkvUPqpKyEbocwUMK89DVV1/92z2EEI38BayXcOnH4RYuZZ7ftPuQC+jLp951CQSLJr4Yk1Luj/rsfDzg0RsAD6q0F8PjPYO6nMvOq2OB56PpqCKggfiERarZY58/edbFExyF4DzjecwrOEph9hrsTEIgcFC2geHADA7c88peeb7gycjMVO9ejKzSbXPFqLEcOZhOosfJKJKjH1xSuXMJN6QwgwQ1nWB+4zCSPSqA+ZX3WJhxzn/8C/2BnPngS1c75j6JFx8RAME4JdzWA1F1COE5t69IKAwAblq0VDdeWNRfI4WvEYgSPCcNpNGYYuHaFuBBKH56CnCpqB7V0bhoVdzGZdRY14I1l80Tc+9c44uXs29r1TgKId6AQN4jBiJ2iJckzWfoblSnrLzCZhDGVXRleu6kR9LS0n7LZHKQ3zB5h0KhVzlcDF9ozxw2MHRhAsecwYcp1IU9zpeqGQc50GLuGIJmtAdcipkmN3X2Il+85OsUhJaCQPS5OQRvMZnv9RtqHTEIQ5ahTel3jv5eDMeIOHTGfIX9C2zDmnvZ1DbaBRPG3jRRYa1yQ8lQU5viuKwBrGR3Dx3njmLTp4DjAl7Qb5jfvXhnPlu85j5dRwjxGQSiV+J3bd7hCwg296lhn6l9vMCv66hlWf0syzrodWTAZ3vx8IOWtUsIkRXzS2AvgLOjXGjPfz844ESZyXyv3zh4SvDg/Z+UQMzjXgTQT+ooEVcymnUW7qWOIDSSfmC2o8yBWC6tUsoruR0vaBs4++IlAPMZJn+CTQJhQ9YDvoDwISurZy81aHBd1H+/ftWqV68BnkOIcwavn5ZEjx49MJzAMYKQ42n/gYPVyDHj1KSbG1V6RoYmoHdGlppWOND1j2dUF2VRB3UBg57zFG2a3inoocCRl0Me6wvQBNq8aAYvqE57hiw9qeOgvilBr984yEkN5+UNVPMXnoz5P2vOM6q65naVnd1X10Fd7C9YljUYQpFS3sD3Gwg2UtNo2TgnolBkWGF1prZB/WzSXPsfeTyj+ijL1yiARe+M9Jt4uGTn5KvqmiVq9pxnY9IJHvTKG6Dhw9HBi3fmM69JXau9ON9tVvD6PXtxRFXLzMyJiyQJq2Xey2pY6QxXj3EOyVSbh2XS0yOTY1G/AQo6PjEW+w+8lzT3L9YCQZ4YjTIoS/UAA7D0e9YGnnnhgh4xrLRRAXeiI16akZGt4SPinRfvzGdRaq8TGccGhEWKn2htfGMKxLTMe8kXwiBm1Oi7XEIhBlFaP2GNmjI5YknG86bmBZqxYLDZS07XNij8x+sdgEFtIEUb9eNXu57x95YVVqPHtPqmq3nuiy5YfhQkLMKNUIT2wtDlswrTyeRZC9S2p07ElDC8vzny0xv2+EYcQhk+Yq6rPsGqq12q7l7/idqw7mM1eLDbY+SRJw5roZi9hOpTavYO1KV3SAEbbaCt2rF3ut5RueEj5gWiadr0x1xw7tv3fEz+wSwF8xR3LES7l3rptB4I6GX6PRFSCBiGPXTTuAgvRSqDNMiXBIHMW3BC9ekTGV4Ao6BgqFq/9gObSWDUsqWnVFZWxEKaf32ha89l+szIPMZxQR7vaKjCPg3qUhnABGy0gX+0WVAwRL9Hud59itW8BccDCWTU6OUaBoY6M14LeAhDrWEq0XUQa9g2LjqT6hXckEfIUwpJmuZ3HuqiZMiUQMhDKBAiwUc6t3m/ZhIxq2GaeyduasMszehx9VNc9TksvCOBoA5/B5gEn9KW5v2uMkE/MNBTUhJZm+FcIp8rcPLK7A0cJxguPR0vnHCsiAAaFSTG3KBC1AUCmtd7UGCBYIKn+rm5BWrDuo+iGAWGDSlxxxLZuvugOvOTnyu+Kp6UV6jwT/DwDmVQlp4hBSwSAk/RNnCgspjIweQg/9A2qT6WBSSQ7zeoIrCpDHiMzUBf4Wth8/HcwmXzyuLV92oE0EWbZrUFIqBP38gwUVkxx5NRYFrrXWdUdnbERta7T1/Vui7SNgjcW1xj/zNi7TIoS88AA7C4IHi+smK2Ltu375BAtDTOPOhSVLDvQQLBXEw4IHV83OqSsquZTg58nQLPPN5QVfXiQERkZ0cc6SaMXxWTUWDazMadrra47eyGrFx1rHSc/V/cM3Jqi5cBnoDBBWDmgQPRA9yC9I7KqohzNT5OHgkCBluCm7STA19Bc/MBDuOQ5JEOLInsU/fNHxqICH4yt7FhW1xmgXllpZE9fEagWlgwWAtkQb73ahx1TQGYv4EDwQVuQQTSp0+Jrjt46I0uHhnnRZLymuTy6MEd5XCIk0c2aLkjosfjy2iYsc83IUQ80qYEXy+Yt7L1nMrNjY6Zta94pBYIhi4OF3nUQV1TAOZv4MDr+hXItAb36p9vYaTKUQ6xsTSyfHzc/dIZxcPjQdPwSwiH6UcgYOCc2W7i8zOy1FFnuMKwhXwfYwWOOibzvX4nK5DikomaNziow8M4gVecTpyxcX3tyf7g/llllaNcXZKb4sPhDDVz9tO+hMIR9SsQMHLEcHe0nWWFQ3QPWVoYURQAH2W9mO/1LBmBzJz1lALNRAvCDPIhvawysn0cCoWOJcv/qHqWZU2mRjFZ4tgWNYzz6PQOaWlZU0oFsnrlOyqvV+SUb08rrPYXj1T7S0aqnixiBMqgrBfzvZ4lI5DSskYX7QjCRnyB0mMoFhOjGJvsA+fAjo6tWz+jWTcMBErZl4AvpqEx8VzChRikh4CZc1sOuNTM0uxealh2ZFWP+QxlvBgf61lQgWC+5L0DUY5IGEhTemAHgpRSbiQmfn+kLRLka8sTL7kYVFRUmbCXECykQQUCptZUR8zwHBbyNdXzAgkD8IIKpLCoQvcO9ATwgAQC317wiPAK6tfsq+PgSDR3gzHt/XzlDkRq69bGFQohizQZgaxZ9Z5t/+JwkIddCu9i9YRYz4MIBLTxds3gCTc338Lfp+bQp9NLdhEi0Cj4XIKvgofTyMzMVTOaDsQUCsFBmoxAwNgVrWftibtnVi+F/+HDG32puF5C8SsQ0IQ9IMIfNip+ABZzh3EseqevLz6ZQk6cE+0UYS4Ub10VOTUFhLFgmjv/iKdQiKD2CMSLsck+8yMQ0GJaqU2HOOM8SGoDBzi9REcDAjMThdaIZQnubgLBlkFxSeS8C/BHgGeaN5CaoTVSFVbE1Zmcg/PaGmyOn1jJFxT1110aiEM9NBeM3U0gN5ZHjI/AvXDAYJfVAgIxgs98law/movhiX44sRf1YUyEJOJfCfKINJeVHdlfBgEVlQtdQulOAhlR4dboYoVnQqgqRlfnhGfiAcxwoNHcGSPhrN2+PyqaHLZF0fXRWxjiSU/qyc4XXvW85hDgWj7cvTOJCXvDziejPkLQ7RHALLXRgMwQf4l8j7BlyW1dEMKgweNUy7wjXV4gwHHQIFcABJuWRHEXOzXEnxkEM1bMdOolSOF9wU3tEErf/IjZHr+TVXu9vvRkn5k9xMQRPcNPaFyPIJgdZzIx5xN+dAFRCjjj4+VXb90bNad09SGL44c5I1acRS+6EUKX1T9t8rFDfiMYMGvEviPEC5lYz3BqyCP0n434jIatgVfWyfaEWPUapruDrxGtdiBltnUdiz7+3AxVlZJAygggQ0gixYqUI+Enj0nPDAEIWPBUrKpsVncx95xYjOvo52gTbXNvSaKzpm5ilGrrh04z1Hg4HE7vkF7BgZjB+BFwPtlg/DiHgmjRRDilYAocHu5c8krKe8wdS06qihGzXBZbwgPmEIQr5MfA/QgCZcATvlrHkYqUrUfM6ypwNUMySANxXD0El32YyokRPC0qKrddPTuy1wAW3EeLCl3n53X7wAU4IRibXwHwcuAFostxOtobo4t3iqg8eokZaq8jLnTBLiQngufBJDCwqrJFTbv5fnXbrS+5PBxjDWHwSFx8y4t2naqqFlVYWBZT+GgP1zD5CZ3OBWDmzQtdLp2HPxf0CHYU0xM9aM+VR9DR1++IhJXlBMEXFsFtzHULFw7lMbTBsS0/v0QN6F9pO8DBCQ55PMM7rzmB6lMKdRzbrua9UoQXrmeCOaTLXnlEwnKuEtIHfUCg56VgbcEvBYNPE7xZBhYPjdlriKHJprgUbP6y9a4gMSQEpNhWMJUPbDh5XQr2zNufmbuDcIbrvEvBSChe1+ZhMoOGAbXP0MWjmIuFFja5uFMZZwry8GqBhyQYEUtl9iOUvtcXOdfmbfEMT0jtYk8Hm0vGfkYU7liD4Y4Q0GrcpoOynX9tHgkFF0uaN7bFYRAMklHXC+HLwx493+wiBpkprrmDUwU88mfdulzhsnsMKRAY/pHHUQqct0cZRJzwc7EkGAszUAxBAGdtTI1DH3rGr+5iSRJKSq5ejXNFnSmkZH/DiQ0nYDGZe2l6zhG7QFev4qAo8eVXmjra10P8GLNz5mSil1Oxsz+P7WDPo8bwkIQLJrwA4aycrGrNhQUYsBbgTB+GGe6EYHz12APf4RX8GLTAnmecp0F53F4XKKBNpwjMOVzv+/puEN0Z13cjPFKMmFV8frCv7/Z7QxwujcRV5Slb9HWKxGI0gq/L+fJw2Txnks5j9Wye5OI9IFYeYZHMqDu8DbrgHr08BnqX92OEUkX0TucwqnaoABPNELWxhMCfm/61OBLgwEYbHeNre7mIzAmupoM443weZ7affMmNEYc2HJYBzMuFfymhU0pZx4cYbAD5EQTKmKeXcCosJUheTkCdXqLDXOA4sV+BYE3ChPkVQj1dTrxLGa1OpFSbud9P7omj3iEAgjGZBwpTmzJifgiAnfB6+mvHXIKQFDD6YW9l2T0P23v3yGOdgbAW5nnwZMMM/hD4lxIapJT72PCjhePnGUI+pQSpyxkobkswVsh+hYKbdTrsTvbLWQZRtCP0hHPJY5uUEndcvSOEuCilxCr7a+TxzPGOaUPsEB2uIgpa13zwf6iukMnPHyECAAAAAElFTkSuQmCC;" vertex="1" parent="1">
          <mxGeometry x="1089.6899999999998" y="1477.5" width="44" height="44" as="geometry" />
        </mxCell>
        <mxCell id="zGswEQUEo45fGF-Yw32O-67" value="Evaluation Agent" style="text;html=1;align=center;verticalAlign=middle;whiteSpace=wrap;rounded=0;fontStyle=1" vertex="1" parent="1">
          <mxGeometry x="1241" y="1382" width="75" height="30" as="geometry" />
        </mxCell>
        <mxCell id="zGswEQUEo45fGF-Yw32O-68" value="Dialogue Simulation Agent" style="text;html=1;align=center;verticalAlign=middle;whiteSpace=wrap;rounded=0;fontStyle=1" vertex="1" parent="1">
          <mxGeometry x="1081.89" y="1288.56" width="75" height="30" as="geometry" />
        </mxCell>
        <mxCell id="zGswEQUEo45fGF-Yw32O-69" value="" style="shape=image;verticalLabelPosition=bottom;labelBackgroundColor=default;verticalAlign=top;aspect=fixed;imageAspect=0;image=data:image/png,iVBORw0KGgoAAAANSUhEUgAAAGQAAABkCAYAAABw4pVUAAAAAXNSR0IArs4c6QAAGlRJREFUeAHtXWl0VcWW5kcPa/U8j3b36sG3uu1u2+54q87NQBIJkJgwmgCJgUxMCUKYhJAwJIyKoiBhBkFUVEBAEQHBKIojowMqyKBP+znj8z3t9bT1VfMdz667T91z7z3nJjcvkc5aWVX3nKpdezhVtWvXrl09enSjv5ycnN+RUs4IhUJPSSnfsizrXSHERSHE/zr/F/FMSnnaKTMDdboRid0H1VAo9DdCiLellCrIv1Pniu5DaTfBNBQKPRFEEEbZJ7sJmd0DTcuyJGfw0PIq1bxklVqw/G51+7otavm9O+1/5BfctcF+N3R4tasnhcNh0T2o7QZYSik3kEByruulnjz1gTp87qdx/9ve+FChLNWzLGt9NyC166OYkZHxu0KInxNjp8xeGFcQXFBTZi3UApFSfiml/L2uT3EXx1BKWUfCQPrQk8d8C2Tb0ye5QJRlWbVdnNyujZ6j5p4kgQwpr/QtDOopmG+ovpTy5P+rwQFlHg6H/52tNb5hzFR33L01sEDu3LiNCwT5b5w1SsO11177bwHRuzyKSyn/XAgxSUp5gguA5zFBt73xUWCBoA6f3DlM5IUQx6WUE4HDD47b6enpfyalTEtPT/9HP8RJKa8KhUJ3X+oRX5uM4r975xeoVQ/uCSwMGrZQFzA4TI88cNhgWda/+MEd5aSUmaDZT/lOLeMIYpuU8jtG6FtSynovzSYUCv1rKBR6REr5S1ZeMywzK0tV1darha0bFSbmZ89+nrQwSCiAAViLVmxSVbUTFNrwatuhYSc+FpOJaWlpv+/0ptOsLmgG7V2jhwkh/l4IcYYh6CLUUVnXYLwOh8N/JKVcBruTWT4cDiss5sCw/a/8uN0CIEHESg++/hO1dNN2W/BWOOzCGbg5OK5xPrYrhRC3XPrAPjfxZr/PCyF+ZAqxU3+Hw+H/lFJ+wJCKIoy9Q2/AWsBVJj0jU9XPaFG7nn8joRAeP3pebXz0aXt1PmvxcjVp5nw1ftosNbr+ZjWmfpoNB2uP5iUr1bJN29XmPYfVE6+8lxAu2gYOwMXEz8HZsyebZYUQH1qW9V+dKgRqLBQK9ZRSfsGRqhh9k9p5+HW14v5HVWlFjRdx+hmInzZ3sXr86LmYDHvsyFl1y6p7VM24SSqvT76uy9v0k7++30BbYLeve0ABZqxeA1yAUwzB6PaHjahWrfc/YtNaOWa8fu7g8kU4HM4mPnVKKqW82uy+dVMa1aEzn7qIxSIOX15Wz54upMtrxqqHn3nFVZaY9OiLp217FNYPlmW56vlhvp8yg4eU2XawvccveOKAHoNex2FBSHh2/74XXHWeffuimtAwx1VWCPGzTusp0KDQNTmy+KriTbz7T76r5i5dq266eaZav+OAiyASxENPHlWjxk9RmEs4bK+8EOIXUsrzUJOFEE9DQcA/8s6zC4k0N8ANh9NtJj948IgnTht2HrRxBu6ggXA1U9AOHnBcwaNwOPxPKe0hmOCEEGd5w0DERDDI73sff06NGDXORQyHD03MsqyXpZS3SSnLoRzk5OT8WiJC09LSft1ZZJajrgMj5lwwfGSteuDAy+2ixUMo4FXqtC/LsrZyZo2b2hS3Z8QTzL4T76ixkxpiCeI7Z/+jLhwO/3Ui5vt9L6W8Qko5Tkp5wFDRbTzQO0ETlId4uMd6h55SN7XJpGmbX/wClXPUP73OwGRmzhmxEDWfY9K/Lq+PiThUTQxFm8Ph8D8HQi6JwqFQ6B+ggkspv+IfGfI5udfZmpyJt5/f4AmUGwbzO/AuCRTjV8GqlDWidjz7WuCvCOuLitGewxOY0iKE+OP4WHT827S0tD+RUs4VQvwPpw/5kTdNVgdefT8wneANh2VZVkaHY46vljcCtc/PF0NloLn0G1TsQhTwLMvajcVlhyMcEKDTYx7jNCJf2H+QvcInOvykGAE4nJQtGPmKHLq4H+RQ5u5dbV4Gvg+EEEUB+Zby4pe0tAFCiI84Q7N6Zts0+KWXr8HAs5Qh7dhxtPT9aCVYMUO95ARKKQ9nZGT8VcoQbSdgZ/J/geOMdcjKBx5L+BFi7cXrwZ7XTnRiV8d2Kl+dw2wR76tZs3VflDAsy1oOlTR2K13jzVVXXfUbQoiVnLmwea3YsjsuzeAJ1YEdDwbJlFIkpVxBDeKrgfrqJZTNjz2rMjKjLKpTUopcCoBbljWd6EUKmjc+8pQnzVg8Glbk1hSg5Abp7APoBRZWsaZAHmo7prJzcvWX4hDU7YRBlJtC6Zmdo7Yfijb9zFu2jtOMBa2vvRVqJ6k0KyvrT7nuDnMIFwisq/mF/ThiyE9NqrEuVElK2cB7StHAG9SB1/7bRTt4wcp8CZU65SRYlrWKNapg7yGBYKWKjSX+HuNwKpBybGo1mJOklFvw7+Sr/e5YBsVLSrmG04Z1CtGOFLzg7zG8B20jUHnsovHNJey8cYTu2PCQCyEhxIuYHAM1kqCwZVkFUspnDMJd7To7kYfC4XB+AnCBXhcUFPymYxPT7UGL5DyoGjtBvxNCfJtSRwos4ogRmNz4phImd+5MIIT4GA7SgSiOUzgzM/MPpZTYWtUE+8lblrUDdeOADvQqLS3tby/Zwz6htkEz39PZ9dwpleHe6NoVqAG/hbEPzvfAp8+7zfVlYOVOSDrpmx1lCklPT/8708qMNmAMLBlWpmrHT7L/kfcy38MDHoz0S2u8co6p5U1OKwySvJdMa7mV8+K7lEzuUsp7CAn0Dv5VAJm9x86rvgWFHBHkj7ZXD4dQuYUAOPTK661a121Wr1/4VL3/hXL9v3b+E7V87T3qul55Ji6nsacfj9mJ3l1zzTV/4LgNuWDjI4BmSULZc/Scq5fAsyYR7EDvQ6HQX8DBjAQyqWmebpyQeO7cT9WJcx+r6lG1LmTbi0woFNpO7SKtGjVWvfHjz11CMIWC36fevaiqRo5x4YLtg0CEG4Uty9rEceF57KcQL5Aau4hwMeq4fREp5RRqHF/DIy+86WocCJx4/yubSRc++VrVjK7jjIA+npS1UwjRl9pFCmG88+k3CYVBAkJZUyhSyt4Gn339xD45H7JHVI1ULYuWcDpdvQS+BXwLGo6AvhryU0gI8Qoxprx6TJQwIJALn32rGfX6O5+pvN6u/Y59ftoxyzhbsjbRGKb89AwSBqXoKXz4AkyzHT+/hRB7iQeABxoxZPKVee3kGS7eGEbG437aSVhGCPEfhAhS078Wm/47Dx3XwiBGLF+7WX89UJWDLpIcA5+2CAAewQ6aYk5hNPwy6C4khhuu7gMe4TBnfmQvPT09w2VKgpcLa1d1iApsWVYTAcXXwFent629Xze4ZcdejSSQxZfJNR4hxIiE0mcFpJTV1C7geE3gxJREKSZ6jotlWZWsqYRZ4M5xATxq89hb77uGpkUrN+leAl7xHoTVfsLGEhWQUh4iZKrr6nVjGKYGDSnVApnZskgjScgWD428tyyrOVFb/L2U8nZqF+oswUw25bhIKRfzthLlsZsZD5fyisjxueLS4S4ecb+tZIdLjZ9jbtfaFdw8IQj8w3+KkER63/Y9UUzD+oDKBD1Shr11qjtmXH0U7KCCAQyCB21JE+kjw7UrL1zWbHpQw0YbUHuJTzjzSO06mmrwU1xwkMZpIxxwYcBcW5nomvQuPT1dvfX+F1FMq5swWZeBZ7kP2nURKeW9BN+LCe0RCNZUuiEfGSnlasIFH5nZtjkk4kwKCWRr23HOA+RPgre+1mc4qYov2csHF+783Blu9ISpuiGogCaS+D1k2I26DBwJfNCui2BYISZ0yJA1ZBjHZZFuyEdGCDE/ES7AkcpwbQs8651/vX5HZRwe4/iDjEIBNifHV8mrom2jMs9n8FX5LXe0RgkEKiqfSOHkFtVwnAeYeAl5wOETqZfw4z179dzHrolXSjk8TtNRry5ZCso4Ll7qd1Nz5IApfImphyDFLiNciwiGmTo+aN8HN3BOubq8EakC/GvR/cyTS3AkozJIH97zVJRATLU3qF0rLS3tL/lCjKua8Zjv9W7Z6o0cX/iWBVo1O+abb4lmL1w2b92t28CCkGujEErbqQ/VkvUPqpKyEbocwUMK89DVV1/92z2EEI38BayXcOnH4RYuZZ7ftPuQC+jLp951CQSLJr4Yk1Luj/rsfDzg0RsAD6q0F8PjPYO6nMvOq2OB56PpqCKggfiERarZY58/edbFExyF4DzjecwrOEph9hrsTEIgcFC2geHADA7c88peeb7gycjMVO9ejKzSbXPFqLEcOZhOosfJKJKjH1xSuXMJN6QwgwQ1nWB+4zCSPSqA+ZX3WJhxzn/8C/2BnPngS1c75j6JFx8RAME4JdzWA1F1COE5t69IKAwAblq0VDdeWNRfI4WvEYgSPCcNpNGYYuHaFuBBKH56CnCpqB7V0bhoVdzGZdRY14I1l80Tc+9c44uXs29r1TgKId6AQN4jBiJ2iJckzWfoblSnrLzCZhDGVXRleu6kR9LS0n7LZHKQ3zB5h0KhVzlcDF9ozxw2MHRhAsecwYcp1IU9zpeqGQc50GLuGIJmtAdcipkmN3X2Il+85OsUhJaCQPS5OQRvMZnv9RtqHTEIQ5ahTel3jv5eDMeIOHTGfIX9C2zDmnvZ1DbaBRPG3jRRYa1yQ8lQU5viuKwBrGR3Dx3njmLTp4DjAl7Qb5jfvXhnPlu85j5dRwjxGQSiV+J3bd7hCwg296lhn6l9vMCv66hlWf0syzrodWTAZ3vx8IOWtUsIkRXzS2AvgLOjXGjPfz844ESZyXyv3zh4SvDg/Z+UQMzjXgTQT+ooEVcymnUW7qWOIDSSfmC2o8yBWC6tUsoruR0vaBs4++IlAPMZJn+CTQJhQ9YDvoDwISurZy81aHBd1H+/ftWqV68BnkOIcwavn5ZEjx49MJzAMYKQ42n/gYPVyDHj1KSbG1V6RoYmoHdGlppWOND1j2dUF2VRB3UBg57zFG2a3inoocCRl0Me6wvQBNq8aAYvqE57hiw9qeOgvilBr984yEkN5+UNVPMXnoz5P2vOM6q65naVnd1X10Fd7C9YljUYQpFS3sD3Gwg2UtNo2TgnolBkWGF1prZB/WzSXPsfeTyj+ijL1yiARe+M9Jt4uGTn5KvqmiVq9pxnY9IJHvTKG6Dhw9HBi3fmM69JXau9ON9tVvD6PXtxRFXLzMyJiyQJq2Xey2pY6QxXj3EOyVSbh2XS0yOTY1G/AQo6PjEW+w+8lzT3L9YCQZ4YjTIoS/UAA7D0e9YGnnnhgh4xrLRRAXeiI16akZGt4SPinRfvzGdRaq8TGccGhEWKn2htfGMKxLTMe8kXwiBm1Oi7XEIhBlFaP2GNmjI5YknG86bmBZqxYLDZS07XNij8x+sdgEFtIEUb9eNXu57x95YVVqPHtPqmq3nuiy5YfhQkLMKNUIT2wtDlswrTyeRZC9S2p07ElDC8vzny0xv2+EYcQhk+Yq6rPsGqq12q7l7/idqw7mM1eLDbY+SRJw5roZi9hOpTavYO1KV3SAEbbaCt2rF3ut5RueEj5gWiadr0x1xw7tv3fEz+wSwF8xR3LES7l3rptB4I6GX6PRFSCBiGPXTTuAgvRSqDNMiXBIHMW3BC9ekTGV4Ao6BgqFq/9gObSWDUsqWnVFZWxEKaf32ha89l+szIPMZxQR7vaKjCPg3qUhnABGy0gX+0WVAwRL9Hud59itW8BccDCWTU6OUaBoY6M14LeAhDrWEq0XUQa9g2LjqT6hXckEfIUwpJmuZ3HuqiZMiUQMhDKBAiwUc6t3m/ZhIxq2GaeyduasMszehx9VNc9TksvCOBoA5/B5gEn9KW5v2uMkE/MNBTUhJZm+FcIp8rcPLK7A0cJxguPR0vnHCsiAAaFSTG3KBC1AUCmtd7UGCBYIKn+rm5BWrDuo+iGAWGDSlxxxLZuvugOvOTnyu+Kp6UV6jwT/DwDmVQlp4hBSwSAk/RNnCgspjIweQg/9A2qT6WBSSQ7zeoIrCpDHiMzUBf4Wth8/HcwmXzyuLV92oE0EWbZrUFIqBP38gwUVkxx5NRYFrrXWdUdnbERta7T1/Vui7SNgjcW1xj/zNi7TIoS88AA7C4IHi+smK2Ltu375BAtDTOPOhSVLDvQQLBXEw4IHV83OqSsquZTg58nQLPPN5QVfXiQERkZ0cc6SaMXxWTUWDazMadrra47eyGrFx1rHSc/V/cM3Jqi5cBnoDBBWDmgQPRA9yC9I7KqohzNT5OHgkCBluCm7STA19Bc/MBDuOQ5JEOLInsU/fNHxqICH4yt7FhW1xmgXllpZE9fEagWlgwWAtkQb73ahx1TQGYv4EDwQVuQQTSp0+Jrjt46I0uHhnnRZLymuTy6MEd5XCIk0c2aLkjosfjy2iYsc83IUQ80qYEXy+Yt7L1nMrNjY6Zta94pBYIhi4OF3nUQV1TAOZv4MDr+hXItAb36p9vYaTKUQ6xsTSyfHzc/dIZxcPjQdPwSwiH6UcgYOCc2W7i8zOy1FFnuMKwhXwfYwWOOibzvX4nK5DikomaNziow8M4gVecTpyxcX3tyf7g/llllaNcXZKb4sPhDDVz9tO+hMIR9SsQMHLEcHe0nWWFQ3QPWVoYURQAH2W9mO/1LBmBzJz1lALNRAvCDPIhvawysn0cCoWOJcv/qHqWZU2mRjFZ4tgWNYzz6PQOaWlZU0oFsnrlOyqvV+SUb08rrPYXj1T7S0aqnixiBMqgrBfzvZ4lI5DSskYX7QjCRnyB0mMoFhOjGJvsA+fAjo6tWz+jWTcMBErZl4AvpqEx8VzChRikh4CZc1sOuNTM0uxealh2ZFWP+QxlvBgf61lQgWC+5L0DUY5IGEhTemAHgpRSbiQmfn+kLRLka8sTL7kYVFRUmbCXECykQQUCptZUR8zwHBbyNdXzAgkD8IIKpLCoQvcO9ATwgAQC317wiPAK6tfsq+PgSDR3gzHt/XzlDkRq69bGFQohizQZgaxZ9Z5t/+JwkIddCu9i9YRYz4MIBLTxds3gCTc338Lfp+bQp9NLdhEi0Cj4XIKvgofTyMzMVTOaDsQUCsFBmoxAwNgVrWftibtnVi+F/+HDG32puF5C8SsQ0IQ9IMIfNip+ABZzh3EseqevLz6ZQk6cE+0UYS4Ub10VOTUFhLFgmjv/iKdQiKD2CMSLsck+8yMQ0GJaqU2HOOM8SGoDBzi9REcDAjMThdaIZQnubgLBlkFxSeS8C/BHgGeaN5CaoTVSFVbE1Zmcg/PaGmyOn1jJFxT1110aiEM9NBeM3U0gN5ZHjI/AvXDAYJfVAgIxgs98law/movhiX44sRf1YUyEJOJfCfKINJeVHdlfBgEVlQtdQulOAhlR4dboYoVnQqgqRlfnhGfiAcxwoNHcGSPhrN2+PyqaHLZF0fXRWxjiSU/qyc4XXvW85hDgWj7cvTOJCXvDziejPkLQ7RHALLXRgMwQf4l8j7BlyW1dEMKgweNUy7wjXV4gwHHQIFcABJuWRHEXOzXEnxkEM1bMdOolSOF9wU3tEErf/IjZHr+TVXu9vvRkn5k9xMQRPcNPaFyPIJgdZzIx5xN+dAFRCjjj4+VXb90bNad09SGL44c5I1acRS+6EUKX1T9t8rFDfiMYMGvEviPEC5lYz3BqyCP0n434jIatgVfWyfaEWPUapruDrxGtdiBltnUdiz7+3AxVlZJAygggQ0gixYqUI+Enj0nPDAEIWPBUrKpsVncx95xYjOvo52gTbXNvSaKzpm5ilGrrh04z1Hg4HE7vkF7BgZjB+BFwPtlg/DiHgmjRRDilYAocHu5c8krKe8wdS06qihGzXBZbwgPmEIQr5MfA/QgCZcATvlrHkYqUrUfM6ypwNUMySANxXD0El32YyokRPC0qKrddPTuy1wAW3EeLCl3n53X7wAU4IRibXwHwcuAFostxOtobo4t3iqg8eokZaq8jLnTBLiQngufBJDCwqrJFTbv5fnXbrS+5PBxjDWHwSFx8y4t2naqqFlVYWBZT+GgP1zD5CZ3OBWDmzQtdLp2HPxf0CHYU0xM9aM+VR9DR1++IhJXlBMEXFsFtzHULFw7lMbTBsS0/v0QN6F9pO8DBCQ55PMM7rzmB6lMKdRzbrua9UoQXrmeCOaTLXnlEwnKuEtIHfUCg56VgbcEvBYNPE7xZBhYPjdlriKHJprgUbP6y9a4gMSQEpNhWMJUPbDh5XQr2zNufmbuDcIbrvEvBSChe1+ZhMoOGAbXP0MWjmIuFFja5uFMZZwry8GqBhyQYEUtl9iOUvtcXOdfmbfEMT0jtYk8Hm0vGfkYU7liD4Y4Q0GrcpoOynX9tHgkFF0uaN7bFYRAMklHXC+HLwx493+wiBpkprrmDUwU88mfdulzhsnsMKRAY/pHHUQqct0cZRJzwc7EkGAszUAxBAGdtTI1DH3rGr+5iSRJKSq5ejXNFnSmkZH/DiQ0nYDGZe2l6zhG7QFev4qAo8eVXmjra10P8GLNz5mSil1Oxsz+P7WDPo8bwkIQLJrwA4aycrGrNhQUYsBbgTB+GGe6EYHz12APf4RX8GLTAnmecp0F53F4XKKBNpwjMOVzv+/puEN0Z13cjPFKMmFV8frCv7/Z7QxwujcRV5Slb9HWKxGI0gq/L+fJw2Txnks5j9Wye5OI9IFYeYZHMqDu8DbrgHr08BnqX92OEUkX0TucwqnaoABPNELWxhMCfm/61OBLgwEYbHeNre7mIzAmupoM443weZ7affMmNEYc2HJYBzMuFfymhU0pZx4cYbAD5EQTKmKeXcCosJUheTkCdXqLDXOA4sV+BYE3ChPkVQj1dTrxLGa1OpFSbud9P7omj3iEAgjGZBwpTmzJifgiAnfB6+mvHXIKQFDD6YW9l2T0P23v3yGOdgbAW5nnwZMMM/hD4lxIapJT72PCjhePnGUI+pQSpyxkobkswVsh+hYKbdTrsTvbLWQZRtCP0hHPJY5uUEndcvSOEuCilxCr7a+TxzPGOaUPsEB2uIgpa13zwf6iukMnPHyECAAAAAElFTkSuQmCC;" vertex="1" parent="1">
          <mxGeometry x="1093.8899999999999" y="1231.5" width="44" height="44" as="geometry" />
        </mxCell>
        <mxCell id="zGswEQUEo45fGF-Yw32O-70" value="Evaluation Agent" style="text;html=1;align=center;verticalAlign=middle;whiteSpace=wrap;rounded=0;fontStyle=1" vertex="1" parent="1">
          <mxGeometry x="1010.2500000000001" y="1484.5" width="75" height="30" as="geometry" />
        </mxCell>
        <mxCell id="zGswEQUEo45fGF-Yw32O-71" value="" style="shape=curlyBracket;whiteSpace=wrap;html=1;rounded=1;flipH=1;labelPosition=right;verticalLabelPosition=middle;align=left;verticalAlign=middle;" vertex="1" parent="1">
          <mxGeometry x="1167" y="1492" width="20" height="120" as="geometry" />
        </mxCell>
        <mxCell id="zGswEQUEo45fGF-Yw32O-72" value="" style="shape=image;verticalLabelPosition=bottom;labelBackgroundColor=default;verticalAlign=top;aspect=fixed;imageAspect=0;image=data:image/png,iVBORw0KGgoAAAANSUhEUgAAAGQAAABkCAYAAABw4pVUAAAACXBIWXMAAAsTAAALEwEAmpwYAAAOwklEQVR4nO1deVAUVxqfZO9N9qqtra3aTe1uZTe7VflDqxbmfT3DwCDKoSYgIIgocsmhRBBQQAHFK4qIB4IHXomo6xHjvcZ4xSOaqNFootEYNersxugaQ7bcnObb+jpzvO7pHmbGOZhhXtVXZTnNe6+/X7/v+r3XrdH4qYWHhz8JACsA4CoAPAAAVJE7ALAHAGL9Ndegb4yxSADodAACqki9v+cedM1oND7OGLvlBhhIotVq+2p6WhME4S8AUAEArQCw0cNyjFdwac1kbF27DdvWbleUGS0r0BjdhwflEgAsZYy1e2pOjLFVADBFq9VGpaWlfU/TXZpWq/0rY2ybu0+vqzI8vxiPXvm0S2lqX+uT+VgAZ4wldQe7HgcAn/rqxmP6xuLmw2edAuTw5buYmVPgS1BIZms0mkf8AgYAhAHAfX5Cep2AKfExmPVsvMuSHBcjubnCsvFWKR5bjXWzWnDnyQ+cAuOoWQ5duoNzlq3DknG1kv7i+w+0jtMvyuDWfDMGxGKfyAglUOp8DgbZTAA4z0+kKGUgrh6XjxtqCt2SaXnpkhtzRfFHXRQCxTIOKdfdOa+vLsDJOWkYFaHn507heC+fAqLVajN55ZVnJLl9U4EMyAaztJQMxwidztonY+wlnwICAFssgw+IMeL6h7yhQAdkQ00hlqYn8oD8r1evXo/5EpAbaqujY1w+FqYMwL5RhodykL4CBFwUg16HaQl9sW3MCMl9LxozQnKdIAjMl4B8aRm4ITfNZlNrCnFI/34eiVjUcgxPSPrwnIeeH/mNFeW51ntfVyWN6HwaBvMDk6mxTIqeGk+AESgyVmYdZICk+R2QGflDJJPauGOfSzKyqMSnCo3p2w/XvbzbpTlm5eRb/z47MaF7AyJ3zKZOdEku37qPk6Y1Yr/YOK8CEWEwiOAfPfO+y3MsHz/R2k/WM3HBDUggSHkIEP+DYAoB4n/Fm0KA+F/ZphAg/lewKQSI/5VqCgFiU8K7H97F7Xtf7zLe33fsLF69/YVHlHjk9CU8/NbFECByxbQtX4P6CEUOQVGeeTYJXztx/qEUuXzNS9b+OjbtDK0Qi2J2HzpJBTeXkzgC5dqdL91S5MkLNzAqymjta2LDjBAgFuU0PD/H7cyazJerYNy49wBz8m3Zs06nw/3Hz4UAUcpwqfzdVYlcXhNzBoTj567i4PQMTE5Nw9qG5yV9TJ01N+RDfA3IpGmNiissKTkVr9z+PASIrwHp2LTTDgwyVa8ePRMKe/0BiKkTcU7LUsnfTmucF8pD/AmIqRNxwZJVGB3dB0eXVnjMVAVd+d2XgJi8KCFAQoB03UIrBALfZNXUT7X+P23l5Ld2Kgnfz459xyR9vbB+G1ZW14nmo9yLQnOmOlhQmqyV6152m/8+f/0Taz9U23I34wc3JDEpOTgBuX73a0kpwxmh2tfilesk/Rw6ecG3gAxKCU5ALKCs+scW0RR0ZS6o1PHqkdOKkc7qjTtCJssTgASDlAfTCgkGKQ8B4n8QTCFA/K94U08BJJg5dUEaoaV0e0CCnVMfYjuKcU+v1/+uWwPSEzj1ddUF2JAz+JBPwXAXkJ7AqW/4Tjb6FAx3AekJnPqGECBSZfmbU19ZkYdT89JfA4ABFGXR24i0Wq0uLCzspz1yhXT4iVOns5UFyQPkURYfAn/i1airuwJi6kRsWrDE55z6hKyULv0gY+zzsLCwP/Q4QEydiPMXr0SjMdonnDqtjvjoSKeCE8bYzB4JiMmLIgdkduFQyVwn1GzEZUv/jSuX38Gli29g5tBKHpBbTz/99A9DgHR6D5Dhz9gOqEZHx+Py9o9EMCwybeo++SoZHAKk0zWl79x/HEsrqrCopAwXtr8oYSx5QPSyRLe4qFkCBsmKZbcxLi5Z4ksA4GUCJiws7Ac8OIIg/J0x1sYY28sYW8QYe6JHcOo1Cly5RRa2r7arKBCNTH+z6+CbmJGZpegfBEGH8+e+YwcISdkYaaDBgXNNq9UWC4KQzhg7ovD7x1qtNrxHcOqJMq6cZGZzq1t9CYIeR49aoAgGSfuSm5j4bLZbfTPGPqMXgAY9p54o48ppZfC/63QROGhQvmr9jf4/JbkQx1W+iK0t76uCwUtT45s4qrgZY2MHqT+AEUZMSrR7F8unjLHeHgWkO3HqNTKTtfPAGxLFGwzRojMmJc5tPoN5uVPF/7MAkTFkLDbNPukUCEqyYtnHOHHCZoyPS7WOSSCNLVuGSxZ9KPqdosImOSg36O2sHgWku0ppRZVkZUyfut9OiaSo+tpt2Nz0lttAKAEztWEPzph2UPy3/PeRI6X1OMbY0B4BSEHxc9Y5JycXuKXcBfPPY9X4tVhY0IgjsmrF/CMnexKWjG7BSfU7sH2JyeU+21o/EIMFTqcFPQKQhZz/IJM0d84ZpxRGzrp0zGIcODCzS58VERGJ6emlOHnSLqcBea6kje/jW71e/+ceAciFG/fQEGkrf+TnTe/C1NwSnXmfPgluBRSDkvJw1vNHuxwjJsb29lTG2C6PO3V/ceoH3ngHD775rsNr+DyJHDj5DCVFLV50DVNTitWU/RVj7D3GGJXgt9IbuRljJuUoTYdjy9pVAamduEUe1SUEBae+rGOTU5z6P187IRm7vm67nZLmz3sH4+MUK7v7BUEYZjAYfqWkr/Dw8L8BQA3/rkqLkL+h1SAfa/iwav66OxqN5tGA59RPnL+OkVFRTnHqDTOaZH7ktN3KUADjIr3dW+NkEwThJwBQbS6fODSRz5VIk1SHyWGgcOrZeQVOcervXvuPxIdkZJTb2XMFM/VK7969f6lxozHGBAD4iO+PIjTJA9B2FSMjbR8UYIztDjxO/ewVTBmcLlK2tQ0znCaqWpd1SFZHU+MJiXLIgcvBMBqN33cHDE6HTzHG7lr6jIiIwtaWS5JxRxXP48f8FgD+FBSc+qCUwQ6JqszhtjpTakqRXWgri6YuhoWF/ULjgSYIQj/G2DeWvilv6SIPqQ4KTn3v628rmjQqmZRV1kiup9XAK4XyDJktd9pnONMYYyttq1NvVzGmepmMm2+kb7UEBCAmhXPq02fPl/x+/ZNvcOkL68Xiohw8Uoi8UChL+vZ7EgwzIE/wTp5K9RJzWWFnLi3max8AGLo9ICbunHpJWaVdLlM3ZaaiWSPTIC+hUzmEjwwptPU0IGZQtlvGoEqv1GSaVEv3jLGvyex1e0BMKnLuym270Jto16LCOWKOIQ89q8ZJvtLzlVqe4QFA8vgHg7h4aZR3W6w+Dx1aiXq93Tv1DwcsIHuOvGW3IUHOgfNChULemXsDDDMgvfl5Nc467rDgSMkkt0puBywgW/cckfRr2R2iJvyNA8ABbwFiMBh+w89rSsMeh/Oqqd7Az+t+QHDqldV1IpHF/93mXQcl/SpxELwMy7TNgz585i1AEhISfsTPi3gXR/OqnWijwylsDihO/dDJC5LdJPxvSxffdHjj2dn1/I2/4S1AdDrdHyU6nbLX4byqxq/j5/VZQHHqh069Z/1bKp3wvw3NqBCdJTlNpRunqIu7/qa3AKHwlZ+XGh9DSer4cWuwf4JEzzcDglOvrK6zq+5Stk6fqJCDRkXDstKldiuGmD7+OqraegMQxthkvvQvDzSI18/NabDy+rwwxjoCmqDavOugpJDIS1JSrkQRBBAxfV2WLh6yAcAZyxhE/fJzmD/3nFKoa5GL4mmtQAbE1Il45vJH4h6s+IT+djcpLyymp43hn0aTp896mD/OaR1jQs0myfi0G1IBiFPErxuNxh9bEA1oQEycCd20c79kxVCF1ZHZ8uQqoe9BMsZOW/qONsbZJYX8NlQAOEEf9LTrKFgAMSlsAyJ/Ig+HyZRxq+Rz4jM8AQh9qpXXV2XFKsm4jTOPyR+GDLWOggqQl3YdkMy7buIWiWJmzjgsL4MTufTUQ4JRKAks4lPtnDkRZdyD8JmquQw2QG7ceyCp/iYkpNmtEvmGaSqFi4U919sjANAg3z46Z/Ypu22nfN2NMdbsCF1FQBplh1e8/cY3T0pSsm1bp3hf5q2kvGRl2co/ZiV9Q3yGs8cG6BAo7zNIaOVNrt9pNxaRVdw4Xzg8+64GyKqKPPGL0SohWkDJ89MP2SmJuHXakCC/1uxXtjPG8unDxADwWzopRWcKKekz5xnW0NYilFcogUHCj2PeAf9zVUDoAsvFk7IHS44GVw1LVj2NGigSLzp25eydZPy4DpEDf6gx4lNxTpPUTMlNluxvSh0BcsFyIX33Vn54vrk4E0elDnTrO+X+kGTZt9wryqXRjpIsXHARc7IniyyjK0AYjbEiLeyo7K8S3b2vujcLABby34RdVZmn9EaDgJHClAHWG6etN/JcwJEQB04KJlZPFolJTBNl4BNrNrnUN1/VJREEwagICB2zMvO64oWp8X3Fr0T7W7Eb3BSav+Ve6JCOI3PlSJYsui7mDlMmv4J1tVvFqu3c5redWg3Kq/A9OcijHZmtNTx6ccZInJSTJvmCcqBIcaptUzMJnXLiFUMKpad1WGaVuKOQdjG6o2AlP5E9ol48EERASsH9EAcOkEatABCtCoher/8ZY+ycvx0weEkKRs7CtoWXRQBiYmwm7TuzFoMloxfgotYrbgExa+br4iksOb+fmJgjnqxqmX9BCYytqmBwpuvXtDXG38oDL4maT+B//+6c4eouD+TMaz4rHlOL7ZfkzrjHXClqPqrVajPNFUirXwlSuaP2Gzl1Nd9DfIZaCZ2SPj6NUJBjbu92oWySdmnTq4kCWLIA4DqnkAe00RkA+tPDZ76/3UoP3/RpBxQByc2dogTEfwFgriAIv6ekj/IMALgku2Zbr169HtP09GY0Gh+nw/wAkBseHv6k0jXmLLzavL1TVCA5fSXaVcb0naDDmyom6BEKbanwyBjr4/07DcIGAI0WZZNZkjt64sBlq8Oezwg1zzXa+MybLypA0r4pOpJGOx9lGxJOeXDoUFNr5o3PXQYFjLEi1U5CzXPN7Oi/7gKQS1YOPNQ0Xm/mzQqHzaei7ptBuMcY+xcArKZoyluD/x9QN09p77496QAAAABJRU5ErkJggg==;" vertex="1" parent="1">
          <mxGeometry x="1555.89" y="1456" width="40" height="40" as="geometry" />
        </mxCell>
        <mxCell id="zGswEQUEo45fGF-Yw32O-73" value="Baseline&lt;div&gt;Response&lt;/div&gt;&lt;div&gt;Agent&#39;s Response&lt;/div&gt;" style="text;html=1;align=center;verticalAlign=middle;whiteSpace=wrap;rounded=0;fontStyle=1" vertex="1" parent="1">
          <mxGeometry x="1538.5" y="1516.69" width="75" height="30" as="geometry" />
        </mxCell>
        <mxCell id="zGswEQUEo45fGF-Yw32O-74" value="" style="shape=image;verticalLabelPosition=bottom;labelBackgroundColor=default;verticalAlign=top;aspect=fixed;imageAspect=0;image=data:image/png,iVBORw0KGgoAAAANSUhEUgAAAGQAAABkCAYAAABw4pVUAAAAAXNSR0IArs4c6QAAGlRJREFUeAHtXWl0VcWW5kcPa/U8j3b36sG3uu1u2+54q87NQBIJkJgwmgCJgUxMCUKYhJAwJIyKoiBhBkFUVEBAEQHBKIojowMqyKBP+znj8z3t9bT1VfMdz667T91z7z3nJjcvkc5aWVX3nKpdezhVtWvXrl09enSjv5ycnN+RUs4IhUJPSSnfsizrXSHERSHE/zr/F/FMSnnaKTMDdboRid0H1VAo9DdCiLellCrIv1Pniu5DaTfBNBQKPRFEEEbZJ7sJmd0DTcuyJGfw0PIq1bxklVqw/G51+7otavm9O+1/5BfctcF+N3R4tasnhcNh0T2o7QZYSik3kEByruulnjz1gTp87qdx/9ve+FChLNWzLGt9NyC166OYkZHxu0KInxNjp8xeGFcQXFBTZi3UApFSfiml/L2uT3EXx1BKWUfCQPrQk8d8C2Tb0ye5QJRlWbVdnNyujZ6j5p4kgQwpr/QtDOopmG+ovpTy5P+rwQFlHg6H/52tNb5hzFR33L01sEDu3LiNCwT5b5w1SsO11177bwHRuzyKSyn/XAgxSUp5gguA5zFBt73xUWCBoA6f3DlM5IUQx6WUE4HDD47b6enpfyalTEtPT/9HP8RJKa8KhUJ3X+oRX5uM4r975xeoVQ/uCSwMGrZQFzA4TI88cNhgWda/+MEd5aSUmaDZT/lOLeMIYpuU8jtG6FtSynovzSYUCv1rKBR6REr5S1ZeMywzK0tV1darha0bFSbmZ89+nrQwSCiAAViLVmxSVbUTFNrwatuhYSc+FpOJaWlpv+/0ptOsLmgG7V2jhwkh/l4IcYYh6CLUUVnXYLwOh8N/JKVcBruTWT4cDiss5sCw/a/8uN0CIEHESg++/hO1dNN2W/BWOOzCGbg5OK5xPrYrhRC3XPrAPjfxZr/PCyF+ZAqxU3+Hw+H/lFJ+wJCKIoy9Q2/AWsBVJj0jU9XPaFG7nn8joRAeP3pebXz0aXt1PmvxcjVp5nw1ftosNbr+ZjWmfpoNB2uP5iUr1bJN29XmPYfVE6+8lxAu2gYOwMXEz8HZsyebZYUQH1qW9V+dKgRqLBQK9ZRSfsGRqhh9k9p5+HW14v5HVWlFjRdx+hmInzZ3sXr86LmYDHvsyFl1y6p7VM24SSqvT76uy9v0k7++30BbYLeve0ABZqxeA1yAUwzB6PaHjahWrfc/YtNaOWa8fu7g8kU4HM4mPnVKKqW82uy+dVMa1aEzn7qIxSIOX15Wz54upMtrxqqHn3nFVZaY9OiLp217FNYPlmW56vlhvp8yg4eU2XawvccveOKAHoNex2FBSHh2/74XXHWeffuimtAwx1VWCPGzTusp0KDQNTmy+KriTbz7T76r5i5dq266eaZav+OAiyASxENPHlWjxk9RmEs4bK+8EOIXUsrzUJOFEE9DQcA/8s6zC4k0N8ANh9NtJj948IgnTht2HrRxBu6ggXA1U9AOHnBcwaNwOPxPKe0hmOCEEGd5w0DERDDI73sff06NGDXORQyHD03MsqyXpZS3SSnLoRzk5OT8WiJC09LSft1ZZJajrgMj5lwwfGSteuDAy+2ixUMo4FXqtC/LsrZyZo2b2hS3Z8QTzL4T76ixkxpiCeI7Z/+jLhwO/3Ui5vt9L6W8Qko5Tkp5wFDRbTzQO0ETlId4uMd6h55SN7XJpGmbX/wClXPUP73OwGRmzhmxEDWfY9K/Lq+PiThUTQxFm8Ph8D8HQi6JwqFQ6B+ggkspv+IfGfI5udfZmpyJt5/f4AmUGwbzO/AuCRTjV8GqlDWidjz7WuCvCOuLitGewxOY0iKE+OP4WHT827S0tD+RUs4VQvwPpw/5kTdNVgdefT8wneANh2VZVkaHY46vljcCtc/PF0NloLn0G1TsQhTwLMvajcVlhyMcEKDTYx7jNCJf2H+QvcInOvykGAE4nJQtGPmKHLq4H+RQ5u5dbV4Gvg+EEEUB+Zby4pe0tAFCiI84Q7N6Zts0+KWXr8HAs5Qh7dhxtPT9aCVYMUO95ARKKQ9nZGT8VcoQbSdgZ/J/geOMdcjKBx5L+BFi7cXrwZ7XTnRiV8d2Kl+dw2wR76tZs3VflDAsy1oOlTR2K13jzVVXXfUbQoiVnLmwea3YsjsuzeAJ1YEdDwbJlFIkpVxBDeKrgfrqJZTNjz2rMjKjLKpTUopcCoBbljWd6EUKmjc+8pQnzVg8Glbk1hSg5Abp7APoBRZWsaZAHmo7prJzcvWX4hDU7YRBlJtC6Zmdo7Yfijb9zFu2jtOMBa2vvRVqJ6k0KyvrT7nuDnMIFwisq/mF/ThiyE9NqrEuVElK2cB7StHAG9SB1/7bRTt4wcp8CZU65SRYlrWKNapg7yGBYKWKjSX+HuNwKpBybGo1mJOklFvw7+Sr/e5YBsVLSrmG04Z1CtGOFLzg7zG8B20jUHnsovHNJey8cYTu2PCQCyEhxIuYHAM1kqCwZVkFUspnDMJd7To7kYfC4XB+AnCBXhcUFPymYxPT7UGL5DyoGjtBvxNCfJtSRwos4ogRmNz4phImd+5MIIT4GA7SgSiOUzgzM/MPpZTYWtUE+8lblrUDdeOADvQqLS3tby/Zwz6htkEz39PZ9dwpleHe6NoVqAG/hbEPzvfAp8+7zfVlYOVOSDrpmx1lCklPT/8708qMNmAMLBlWpmrHT7L/kfcy38MDHoz0S2u8co6p5U1OKwySvJdMa7mV8+K7lEzuUsp7CAn0Dv5VAJm9x86rvgWFHBHkj7ZXD4dQuYUAOPTK661a121Wr1/4VL3/hXL9v3b+E7V87T3qul55Ji6nsacfj9mJ3l1zzTV/4LgNuWDjI4BmSULZc/Scq5fAsyYR7EDvQ6HQX8DBjAQyqWmebpyQeO7cT9WJcx+r6lG1LmTbi0woFNpO7SKtGjVWvfHjz11CMIWC36fevaiqRo5x4YLtg0CEG4Uty9rEceF57KcQL5Aau4hwMeq4fREp5RRqHF/DIy+86WocCJx4/yubSRc++VrVjK7jjIA+npS1UwjRl9pFCmG88+k3CYVBAkJZUyhSyt4Gn339xD45H7JHVI1ULYuWcDpdvQS+BXwLGo6AvhryU0gI8Qoxprx6TJQwIJALn32rGfX6O5+pvN6u/Y59ftoxyzhbsjbRGKb89AwSBqXoKXz4AkyzHT+/hRB7iQeABxoxZPKVee3kGS7eGEbG437aSVhGCPEfhAhS078Wm/47Dx3XwiBGLF+7WX89UJWDLpIcA5+2CAAewQ6aYk5hNPwy6C4khhuu7gMe4TBnfmQvPT09w2VKgpcLa1d1iApsWVYTAcXXwFent629Xze4ZcdejSSQxZfJNR4hxIiE0mcFpJTV1C7geE3gxJREKSZ6jotlWZWsqYRZ4M5xATxq89hb77uGpkUrN+leAl7xHoTVfsLGEhWQUh4iZKrr6nVjGKYGDSnVApnZskgjScgWD428tyyrOVFb/L2U8nZqF+oswUw25bhIKRfzthLlsZsZD5fyisjxueLS4S4ecb+tZIdLjZ9jbtfaFdw8IQj8w3+KkER63/Y9UUzD+oDKBD1Shr11qjtmXH0U7KCCAQyCB21JE+kjw7UrL1zWbHpQw0YbUHuJTzjzSO06mmrwU1xwkMZpIxxwYcBcW5nomvQuPT1dvfX+F1FMq5swWZeBZ7kP2nURKeW9BN+LCe0RCNZUuiEfGSnlasIFH5nZtjkk4kwKCWRr23HOA+RPgre+1mc4qYov2csHF+783Blu9ISpuiGogCaS+D1k2I26DBwJfNCui2BYISZ0yJA1ZBjHZZFuyEdGCDE/ES7AkcpwbQs8651/vX5HZRwe4/iDjEIBNifHV8mrom2jMs9n8FX5LXe0RgkEKiqfSOHkFtVwnAeYeAl5wOETqZfw4z179dzHrolXSjk8TtNRry5ZCso4Ll7qd1Nz5IApfImphyDFLiNciwiGmTo+aN8HN3BOubq8EakC/GvR/cyTS3AkozJIH97zVJRATLU3qF0rLS3tL/lCjKua8Zjv9W7Z6o0cX/iWBVo1O+abb4lmL1w2b92t28CCkGujEErbqQ/VkvUPqpKyEbocwUMK89DVV1/92z2EEI38BayXcOnH4RYuZZ7ftPuQC+jLp951CQSLJr4Yk1Luj/rsfDzg0RsAD6q0F8PjPYO6nMvOq2OB56PpqCKggfiERarZY58/edbFExyF4DzjecwrOEph9hrsTEIgcFC2geHADA7c88peeb7gycjMVO9ejKzSbXPFqLEcOZhOosfJKJKjH1xSuXMJN6QwgwQ1nWB+4zCSPSqA+ZX3WJhxzn/8C/2BnPngS1c75j6JFx8RAME4JdzWA1F1COE5t69IKAwAblq0VDdeWNRfI4WvEYgSPCcNpNGYYuHaFuBBKH56CnCpqB7V0bhoVdzGZdRY14I1l80Tc+9c44uXs29r1TgKId6AQN4jBiJ2iJckzWfoblSnrLzCZhDGVXRleu6kR9LS0n7LZHKQ3zB5h0KhVzlcDF9ozxw2MHRhAsecwYcp1IU9zpeqGQc50GLuGIJmtAdcipkmN3X2Il+85OsUhJaCQPS5OQRvMZnv9RtqHTEIQ5ahTel3jv5eDMeIOHTGfIX9C2zDmnvZ1DbaBRPG3jRRYa1yQ8lQU5viuKwBrGR3Dx3njmLTp4DjAl7Qb5jfvXhnPlu85j5dRwjxGQSiV+J3bd7hCwg296lhn6l9vMCv66hlWf0syzrodWTAZ3vx8IOWtUsIkRXzS2AvgLOjXGjPfz844ESZyXyv3zh4SvDg/Z+UQMzjXgTQT+ooEVcymnUW7qWOIDSSfmC2o8yBWC6tUsoruR0vaBs4++IlAPMZJn+CTQJhQ9YDvoDwISurZy81aHBd1H+/ftWqV68BnkOIcwavn5ZEjx49MJzAMYKQ42n/gYPVyDHj1KSbG1V6RoYmoHdGlppWOND1j2dUF2VRB3UBg57zFG2a3inoocCRl0Me6wvQBNq8aAYvqE57hiw9qeOgvilBr984yEkN5+UNVPMXnoz5P2vOM6q65naVnd1X10Fd7C9YljUYQpFS3sD3Gwg2UtNo2TgnolBkWGF1prZB/WzSXPsfeTyj+ijL1yiARe+M9Jt4uGTn5KvqmiVq9pxnY9IJHvTKG6Dhw9HBi3fmM69JXau9ON9tVvD6PXtxRFXLzMyJiyQJq2Xey2pY6QxXj3EOyVSbh2XS0yOTY1G/AQo6PjEW+w+8lzT3L9YCQZ4YjTIoS/UAA7D0e9YGnnnhgh4xrLRRAXeiI16akZGt4SPinRfvzGdRaq8TGccGhEWKn2htfGMKxLTMe8kXwiBm1Oi7XEIhBlFaP2GNmjI5YknG86bmBZqxYLDZS07XNij8x+sdgEFtIEUb9eNXu57x95YVVqPHtPqmq3nuiy5YfhQkLMKNUIT2wtDlswrTyeRZC9S2p07ElDC8vzny0xv2+EYcQhk+Yq6rPsGqq12q7l7/idqw7mM1eLDbY+SRJw5roZi9hOpTavYO1KV3SAEbbaCt2rF3ut5RueEj5gWiadr0x1xw7tv3fEz+wSwF8xR3LES7l3rptB4I6GX6PRFSCBiGPXTTuAgvRSqDNMiXBIHMW3BC9ekTGV4Ao6BgqFq/9gObSWDUsqWnVFZWxEKaf32ha89l+szIPMZxQR7vaKjCPg3qUhnABGy0gX+0WVAwRL9Hud59itW8BccDCWTU6OUaBoY6M14LeAhDrWEq0XUQa9g2LjqT6hXckEfIUwpJmuZ3HuqiZMiUQMhDKBAiwUc6t3m/ZhIxq2GaeyduasMszehx9VNc9TksvCOBoA5/B5gEn9KW5v2uMkE/MNBTUhJZm+FcIp8rcPLK7A0cJxguPR0vnHCsiAAaFSTG3KBC1AUCmtd7UGCBYIKn+rm5BWrDuo+iGAWGDSlxxxLZuvugOvOTnyu+Kp6UV6jwT/DwDmVQlp4hBSwSAk/RNnCgspjIweQg/9A2qT6WBSSQ7zeoIrCpDHiMzUBf4Wth8/HcwmXzyuLV92oE0EWbZrUFIqBP38gwUVkxx5NRYFrrXWdUdnbERta7T1/Vui7SNgjcW1xj/zNi7TIoS88AA7C4IHi+smK2Ltu375BAtDTOPOhSVLDvQQLBXEw4IHV83OqSsquZTg58nQLPPN5QVfXiQERkZ0cc6SaMXxWTUWDazMadrra47eyGrFx1rHSc/V/cM3Jqi5cBnoDBBWDmgQPRA9yC9I7KqohzNT5OHgkCBluCm7STA19Bc/MBDuOQ5JEOLInsU/fNHxqICH4yt7FhW1xmgXllpZE9fEagWlgwWAtkQb73ahx1TQGYv4EDwQVuQQTSp0+Jrjt46I0uHhnnRZLymuTy6MEd5XCIk0c2aLkjosfjy2iYsc83IUQ80qYEXy+Yt7L1nMrNjY6Zta94pBYIhi4OF3nUQV1TAOZv4MDr+hXItAb36p9vYaTKUQ6xsTSyfHzc/dIZxcPjQdPwSwiH6UcgYOCc2W7i8zOy1FFnuMKwhXwfYwWOOibzvX4nK5DikomaNziow8M4gVecTpyxcX3tyf7g/llllaNcXZKb4sPhDDVz9tO+hMIR9SsQMHLEcHe0nWWFQ3QPWVoYURQAH2W9mO/1LBmBzJz1lALNRAvCDPIhvawysn0cCoWOJcv/qHqWZU2mRjFZ4tgWNYzz6PQOaWlZU0oFsnrlOyqvV+SUb08rrPYXj1T7S0aqnixiBMqgrBfzvZ4lI5DSskYX7QjCRnyB0mMoFhOjGJvsA+fAjo6tWz+jWTcMBErZl4AvpqEx8VzChRikh4CZc1sOuNTM0uxealh2ZFWP+QxlvBgf61lQgWC+5L0DUY5IGEhTemAHgpRSbiQmfn+kLRLka8sTL7kYVFRUmbCXECykQQUCptZUR8zwHBbyNdXzAgkD8IIKpLCoQvcO9ATwgAQC317wiPAK6tfsq+PgSDR3gzHt/XzlDkRq69bGFQohizQZgaxZ9Z5t/+JwkIddCu9i9YRYz4MIBLTxds3gCTc338Lfp+bQp9NLdhEi0Cj4XIKvgofTyMzMVTOaDsQUCsFBmoxAwNgVrWftibtnVi+F/+HDG32puF5C8SsQ0IQ9IMIfNip+ABZzh3EseqevLz6ZQk6cE+0UYS4Ub10VOTUFhLFgmjv/iKdQiKD2CMSLsck+8yMQ0GJaqU2HOOM8SGoDBzi9REcDAjMThdaIZQnubgLBlkFxSeS8C/BHgGeaN5CaoTVSFVbE1Zmcg/PaGmyOn1jJFxT1110aiEM9NBeM3U0gN5ZHjI/AvXDAYJfVAgIxgs98law/movhiX44sRf1YUyEJOJfCfKINJeVHdlfBgEVlQtdQulOAhlR4dboYoVnQqgqRlfnhGfiAcxwoNHcGSPhrN2+PyqaHLZF0fXRWxjiSU/qyc4XXvW85hDgWj7cvTOJCXvDziejPkLQ7RHALLXRgMwQf4l8j7BlyW1dEMKgweNUy7wjXV4gwHHQIFcABJuWRHEXOzXEnxkEM1bMdOolSOF9wU3tEErf/IjZHr+TVXu9vvRkn5k9xMQRPcNPaFyPIJgdZzIx5xN+dAFRCjjj4+VXb90bNad09SGL44c5I1acRS+6EUKX1T9t8rFDfiMYMGvEviPEC5lYz3BqyCP0n434jIatgVfWyfaEWPUapruDrxGtdiBltnUdiz7+3AxVlZJAygggQ0gixYqUI+Enj0nPDAEIWPBUrKpsVncx95xYjOvo52gTbXNvSaKzpm5ilGrrh04z1Hg4HE7vkF7BgZjB+BFwPtlg/DiHgmjRRDilYAocHu5c8krKe8wdS06qihGzXBZbwgPmEIQr5MfA/QgCZcATvlrHkYqUrUfM6ypwNUMySANxXD0El32YyokRPC0qKrddPTuy1wAW3EeLCl3n53X7wAU4IRibXwHwcuAFostxOtobo4t3iqg8eokZaq8jLnTBLiQngufBJDCwqrJFTbv5fnXbrS+5PBxjDWHwSFx8y4t2naqqFlVYWBZT+GgP1zD5CZ3OBWDmzQtdLp2HPxf0CHYU0xM9aM+VR9DR1++IhJXlBMEXFsFtzHULFw7lMbTBsS0/v0QN6F9pO8DBCQ55PMM7rzmB6lMKdRzbrua9UoQXrmeCOaTLXnlEwnKuEtIHfUCg56VgbcEvBYNPE7xZBhYPjdlriKHJprgUbP6y9a4gMSQEpNhWMJUPbDh5XQr2zNufmbuDcIbrvEvBSChe1+ZhMoOGAbXP0MWjmIuFFja5uFMZZwry8GqBhyQYEUtl9iOUvtcXOdfmbfEMT0jtYk8Hm0vGfkYU7liD4Y4Q0GrcpoOynX9tHgkFF0uaN7bFYRAMklHXC+HLwx493+wiBpkprrmDUwU88mfdulzhsnsMKRAY/pHHUQqct0cZRJzwc7EkGAszUAxBAGdtTI1DH3rGr+5iSRJKSq5ejXNFnSmkZH/DiQ0nYDGZe2l6zhG7QFev4qAo8eVXmjra10P8GLNz5mSil1Oxsz+P7WDPo8bwkIQLJrwA4aycrGrNhQUYsBbgTB+GGe6EYHz12APf4RX8GLTAnmecp0F53F4XKKBNpwjMOVzv+/puEN0Z13cjPFKMmFV8frCv7/Z7QxwujcRV5Slb9HWKxGI0gq/L+fJw2Txnks5j9Wye5OI9IFYeYZHMqDu8DbrgHr08BnqX92OEUkX0TucwqnaoABPNELWxhMCfm/61OBLgwEYbHeNre7mIzAmupoM443weZ7affMmNEYc2HJYBzMuFfymhU0pZx4cYbAD5EQTKmKeXcCosJUheTkCdXqLDXOA4sV+BYE3ChPkVQj1dTrxLGa1OpFSbud9P7omj3iEAgjGZBwpTmzJifgiAnfB6+mvHXIKQFDD6YW9l2T0P23v3yGOdgbAW5nnwZMMM/hD4lxIapJT72PCjhePnGUI+pQSpyxkobkswVsh+hYKbdTrsTvbLWQZRtCP0hHPJY5uUEndcvSOEuCilxCr7a+TxzPGOaUPsEB2uIgpa13zwf6iukMnPHyECAAAAAElFTkSuQmCC;" vertex="1" parent="1">
          <mxGeometry x="1552.2499999999998" y="1251.5" width="44" height="44" as="geometry" />
        </mxCell>
        <mxCell id="zGswEQUEo45fGF-Yw32O-75" style="edgeStyle=orthogonalEdgeStyle;rounded=0;orthogonalLoop=1;jettySize=auto;html=1;" edge="1" parent="1" source="zGswEQUEo45fGF-Yw32O-77" target="zGswEQUEo45fGF-Yw32O-72">
          <mxGeometry relative="1" as="geometry" />
        </mxCell>
        <mxCell id="zGswEQUEo45fGF-Yw32O-76" value="Evaluate" style="edgeLabel;html=1;align=center;verticalAlign=middle;resizable=0;points=[];" vertex="1" connectable="0" parent="zGswEQUEo45fGF-Yw32O-75">
          <mxGeometry x="-0.0177" relative="1" as="geometry">
            <mxPoint as="offset" />
          </mxGeometry>
        </mxCell>
        <mxCell id="zGswEQUEo45fGF-Yw32O-77" value="Evaluation Agent" style="text;html=1;align=center;verticalAlign=middle;whiteSpace=wrap;rounded=0;fontStyle=1" vertex="1" parent="1">
          <mxGeometry x="1538.5" y="1304" width="75" height="36" as="geometry" />
        </mxCell>
        <mxCell id="zGswEQUEo45fGF-Yw32O-78" value="Seeking Balance" style="rounded=1;whiteSpace=wrap;html=1;fillColor=#e1d5e7;strokeColor=#9673a6;" vertex="1" parent="1">
          <mxGeometry x="1630.4899999999998" y="1318.56" width="163.75" height="28.5" as="geometry" />
        </mxCell>
        <mxCell id="zGswEQUEo45fGF-Yw32O-79" value="Understanding Causality" style="rounded=1;whiteSpace=wrap;html=1;fillColor=#e1d5e7;strokeColor=#9673a6;" vertex="1" parent="1">
          <mxGeometry x="1630.4899999999998" y="1362.5" width="163.75" height="28.5" as="geometry" />
        </mxCell>
        <mxCell id="zGswEQUEo45fGF-Yw32O-80" value="Reframing Narratives" style="rounded=1;whiteSpace=wrap;html=1;fillColor=#e1d5e7;strokeColor=#9673a6;" vertex="1" parent="1">
          <mxGeometry x="1630.4899999999998" y="1408.25" width="163.75" height="28.5" as="geometry" />
        </mxCell>
        <mxCell id="zGswEQUEo45fGF-Yw32O-81" value="Appealing to Shared Interests" style="rounded=1;whiteSpace=wrap;html=1;fillColor=#e1d5e7;strokeColor=#9673a6;" vertex="1" parent="1">
          <mxGeometry x="1630.4899999999998" y="1450" width="163.75" height="28.5" as="geometry" />
        </mxCell>
        <mxCell id="zGswEQUEo45fGF-Yw32O-82" value="Proposing Constructive Actions" style="rounded=1;whiteSpace=wrap;html=1;fillColor=#e1d5e7;strokeColor=#9673a6;" vertex="1" parent="1">
          <mxGeometry x="1629.4799999999998" y="1492" width="163.75" height="28.5" as="geometry" />
        </mxCell>
        <mxCell id="zGswEQUEo45fGF-Yw32O-83" value="Qualifying When Appropriate" style="rounded=1;whiteSpace=wrap;html=1;fillColor=#e1d5e7;strokeColor=#9673a6;" vertex="1" parent="1">
          <mxGeometry x="1630.4899999999998" y="1537.69" width="163.75" height="28.5" as="geometry" />
        </mxCell>
        <mxCell id="zGswEQUEo45fGF-Yw32O-84" value="Citing Principles and Precedents" style="rounded=1;whiteSpace=wrap;html=1;fillColor=#e1d5e7;strokeColor=#9673a6;" vertex="1" parent="1">
          <mxGeometry x="1630.4899999999998" y="1581.5" width="163.75" height="28.5" as="geometry" />
        </mxCell>
      </root>
    </mxGraphModel>
  </diagram>
</mxfile>
